<?xml version="1.0" encoding="UTF-8"?>
<svg version="1.1" xmlns="http://www.w3.org/2000/svg" width="922" height="1404">
<path d="M0 0 C304.26 0 608.52 0 922 0 C922 463.32 922 926.64 922 1404 C617.74 1404 313.48 1404 0 1404 C0 940.68 0 477.36 0 0 Z " fill="#FEFEFE" transform="translate(0,0)"/>
<path d="M0 0 C3.97119463 1.9183385 7.44473481 4.40362376 11 7 C11.92167969 7.66 12.84335937 8.32 13.79296875 9 C15.64024517 10.33399933 17.48142334 11.67648399 19.31640625 13.02734375 C35.77728472 25.12740725 53.36119486 35.38862776 71.0925293 45.48486328 C79.44346375 50.2428046 87.7469997 55.07414545 96 60 C97.09973145 60.65500488 97.09973145 60.65500488 98.22167969 61.32324219 C116.73178771 72.38153898 134.23224446 84.20640177 150 99 C150.53625 99.50225098 151.0725 100.00450195 151.625 100.52197266 C167.10550657 115.1360986 167.10550657 115.1360986 168.5625 124.6875 C167.87474626 128.73760538 166.63755339 130.86345003 164 134 C158.41802391 137.93468129 153.63397464 138.00162856 147 137 C124.83151543 130.63349854 104.61720315 115.30247736 86.30078125 101.83984375 C81.77770814 98.52629337 77.17552273 95.45694906 72.375 92.5625 C71.2295874 91.87099854 71.2295874 91.87099854 70.06103516 91.16552734 C55.6477788 82.5460383 41.6957749 75.05876792 25 72 C27.9725672 83.00421511 31.83558017 92.38029583 38 102 C38.37785645 102.59635254 38.75571289 103.19270508 39.14501953 103.80712891 C50.81816446 122.11727663 64.40898664 138.7266896 78.9921875 154.7734375 C80.84035297 156.82295952 82.64227688 158.90418138 84.4375 161 C87.16482505 164.13863858 90.04437068 167.07557641 93 170 C96.50461652 173.46778121 99.82590641 176.99973091 103.02734375 180.74609375 C105.09108902 183.10407596 107.21635087 185.39323211 109.35595703 187.68212891 C114.09730672 192.75723214 118.62901688 197.88699801 122.89453125 203.375 C124.45803528 205.32430373 126.03986323 207.19839259 127.69921875 209.0625 C135.48001962 217.82413925 142.1427555 227.09690956 148.5859375 236.87939453 C149.81705104 238.72563973 151.08096189 240.53751375 152.375 242.33984375 C155.7229235 247.15248379 158.07320416 250.98218686 157.56640625 256.98828125 C156.54742093 260.607436 154.74445435 262.44701921 152 265 C145.82959715 267.05680095 141.16401724 266.06521832 135.49609375 263.3125 C124.94374284 257.763846 115.45648647 251.21174007 106 244 C105.40928711 243.55108398 104.81857422 243.10216797 104.20996094 242.63964844 C96.77415683 236.96419103 89.64023526 231.00690735 82.60766602 224.84082031 C76.81693501 219.78583689 70.81583979 215.04020292 64.73388672 210.34277344 C61.80973337 208.07822212 58.90602279 205.78773733 56 203.5 C54.85165869 202.59753384 53.70322084 201.69519051 52.5546875 200.79296875 C46.703125 196.1953125 40.8515625 191.59765625 35 187 C39.5820346 194.95053436 44.30268588 202.79466497 49.1875 210.5625 C49.83750977 211.59898682 50.48751953 212.63547363 51.15722656 213.70336914 C53.10264747 216.8036159 55.0509753 219.9020179 57 223 C57.55445801 223.88268555 58.10891602 224.76537109 58.68017578 225.67480469 C63.48193944 233.31769874 68.30073059 240.94622073 73.23876953 248.50195312 C103.96082421 295.55355359 103.96082421 295.55355359 101 316 C98.51161325 321.57799445 95.44040368 325.19590886 90 328 C87.34375 328.38818359 87.34375 328.38818359 84.5 328.3984375 C82.92980103 328.40713867 82.92980103 328.40713867 81.32788086 328.41601562 C80.22968018 328.40248047 79.13147949 328.38894531 78 328.375 C76.88181885 328.36919922 75.7636377 328.36339844 74.61157227 328.35742188 C66.71857104 328.23345705 59.52840883 327.51445862 52 325 C52.58265625 325.92296875 53.1653125 326.8459375 53.765625 327.796875 C60.67049256 338.77006995 67.369168 349.85947707 74 361 C74.42249023 361.70705078 74.84498047 362.41410156 75.28027344 363.14257812 C81.25886502 373.15346717 86.99343285 383.29183781 92.67382812 393.47460938 C97.96045183 402.94911345 103.33122203 412.37352079 108.73046875 421.78417969 C109.83434491 423.71086815 110.93435511 425.63964427 112.03125 427.5703125 C123.27863548 447.34855391 134.77145831 467.00283727 146.5 486.5 C155.06756752 500.74733871 163.433143 515.10853644 171.62573242 529.57495117 C172.5603385 531.22416811 173.50083486 532.87005793 174.4465332 534.51293945 C174.89988037 535.30917725 175.35322754 536.10541504 175.8203125 536.92578125 C176.22652832 537.63387939 176.63274414 538.34197754 177.05126953 539.0715332 C178.46410944 541.94338663 178.62558032 543.87209842 178 547 C176.36564595 550.03522895 174.944447 552.28352297 172.1875 554.375 C168.89024117 555.31707395 166.4187401 555.41260656 163 555 C157.72634901 551.81383586 155.33386891 547.47865962 152.17578125 542.296875 C145.80053783 532.6367216 137.918646 523.86209072 130.10546875 515.3515625 C127.83771169 512.81874293 125.69751659 510.20798303 123.5625 507.5625 C120.48663412 503.75912497 117.31246834 500.09917348 114 496.5 C109.58859171 491.69616582 105.43924829 486.73451007 101.34570312 481.65917969 C98.58502696 478.25541423 95.78887203 474.8806643 93 471.5 C84.27086494 460.90531743 75.59396799 450.27529848 67.0390625 439.5390625 C63.64505237 435.28648854 60.22397838 431.06255232 56.75 426.875 C50.92276921 419.76739151 45.44405807 412.4027461 40 405 C39.24589844 403.97519531 38.49179687 402.95039063 37.71484375 401.89453125 C32.74510933 394.98588608 32.74510933 394.98588608 32 391 C23.62947428 398.60956883 17.18963977 408.01041396 16.49609375 419.51171875 C16.17451659 434.0439437 18.05869048 446.37330503 23 460 C23.36399902 461.01610352 23.72799805 462.03220703 24.10302734 463.07910156 C26.63469138 470.09265378 29.27575803 477.05919233 32 484 C32.3403125 484.87785156 32.680625 485.75570313 33.03125 486.66015625 C35.04037063 491.78419259 37.2359116 496.73032028 39.75 501.625 C40.45331014 503.01162486 41.15642966 504.39834642 41.859375 505.78515625 C42.21451172 506.4827002 42.56964844 507.18024414 42.93554688 507.89892578 C43.97311373 509.94693045 44.9970793 512.00107164 46.015625 514.05859375 C52.32473573 526.80256275 58.98467203 539.29023239 66.0625 551.625 C78.59173212 573.46723769 78.59173212 573.46723769 81.8984375 582.1796875 C83.38039999 585.97393188 84.99760369 589.70374264 86.625 593.4375 C86.92664063 594.13657471 87.22828125 594.83564941 87.5390625 595.5559082 C88.85246107 598.56199315 90.17515681 601.26273522 92 604 C94.53805144 604.35113411 94.53805144 604.35113411 97.48828125 604.15234375 C98.58720703 604.12462891 99.68613281 604.09691406 100.81835938 604.06835938 C103.13623427 603.98155243 105.45395252 603.89044973 107.77148438 603.79492188 C116.28646116 603.59088094 116.28646116 603.59088094 120.16796875 605.81640625 C123.12127307 609.33644275 124.73104677 611.8920321 124.65234375 616.60546875 C122.87250102 623.13866391 116.57723399 629.3471422 111 633 C107.77239022 634.07586993 105.2088857 634.27147593 101.8125 634.375 C100.72582031 634.42398438 99.63914062 634.47296875 98.51953125 634.5234375 C94.94108405 633.99123781 94.28040497 633.58455673 91.59375 631.5 C85.44290399 627.3462778 77.80073217 628.44146308 70.6875 628.625 C69.22723702 628.64154413 67.76694731 628.65588255 66.30664062 628.66796875 C51.05596033 628.67401825 51.05596033 628.67401825 36.3125 632.0625 C35.29800781 632.42472656 34.28351563 632.78695312 33.23828125 633.16015625 C32.49964844 633.43730469 31.76101563 633.71445312 31 634 C31.66773589 635.38470576 32.36059356 636.75729806 33.0625 638.125 C33.44535156 638.89070312 33.82820312 639.65640625 34.22265625 640.4453125 C38.48539529 646.57241433 44.95935208 650.46081413 51.1875 654.375 C52.7034514 655.34323915 54.21907538 656.31199112 55.734375 657.28125 C56.46720703 657.74789062 57.20003906 658.21453125 57.95507812 658.6953125 C62.69217117 661.71764121 67.36695235 664.82067509 72 668 C72.73524902 668.50354004 73.47049805 669.00708008 74.22802734 669.52587891 C76.70411664 671.23193763 79.16577014 672.95724489 81.625 674.6875 C82.420271 675.2345459 83.21554199 675.7815918 84.03491211 676.34521484 C91.02742859 681.32093598 91.02742859 681.32093598 92 686 C92.53888004 690.08709015 92.37605249 693.81812074 91.125 697.75 C84.4799821 704.78590131 75.27374543 705.96404339 66.1484375 707.32421875 C62.01669397 707.94741522 58.03887824 708.93355462 54 710 C61.14815262 715.22669212 61.14815262 715.22669212 68.35546875 720.37109375 C95.89484021 739.78968043 95.89484021 739.78968043 100 748 C100.53689962 752.48003124 100.62791658 755.9302162 98.3125 759.875 C93.53413014 764.26593447 89.14952556 765.58778683 82.8125 766.4375 C81.13146078 766.68195056 79.45047426 766.92676375 77.76953125 767.171875 C76.8563916 767.30142578 75.94325195 767.43097656 75.00244141 767.56445312 C71.68903366 768.04511009 68.38176425 768.5586868 65.07421875 769.078125 C63.90205811 769.26189697 62.72989746 769.44566895 61.5222168 769.63500977 C59.19680986 769.99977 56.87145078 770.36483547 54.54614258 770.73022461 C52.9454895 770.97784546 52.9454895 770.97784546 51.3125 771.23046875 C50.35988281 771.37895264 49.40726563 771.52743652 48.42578125 771.68041992 C46 772 46 772 43 772 C43 772.66 43 773.32 43 774 C44.155 774.309375 45.31 774.61875 46.5 774.9375 C61.42039079 779.9422925 81.8512781 791.7025562 89 806 C89.74065452 811.07984265 89.83436602 815.39801724 87.4375 820 C83.65952997 823.09987285 79.93131346 825 75 825 C75 825.66 75 826.32 75 827 C75.81339844 827.08636719 76.62679687 827.17273438 77.46484375 827.26171875 C85.76208799 828.27904116 93.35838962 830.12459308 101.3203125 832.58203125 C106.46986188 834.1679512 111.66966627 835.54814219 116.875 836.9375 C126.30441294 839.47527441 135.60564148 842.32466442 144.89599609 845.32714844 C149.02727487 846.64831394 153.18245536 847.89129264 157.3359375 849.140625 C160 850 160 850 162.5078125 851.08984375 C165.29750033 852.10864824 167.53837758 852.23520491 170.5 852.3125 C180.3351759 852.98032059 190.16233186 857.15942886 198.375 862.5625 C200.98704421 866.48056631 200.73013818 870.44216772 200 875 C198.21333864 878.24245951 197.17645409 879.58665127 193.6875 880.8125 C192.3571875 880.9053125 192.3571875 880.9053125 191 881 C189.329375 881.1546875 189.329375 881.1546875 187.625 881.3125 C184 881 184 881 180.78385925 879.00984192 C176.88209894 876.69213264 173.30070205 876.45119796 168.83325195 876.5300293 C168.04861572 876.5278389 167.26397949 876.5256485 166.45556641 876.52339172 C163.88269766 876.52109512 161.31099582 876.54725125 158.73828125 876.57421875 C156.9418321 876.57914681 155.1453778 876.58244298 153.34892273 876.58418274 C149.59401912 876.59180413 145.83949924 876.61231078 142.0847168 876.64331055 C137.27281193 876.68296966 132.46115575 876.70093588 127.64910603 876.71061993 C123.05379751 876.72059227 118.45854942 876.74046653 113.86328125 876.76171875 C112.98764338 876.7651145 112.1120055 876.76851025 111.20983315 876.7720089 C108.73267052 876.78359228 106.25566404 876.80211282 103.77856445 876.82299805 C102.68051735 876.8270314 102.68051735 876.8270314 101.56028748 876.83114624 C98.2197573 876.86645645 95.20306185 877.03113911 92 878 C77.77022747 879.67530752 63.29738733 879.0972815 49 879 C53.27563778 884.12477524 57.61683275 888.69931409 62.875 892.8125 C63.51356934 893.31531494 64.15213867 893.81812988 64.81005859 894.33618164 C76.04647498 903.03468496 87.36687651 910.66769631 101 915 C102.54718277 915.51730958 104.09403472 916.03560923 105.640625 916.5546875 C113.18945037 919.04813026 120.54909396 921.29656665 128.42822266 922.48046875 C130.9542114 922.99075013 133.039197 923.73943835 135.40234375 924.75390625 C141.35294746 927.20166451 147.43138349 929.18368126 153.54702759 931.17541504 C163.43405094 934.40069044 173.25600727 937.71491429 182.91015625 941.5925293 C187.89214858 943.59210041 192.92159905 945.3861573 198 947.125 C203.41889965 948.99185082 208.52363949 951.06249029 213.58691406 953.77758789 C215.8966807 954.94766089 218.19775052 955.91129363 220.61328125 956.83984375 C226.09284455 958.99997371 231.41148454 961.45331522 236.75 963.9375 C245.04442073 967.75734509 253.30898118 971.17311793 262 974 C262.99 974.33 263.98 974.66 265 975 C266.6863552 975.11490196 268.37645716 975.17825106 270.06640625 975.2109375 C271.09677002 975.23736328 272.12713379 975.26378906 273.1887207 975.29101562 C274.85874146 975.33258789 274.85874146 975.33258789 276.5625 975.375 C288.12720183 975.73146016 299.48499456 976.82122307 310.95703125 978.28125 C316.31346374 978.96218599 321.6637233 979.35551882 327.05371094 979.66308594 C334.57930531 980.52365274 340.63597115 983.77351035 346 989 C347.53214888 992.06429776 347.22938548 994.6165642 347 998 C345.29951279 1001.82609622 343.85131528 1003.46516632 340 1005 C336.13926779 1005.4366905 332.25784368 1005.33146417 328.375 1005.3125 C327.22725098 1005.30903564 326.07950195 1005.30557129 324.89697266 1005.30200195 C306.73770638 1005.07813414 286.37418643 1003.79139548 269 998 C266.83496299 997.86617216 264.6676543 997.76855545 262.5 997.6875 C254.78822331 997.31549658 247.24704608 996.19781824 239.625 995 C231.84512658 993.78025819 224.18584925 992.71912836 216.3125 992.4375 C206.97493115 992.09621769 198.03221611 990.4954465 188.96289062 988.24707031 C179.9331717 986.10602931 171.23256098 985.55080117 162 985.5 C152.8275273 985.44952946 144.2275389 984.87544919 135.25976562 982.74414062 C129.57426306 981.44625178 123.80242481 980.85320916 118.015625 980.18359375 C112.52739428 979.49756491 107.46816817 978.35818483 102.19775391 976.68212891 C82.30555006 970.50807674 58.60443029 971.61208669 38 971 C45.42576758 980.55407335 57.39596077 983.22561827 68.5 987.0625 C69.46808594 987.40087891 70.43617188 987.73925781 71.43359375 988.08789062 C75.96358765 989.6597073 80.49014566 991.16348702 85.09765625 992.4921875 C90.20419973 994.00086997 95.05444274 995.94818655 99.9375 998.0625 C100.84209961 998.45244141 101.74669922 998.84238281 102.67871094 999.24414062 C111.25654414 1003.00535156 119.50227894 1007.29878605 127.72558594 1011.77246094 C129.97575548 1012.98691483 132.2382651 1014.17377123 134.5078125 1015.3515625 C141.01303874 1018.7325208 147.40518498 1022.17132304 153.625 1026.0625 C168.35436329 1035.26150756 183.55527626 1042.30077563 200.25 1047.1875 C207.05075276 1049.20633981 212.18689567 1051.69371208 216 1058 C216.55747889 1061.40681543 216.77411846 1063.72313302 214.94140625 1066.74609375 C212.56968232 1069.6808382 210.75954974 1071.79710296 206.93359375 1072.23828125 C201.29355152 1072.40598204 197.30874295 1071.69584582 192.30078125 1069.0703125 C184.76406532 1065.56426808 176.74024559 1065.18410557 168.5625 1064.375 C166.60666992 1064.17390625 166.60666992 1064.17390625 164.61132812 1063.96875 C161.40808072 1063.6402118 158.20435935 1063.31747748 155 1063 C154.70351563 1063.77730469 154.40703125 1064.55460937 154.1015625 1065.35546875 C152.78786396 1068.50927695 151.79676763 1070.012823 149 1072 C145.73549873 1072.48362982 142.51434083 1072.45876275 139.34228516 1071.49780273 C136.0784047 1070.80413458 132.84539773 1070.81728569 129.5234375 1070.796875 C128.435504 1070.78832489 128.435504 1070.78832489 127.32559204 1070.77960205 C125.79080656 1070.77017191 124.25600101 1070.76362597 122.72119141 1070.75976562 C120.40359793 1070.75011903 118.08691462 1070.71910293 115.76953125 1070.6875 C104.06150786 1070.52759227 104.06150786 1070.52759227 93 1074 C91.8517315 1076.296537 91.88438825 1077.58313167 91.90234375 1080.1328125 C91.90556641 1080.93847656 91.90878906 1081.74414062 91.91210938 1082.57421875 C91.92048828 1083.41597656 91.92886719 1084.25773437 91.9375 1085.125 C91.94426758 1086.39923828 91.94426758 1086.39923828 91.95117188 1087.69921875 C91.96297126 1089.79950909 91.98090694 1091.8997633 92 1094 C93.11375 1094.02578125 94.2275 1094.0515625 95.375 1094.078125 C109.29228472 1094.53870806 126.32191501 1095.46962709 136.8359375 1105.8046875 C141.20293622 1110.74575178 142.36338616 1113.83176548 142.27734375 1120.45703125 C141.86575288 1124.23091373 140.55798217 1126.24007187 138 1129 C132.74611573 1132.84430556 127.24200793 1132.69610628 121 1132 C115.90761226 1130.92994008 110.97083965 1129.5206155 106 1128 C104.94296875 1127.68804688 103.8859375 1127.37609375 102.796875 1127.0546875 C96.36370844 1125.05063823 90.64746308 1122.40689015 84.7890625 1119.07421875 C81.36690531 1117.75616101 79.50842324 1118.06314584 76 1119 C69.34698116 1121.9700977 65.26138364 1126.47723273 62 1133 C61.92818179 1135.71760108 61.90700494 1138.40859388 61.9375 1141.125 C61.94426758 1142.25615234 61.94426758 1142.25615234 61.95117188 1143.41015625 C61.96296501 1145.27347127 61.98090058 1147.13674555 62 1149 C63.4589426 1148.52269162 64.91713496 1148.04308958 66.375 1147.5625 C67.59316406 1147.16224609 67.59316406 1147.16224609 68.8359375 1146.75390625 C71.01031799 1146.04820271 71.01031799 1146.04820271 73 1145 C85.29139235 1144.14409254 98.68196514 1144.17046141 108.6875 1152.375 C112.93299108 1156.66594601 115.10573237 1160.4800935 115.4375 1166.5625 C115.31033952 1169.71502015 114.98737664 1171.02322697 113.4375 1173.875 C106.73473921 1179.71843249 98.63641025 1180.13049369 90.1875 1180.5625 C89.00510742 1180.62727539 89.00510742 1180.62727539 87.79882812 1180.69335938 C85.86605785 1180.79878321 83.93304974 1180.89983094 82 1181 C82.37697021 1181.40202637 82.75394043 1181.80405273 83.14233398 1182.21826172 C86.84562395 1186.17016652 90.53891558 1190.13118623 94.22607422 1194.09814453 C95.71698748 1195.69657755 97.2185921 1197.28502897 98.72265625 1198.87109375 C104.20224016 1204.74543328 111.36892979 1212.44658217 112.3125 1220.75 C111.9118895 1224.91634919 110.68927657 1226.81533038 108 1230 C102.64892443 1233.35037669 97.72565118 1233.43383918 91.62890625 1233.43945312 C85.48387909 1233.60175348 80.56654044 1235.46758556 75 1238 C74.92652344 1238.84872681 74.92652344 1238.84872681 74.8515625 1239.71459961 C72.96543555 1260.00875646 67.078941 1278.31596862 59.765625 1297.2421875 C56.63741579 1305.50959756 53.88292871 1313.9223301 51.0456543 1322.29321289 C44.70042796 1340.96210762 36.90621623 1357.96825982 27 1375 C20.07 1375 13.14 1375 6 1375 C6 1366.00493159 6 1366.00493159 8.6328125 1361.42578125 C9.19226563 1360.42740234 9.75171875 1359.42902344 10.328125 1358.40039062 C10.92109375 1357.38138672 11.5140625 1356.36238281 12.125 1355.3125 C19.8127241 1341.82419675 25.77052791 1328.43342793 30.5 1313.6875 C33.24305227 1305.200255 36.02697561 1296.74477905 39.15625 1288.390625 C39.39597534 1287.75013718 39.63570068 1287.10964935 39.88269043 1286.44975281 C41.47094659 1282.26305377 43.21312487 1278.16642539 45 1274.0625 C48.93343088 1264.38320874 50.23684402 1253.79654053 51.90820312 1243.53735352 C52.08456047 1242.47896774 52.08456047 1242.47896774 52.26448059 1241.39920044 C52.58598311 1239.45752491 52.89531537 1237.51384549 53.20385742 1235.57006836 C55.00140855 1227.50947649 58.27905671 1222.76349684 65 1218 C70.00214708 1214.98198725 74.04581356 1212.65099795 80 1213 C77.0708635 1208.03320332 73.41954711 1204.31729521 69.3046875 1200.296875 C66.01525146 1197.01858959 63.01499487 1193.52833933 60 1190 C59.17822266 1189.08734375 59.17822266 1189.08734375 58.33984375 1188.15625 C52.8106708 1181.96140266 50.56768547 1177.35808085 51 1169 C50.4225 1168.814375 49.845 1168.62875 49.25 1168.4375 C43.52847335 1164.78208019 41.38470914 1156.44667159 39.4453125 1150.21875 C37.10556802 1138.56107577 38.85002764 1127.1335092 45 1117 C51.09810589 1108.27250375 59.4228266 1100.48801288 70 1098 C69.97905273 1097.37134033 69.95810547 1096.74268066 69.93652344 1096.0949707 C69.09899369 1067.11803173 69.09899369 1067.11803173 77 1058 C86.84920452 1049.48520383 99.1462787 1048.82078606 111.5 1048.9375 C112.4178125 1048.94201172 113.335625 1048.94652344 114.28125 1048.95117188 C116.52090391 1048.96283674 118.76041545 1048.97920386 121 1049 C121.11859375 1048.22140625 121.2371875 1047.4428125 121.359375 1046.640625 C122.24734556 1042.98045368 123.87256201 1041.99018781 127 1040 C128.65712109 1039.6220601 130.32375776 1039.2812487 132 1039 C131.030625 1038.5153125 130.06125 1038.030625 129.0625 1037.53125 C128.42304443 1037.21148193 127.78358887 1036.89171387 127.12475586 1036.56225586 C125.68819937 1035.84406015 124.25150956 1035.12613107 122.81469727 1034.40844727 C119.17415726 1032.5895609 115.53542683 1030.76733488 111.90234375 1028.93359375 C107.94381087 1026.93756004 103.97551904 1024.96197022 100 1023 C99.36707031 1022.68643555 98.73414063 1022.37287109 98.08203125 1022.04980469 C87.86525797 1017.02041372 77.61804953 1013.26920624 66.6953125 1010.015625 C47.73284679 1004.35933938 28.90829753 998.2210949 17.9296875 980.9375 C16.09544594 978.14529423 14.09929722 975.59483948 12 973 C10.26048575 969.52097149 10.55098327 965.80381316 11 962 C13.40216593 956.90740822 16.74008453 953.91837015 22 952 C31.33423413 949.86202498 40.66168085 949.71439883 50.17749023 949.79418945 C52.4589335 949.81267365 54.73997327 949.81469675 57.02148438 949.81445312 C63.12438947 949.83482532 68.975298 949.93813327 75 951 C76.59880137 951.08285442 78.19986503 951.13072957 79.80078125 951.140625 C89.61225078 951.31731176 98.39430872 951.94335416 107.72680664 955.05493164 C115.28572038 957.54517028 122.97330992 958.60965565 130.83740234 959.69580078 C133.91934276 960.12931825 136.98986295 960.63034515 140.0625 961.125 C149.27491981 962.59795352 158.30122818 963.14341391 167.625 963.0625 C168.62917969 963.05798828 169.63335938 963.05347656 170.66796875 963.04882812 C173.11204471 963.03718967 175.5559882 963.0208424 178 963 C177.45287354 962.81937012 176.90574707 962.63874023 176.34204102 962.45263672 C144.17659575 951.81926513 144.17659575 951.81926513 134.9375 947.875 C129.99859922 945.83483444 124.89624124 944.61560165 119.70678711 943.39404297 C116.67983687 942.68142267 113.73247949 941.91071828 110.78125 940.92578125 C108.37713111 940.12553381 106.2440551 939.66813378 103.75 939.3125 C72.3874102 933.2484343 43.04723515 907.91565811 22 885 C19.85639797 880.71279594 20.32557256 875.63378161 21 871 C24.31345427 864.04401552 30.51368496 861.46858587 37.42578125 858.91015625 C38.27527344 858.60980469 39.12476563 858.30945313 40 858 C40.66 857.67 41.32 857.34 42 857 C44.43700135 856.85508712 46.84981618 856.76571553 49.2890625 856.71875 C50.0251474 856.70034058 50.7612323 856.68193115 51.5196228 856.66296387 C53.88799957 856.60417648 56.25645597 856.55157391 58.625 856.5 C77.36000992 857.44419233 77.36000992 857.44419233 95 854 C94.45698242 853.86424561 93.91396484 853.72849121 93.35449219 853.58862305 C91.73615579 853.18403895 90.11782987 852.77941295 88.49951172 852.37475586 C86.6522574 851.91302429 84.80492545 851.45160318 82.95751953 850.99047852 C79.1807884 850.0474575 75.40459937 849.10326202 71.6328125 848.140625 C67.27570437 847.02974757 62.91715519 845.97325501 58.51953125 845.03515625 C57.72240723 844.8637915 56.9252832 844.69242676 56.10400391 844.51586914 C54.53865205 844.18170179 52.9719734 843.85366663 51.40380859 843.53295898 C44.21225809 841.9982837 38.28377315 840.42565972 34 834 C32.41456493 830.82912985 32.65934563 828.52009516 33 825 C35.68952693 818.19090498 40.63339917 814.28536043 47 811 C50.6179276 809.49680944 54.2668519 808.18623398 58 807 C54.20788016 803.72169792 50.24268566 801.46264208 45.75 799.3125 C44.33028447 798.61027333 42.91102959 797.90711476 41.4921875 797.203125 C39.23145447 796.08914061 36.96758436 794.98455353 34.69238281 793.90039062 C18.31627108 786.07586366 18.31627108 786.07586366 14.7578125 779.32421875 C13.14809052 774.38718484 12.90530572 769.97302218 14.71484375 765.05859375 C18.71336304 758.31392158 26.85849856 754.352327 34.0625 752 C37.02968287 751.25820428 40.00681056 750.62722007 43 750 C44.89909972 749.469899 46.79508523 748.92849178 48.6875 748.375 C53.46685838 747.04509158 58.06799869 746.46971441 63 746 C63.66 745.67 64.32 745.34 65 745 C64.17757812 744.43152344 63.35515625 743.86304688 62.5078125 743.27734375 C56.46441664 739.098003 50.4234913 734.91563231 44.4140625 730.6875 C42.72910559 729.50966604 41.03566668 728.34391399 39.3359375 727.1875 C26.92320802 718.69265269 26.92320802 718.69265269 24 711 C23.43921437 705.76600074 23.96088861 702.32843138 27 698 C36.43910274 690.13408105 47.27691536 688.15228507 59 686 C58.39639648 685.62302979 57.79279297 685.24605957 57.17089844 684.85766602 C18.66686231 660.75044019 18.66686231 660.75044019 13 648 C12.154375 646.989375 11.30875 645.97875 10.4375 644.9375 C6.26825327 639.91302317 5.52404582 635.84828164 5.6953125 629.42578125 C6.34349439 624.26525621 9.46942783 621.24526991 13.25 618 C25.6125531 609.18617227 41.29550209 606.65345243 56.0625 606.875 C57.21427734 606.88402344 58.36605469 606.89304687 59.55273438 606.90234375 C62.36871193 606.92571286 65.18424158 606.95847435 68 607 C67.61328125 606.17757812 67.2265625 605.35515625 66.828125 604.5078125 C64.42734059 599.36157662 62.04086829 594.23856889 60 588.9375 C55.73575059 578.14843522 49.89997386 568.2022843 44.17773438 558.140625 C36.599301 544.80739943 29.0195798 531.4330976 22.29296875 517.64453125 C21.37986615 515.77694677 20.44254872 513.9211085 19.48828125 512.07421875 C16.34780078 505.97520001 13.67429344 499.84789747 11.28515625 493.41796875 C10.14718399 490.39144678 8.94690514 487.39809522 7.71826172 484.4074707 C0.48400668 466.73353868 -5.18517482 448.24871115 -5.29516602 429.09228516 C-5.30660421 427.71164637 -5.32692461 426.33104889 -5.35668945 424.95068359 C-5.76814724 405.81214991 0.58859388 392.24259719 13 378 C14.00817047 377.04889578 15.02658773 376.1083109 16.0625 375.1875 C18.27626469 373.17511616 18.27626469 373.17511616 18 370.5 C17.07298153 367.99004797 17.07298153 367.99004797 15.6875 365.8125 C8.10945521 353.18242535 2.52785454 335.70156074 4 321 C5.46374585 315.81891939 7.44513907 311.09602086 11 307 C11.66 307 12.32 307 13 307 C10.65769544 300.91000814 7.41566098 295.73552248 3.8125 290.3125 C2.93694458 288.98085815 2.93694458 288.98085815 2.04370117 287.62231445 C0.36834167 285.07759677 -1.31437199 282.53792367 -3 280 C-3.40476562 279.38866211 -3.80953125 278.77732422 -4.2265625 278.14746094 C-6.47191072 274.75656932 -8.73470999 271.3775881 -11 268 C-12.23545508 266.14912904 -13.46966021 264.29742928 -14.70361328 262.44555664 C-15.99321683 260.51017987 -17.28371167 258.57539937 -18.57421875 256.640625 C-20.03831798 254.44476177 -21.49910816 252.24685475 -22.95703125 250.046875 C-28.67668517 241.42524929 -34.5253258 232.89331529 -40.38037109 224.36328125 C-41.88922485 222.16163754 -43.39285579 219.95654353 -44.89453125 217.75 C-52.72744211 206.26071353 -60.79705089 194.94737411 -69.40625 184.0234375 C-70.47890643 182.66158448 -71.54127247 181.29156985 -72.59375 179.9140625 C-95.42851926 149.98092748 -95.42851926 149.98092748 -124.1796875 126.26171875 C-126 125 -126 125 -128 122 C-128.73965025 117.40728797 -128.60961194 113.97537911 -126.125 110 C-123.02494381 107.08230006 -120.66346129 106.44304693 -116.36499023 106.55957031 C-105.42399783 108.59710002 -96.39223474 120.06397853 -88.99267578 127.59570312 C-86.88278519 129.74208018 -84.75735559 131.87204142 -82.62890625 134 C-75.30723731 141.36014996 -68.37979462 148.7992983 -62 157 C-60.79410342 158.48115391 -59.58609469 159.96059339 -58.375 161.4375 C-47.41569351 175.20744374 -37.16435638 189.4476009 -27.33056641 204.03662109 C-25.64486293 206.52403896 -23.92136857 208.98346931 -22.1875 211.4375 C-19.90589852 214.67878695 -17.68274269 217.95302797 -15.48828125 221.25390625 C-14.78485596 222.31101807 -14.08143066 223.36812988 -13.35668945 224.45727539 C-12.9771109 225.02801788 -12.59753235 225.59876038 -12.20645142 226.1867981 C-10.03585249 229.44903812 -7.86137582 232.70869313 -5.6875 235.96875 C-4.7473793 237.37889523 -3.80727533 238.78905161 -2.8671875 240.19921875 C-2.39506836 240.90739746 -1.92294922 241.61557617 -1.43652344 242.34521484 C-0.00195312 244.49707031 1.43261719 246.64892578 2.8671875 248.80078125 C3.33497116 249.50243912 3.80275482 250.20409698 4.28471375 250.92701721 C5.21594206 252.32389514 6.14710514 253.72081656 7.07820129 255.11778259 C9.11531925 258.17402009 11.15341456 261.22958412 13.1940918 264.28344727 C17.77511197 271.14131199 22.30873172 278.02867373 26.8125 284.9375 C27.46669922 285.93845703 28.12089844 286.93941406 28.79492188 287.97070312 C29.42591797 288.93814453 30.05691406 289.90558594 30.70703125 290.90234375 C31.2688208 291.76335693 31.83061035 292.62437012 32.40942383 293.51147461 C34 296 34 296 35.43554688 298.75146484 C36.78322804 301.12654792 36.78322804 301.12654792 39.0144043 301.8112793 C39.77664307 301.89804932 40.53888184 301.98481934 41.32421875 302.07421875 C42.18080078 302.18330566 43.03738281 302.29239258 43.91992188 302.40478516 C44.83322266 302.49808105 45.74652344 302.59137695 46.6875 302.6875 C47.62271484 302.8014209 48.55792969 302.9153418 49.52148438 303.03271484 C51.43034142 303.26335214 53.34038186 303.48439924 55.25146484 303.69580078 C58.48816223 304.05402826 61.71802491 304.45635841 64.94848633 304.86645508 C66.8812166 305.11003015 68.81557322 305.34059932 70.75 305.5703125 C73.53636246 305.93870177 76.25402937 306.40711998 79 307 C77.96668504 304.39225543 76.92357364 301.78910812 75.875 299.1875 C75.59140625 298.46884766 75.3078125 297.75019531 75.015625 297.00976562 C70.75636114 286.50049502 64.84795161 276.94057717 58.8125 267.375 C57.83011353 265.81011841 57.83011353 265.81011841 56.82788086 264.21362305 C52.51322033 257.35578329 48.13933981 250.53844545 43.71875 243.74853516 C39.69933692 237.56656887 35.83608428 231.29757169 32 225 C30.77203413 222.99926251 29.54282925 220.99928503 28.3125 219 C27.33023438 217.40285156 27.33023438 217.40285156 26.328125 215.7734375 C24.53196921 212.85828626 22.72782312 209.94815676 20.921875 207.0390625 C10.11352869 189.62340969 10.11352869 189.62340969 4.90405273 180.83959961 C3.05668569 177.72904586 1.13964029 174.69157901 -0.875 171.6875 C-4.69074064 165.61400279 -6.96347434 158.15723799 -6 151 C-3.97333762 147.29609979 -2.51955484 145.34636989 1 143 C10.25883865 141.42774438 18.50296427 146.97406904 25.9375 151.9765625 C28.41219445 153.81196089 30.8447469 155.68807332 33.25244141 157.61035156 C35.25366259 159.20171102 37.2720505 160.76967052 39.29296875 162.3359375 C42.39962879 164.7438712 45.5025389 167.15646433 48.6015625 169.57421875 C52.32826619 172.47963466 56.06540304 175.3709497 59.8125 178.25 C60.84117187 179.04148438 61.86984375 179.83296875 62.9296875 180.6484375 C65.01323922 182.24423665 67.10058143 183.83315739 69.1953125 185.4140625 C75.78395408 190.40617972 82.13989303 195.58574568 88.33178711 201.06591797 C91.07655647 203.47124805 93.60288266 205.60460706 97 207 C96.57589844 206.5875 96.15179687 206.175 95.71484375 205.75 C95.12832031 205.1725 94.54179688 204.595 93.9375 204 C93.36902344 203.443125 92.80054688 202.88625 92.21484375 202.3125 C90.32072598 200.33486734 88.51802128 198.32016956 86.72265625 196.25390625 C83.07464614 192.05852463 79.30929109 187.98634445 75.5 183.9375 C74.87480469 183.26912109 74.24960937 182.60074219 73.60546875 181.91210938 C69.97039737 178.03996812 66.26771129 174.25097498 62.50048828 170.50756836 C59.49405668 167.48695086 56.7590944 164.24500779 54 161 C53.26007813 160.13761719 52.52015625 159.27523437 51.7578125 158.38671875 C40.12648403 144.65580543 29.75070137 130.11628922 20 115 C19.10667969 113.61554688 19.10667969 113.61554688 18.1953125 112.203125 C8.7524615 96.99247852 1.38985328 82.29712177 3 64 C4.14711725 59.9530635 5.78624096 57.92025568 9 55.25 C9.70125 54.65703125 10.4025 54.0640625 11.125 53.453125 C14.97039015 50.47294763 18.50766421 50.85126457 23.1875 50.875 C23.93064453 50.87113281 24.67378906 50.86726563 25.43945312 50.86328125 C30.06107915 50.87138226 34.44109112 51.23917547 39 52 C38.51233154 51.73896484 38.02466309 51.47792969 37.5222168 51.20898438 C29.03202647 46.64141996 20.66843834 42.12803296 12.984375 36.26953125 C10.54075773 34.41123068 8.07568255 32.60826332 5.578125 30.82421875 C4.38606445 29.97210815 4.38606445 29.97210815 3.16992188 29.1027832 C1.59932422 27.9814031 0.02776505 26.86136802 -1.54492188 25.74291992 C-14.50094854 16.44039022 -14.50094854 16.44039022 -15.82421875 12.62109375 C-15.50759117 7.56409897 -14.86453026 4.63720495 -11 1 C-7.40322188 -0.79838906 -3.85824521 -0.68999914 0 0 Z " fill="#030303" transform="translate(566,29)"/>
<path d="M0 0 C4.60120958 3.90405661 7.19039028 8.51656938 10.14453125 13.73828125 C11.86715954 16.76648046 13.65983009 19.72965639 15.5 22.6875 C25.46122528 38.82160812 35.17927832 55.0751916 44.34423828 71.67675781 C47.07905344 76.62282196 49.87354554 81.48980508 52.90576172 86.25952148 C54.44494783 88.70772714 55.85827571 91.21559682 57.25 93.75 C57.75015625 94.65234375 58.2503125 95.5546875 58.765625 96.484375 C59.84832121 98.69088247 60.52907778 100.60053917 61 103 C56.93938958 99.19317773 53.52795433 95.0142292 50.0859375 90.64453125 C48.79306979 89.00544616 47.48800786 87.37580533 46.1640625 85.76171875 C32.66142839 69.26799481 21.13267053 51.53841883 10.69140625 32.98828125 C9.64687272 31.14285827 8.56960102 29.31502919 7.44140625 27.51953125 C2.59357353 19.04567731 0.21791472 9.70711005 0 0 Z " fill="#F1F1F1" transform="translate(592,355)"/>
<path d="M0 0 C3.75212276 2.01502889 5.63644095 3.45466142 8 7 C8.43121354 12.34704794 8.46830537 15.66461829 5 20 C1.88360965 22.84302278 -0.0629518 23.35277822 -4.25 23.1875 C-5.14203125 23.16042969 -6.0340625 23.13335938 -6.953125 23.10546875 C-7.62859375 23.07066406 -8.3040625 23.03585937 -9 23 C-9 22.34 -9 21.68 -9 21 C-9.639375 20.71125 -10.27875 20.4225 -10.9375 20.125 C-13 19 -13 19 -14 17 C-14.51124099 11.79539913 -14.86132441 7.43554069 -12.125 2.875 C-8.38819569 -0.42218027 -4.84288402 -0.66612159 0 0 Z " fill="#090909" transform="translate(802,897)"/>
<path d="M0 0 C5.46341463 2.92682927 5.46341463 2.92682927 7 6 C7.07033769 7.87379605 7.0843022 9.75001102 7.0625 11.625 C7.05347656 12.62789062 7.04445313 13.63078125 7.03515625 14.6640625 C7.02355469 15.43492188 7.01195312 16.20578125 7 17 C6.34 17 5.68 17 5 17 C4.7525 17.61875 4.505 18.2375 4.25 18.875 C2.74045541 21.44122581 1.73838237 21.92021157 -1 23 C-5.95611122 23.42556948 -9.19650728 22.65591243 -13.0625 19.5 C-15.35020983 16.19553025 -15.65401202 13.14167025 -15.43359375 9.1875 C-14.76472732 5.81303873 -13.20005391 3.58829872 -11 1 C-7.53303962 -0.73348019 -3.79051063 -0.47699379 0 0 Z " fill="#080808" transform="translate(806,1093)"/>
<path d="M0 0 C3.6578218 2.03993908 5.66946174 3.50419262 8 7 C8.265625 9.12109375 8.265625 9.12109375 8.25 11.4375 C8.25515625 12.19933594 8.2603125 12.96117187 8.265625 13.74609375 C7.83575084 17.39370243 6.69815066 19.4250524 3.875 21.75 C-0.54299751 23.67086848 -4.65391122 23.76089366 -9.3125 22.25 C-12.25468586 20.07060306 -13.81793368 18.01805415 -14.46875 14.37890625 C-14.55342172 6.74786719 -14.55342172 6.74786719 -11.6875 2.875 C-7.73859148 0.11994754 -4.751106 -0.46579471 0 0 Z " fill="#070707" transform="translate(736,635)"/>
<path d="M0 0 C0 0.66 0 1.32 0 2 C0.639375 2.28875 1.27875 2.5775 1.9375 2.875 C4 4 4 4 5 6 C5.68128376 12.81283762 5.68128376 12.81283762 3.953125 15.82421875 C1.04275856 19.35945798 -0.71643764 20.85189665 -5.25 21.375 C-10.19272958 20.88072704 -11.53828301 19.46171699 -15 16 C-16.62470062 12.75059877 -16.539672 9.511119 -16 6 C-12.2499738 -1.2414299 -7.60806847 -0.7195021 0 0 Z " fill="#070707" transform="translate(466,1352)"/>
<path d="M0 0 C0.99773437 0.02320313 1.99546875 0.04640625 3.0234375 0.0703125 C4.52777344 0.09738281 4.52777344 0.09738281 6.0625 0.125 C6.83335937 0.14820313 7.60421875 0.17140625 8.3984375 0.1953125 C8.3984375 0.5253125 8.3984375 0.8553125 8.3984375 1.1953125 C5.0984375 1.1953125 1.7984375 1.1953125 -1.6015625 1.1953125 C-2.2615625 2.5153125 -2.9215625 3.8353125 -3.6015625 5.1953125 C-4.5915625 5.5253125 -5.5815625 5.8553125 -6.6015625 6.1953125 C-3.84513096 0.2886735 -3.84513096 0.2886735 0 0 Z " fill="#3A3A3A" transform="translate(457.6015625,1351.8046875)"/>
<path d="M0 0 C0.66 0.33 1.32 0.66 2 1 C-0.97 3.97 -3.94 6.94 -7 10 C-7 7 -7 7 -4.625 4.4375 C-3.75875 3.633125 -2.8925 2.82875 -2 2 C-1.34 1.34 -0.68 0.68 0 0 Z " fill="#1E1E1E" transform="translate(609,842)"/>
<path d="M0 0 C3.0916909 2.52956528 3.90931332 5.22454612 5 9 C2.5 6.75 2.5 6.75 0 4 C0 2.68 0 1.36 0 0 Z " fill="#AFAFAF" transform="translate(648,449)"/>
</svg>
