%TF.GenerationSoftware,KiCad,Pcbnew,9.0.7-1.fc42*%
%TF.CreationDate,2026-03-28T14:12:50-05:00*%
%TF.ProjectId,Dip_PCB,4469705f-5043-4422-9e6b-696361645f70,v1*%
%TF.SameCoordinates,Original*%
%TF.FileFunction,Legend,Top*%
%TF.FilePolarity,Positive*%
%FSLAX46Y46*%
G04 Gerber Fmt 4.6, Leading zero omitted, Abs format (unit mm)*
G04 Created by KiCad (PCBNEW 9.0.7-1.fc42) date 2026-03-28 14:12:50*
%MOMM*%
%LPD*%
G01*
G04 APERTURE LIST*
%ADD10C,0.000000*%
%ADD11C,0.130000*%
%ADD12C,0.300000*%
%ADD13C,0.140000*%
%ADD14C,0.150000*%
%ADD15C,0.127000*%
%ADD16C,0.200000*%
%ADD17C,0.100000*%
%ADD18C,0.120000*%
G04 APERTURE END LIST*
D10*
G36*
X221604858Y-94967386D02*
G01*
X221596958Y-94967349D01*
X221593684Y-94967262D01*
X221590773Y-94967092D01*
X221588162Y-94966811D01*
X221585786Y-94966392D01*
X221584666Y-94966122D01*
X221583580Y-94965808D01*
X221582521Y-94965445D01*
X221581479Y-94965030D01*
X221580448Y-94964560D01*
X221579419Y-94964031D01*
X221578384Y-94963440D01*
X221577335Y-94962784D01*
X221575162Y-94961260D01*
X221572836Y-94959433D01*
X221570292Y-94957275D01*
X221567466Y-94954757D01*
X221560705Y-94948535D01*
X221541358Y-94927699D01*
X221525483Y-94911824D01*
X221533420Y-94895949D01*
X221604858Y-94967386D01*
G37*
D11*
X214433333Y-49063335D02*
X214700000Y-49863335D01*
X214700000Y-49863335D02*
X214966666Y-49063335D01*
X215690476Y-49787144D02*
X215652380Y-49825240D01*
X215652380Y-49825240D02*
X215538095Y-49863335D01*
X215538095Y-49863335D02*
X215461904Y-49863335D01*
X215461904Y-49863335D02*
X215347618Y-49825240D01*
X215347618Y-49825240D02*
X215271428Y-49749049D01*
X215271428Y-49749049D02*
X215233333Y-49672859D01*
X215233333Y-49672859D02*
X215195237Y-49520478D01*
X215195237Y-49520478D02*
X215195237Y-49406192D01*
X215195237Y-49406192D02*
X215233333Y-49253811D01*
X215233333Y-49253811D02*
X215271428Y-49177620D01*
X215271428Y-49177620D02*
X215347618Y-49101430D01*
X215347618Y-49101430D02*
X215461904Y-49063335D01*
X215461904Y-49063335D02*
X215538095Y-49063335D01*
X215538095Y-49063335D02*
X215652380Y-49101430D01*
X215652380Y-49101430D02*
X215690476Y-49139525D01*
X216490476Y-49787144D02*
X216452380Y-49825240D01*
X216452380Y-49825240D02*
X216338095Y-49863335D01*
X216338095Y-49863335D02*
X216261904Y-49863335D01*
X216261904Y-49863335D02*
X216147618Y-49825240D01*
X216147618Y-49825240D02*
X216071428Y-49749049D01*
X216071428Y-49749049D02*
X216033333Y-49672859D01*
X216033333Y-49672859D02*
X215995237Y-49520478D01*
X215995237Y-49520478D02*
X215995237Y-49406192D01*
X215995237Y-49406192D02*
X216033333Y-49253811D01*
X216033333Y-49253811D02*
X216071428Y-49177620D01*
X216071428Y-49177620D02*
X216147618Y-49101430D01*
X216147618Y-49101430D02*
X216261904Y-49063335D01*
X216261904Y-49063335D02*
X216338095Y-49063335D01*
X216338095Y-49063335D02*
X216452380Y-49101430D01*
X216452380Y-49101430D02*
X216490476Y-49139525D01*
X214554762Y-91863335D02*
X214554762Y-91063335D01*
X214554762Y-91063335D02*
X214745238Y-91063335D01*
X214745238Y-91063335D02*
X214859524Y-91101430D01*
X214859524Y-91101430D02*
X214935714Y-91177620D01*
X214935714Y-91177620D02*
X214973809Y-91253811D01*
X214973809Y-91253811D02*
X215011905Y-91406192D01*
X215011905Y-91406192D02*
X215011905Y-91520478D01*
X215011905Y-91520478D02*
X214973809Y-91672859D01*
X214973809Y-91672859D02*
X214935714Y-91749049D01*
X214935714Y-91749049D02*
X214859524Y-91825240D01*
X214859524Y-91825240D02*
X214745238Y-91863335D01*
X214745238Y-91863335D02*
X214554762Y-91863335D01*
X215659524Y-91825240D02*
X215583333Y-91863335D01*
X215583333Y-91863335D02*
X215430952Y-91863335D01*
X215430952Y-91863335D02*
X215354762Y-91825240D01*
X215354762Y-91825240D02*
X215316666Y-91749049D01*
X215316666Y-91749049D02*
X215316666Y-91444287D01*
X215316666Y-91444287D02*
X215354762Y-91368097D01*
X215354762Y-91368097D02*
X215430952Y-91330001D01*
X215430952Y-91330001D02*
X215583333Y-91330001D01*
X215583333Y-91330001D02*
X215659524Y-91368097D01*
X215659524Y-91368097D02*
X215697619Y-91444287D01*
X215697619Y-91444287D02*
X215697619Y-91520478D01*
X215697619Y-91520478D02*
X215316666Y-91596668D01*
X216002380Y-91825240D02*
X216078571Y-91863335D01*
X216078571Y-91863335D02*
X216230952Y-91863335D01*
X216230952Y-91863335D02*
X216307142Y-91825240D01*
X216307142Y-91825240D02*
X216345238Y-91749049D01*
X216345238Y-91749049D02*
X216345238Y-91710954D01*
X216345238Y-91710954D02*
X216307142Y-91634763D01*
X216307142Y-91634763D02*
X216230952Y-91596668D01*
X216230952Y-91596668D02*
X216116666Y-91596668D01*
X216116666Y-91596668D02*
X216040476Y-91558573D01*
X216040476Y-91558573D02*
X216002380Y-91482382D01*
X216002380Y-91482382D02*
X216002380Y-91444287D01*
X216002380Y-91444287D02*
X216040476Y-91368097D01*
X216040476Y-91368097D02*
X216116666Y-91330001D01*
X216116666Y-91330001D02*
X216230952Y-91330001D01*
X216230952Y-91330001D02*
X216307142Y-91368097D01*
X216688095Y-91863335D02*
X216688095Y-91330001D01*
X216688095Y-91063335D02*
X216649999Y-91101430D01*
X216649999Y-91101430D02*
X216688095Y-91139525D01*
X216688095Y-91139525D02*
X216726190Y-91101430D01*
X216726190Y-91101430D02*
X216688095Y-91063335D01*
X216688095Y-91063335D02*
X216688095Y-91139525D01*
X217411904Y-91330001D02*
X217411904Y-91977620D01*
X217411904Y-91977620D02*
X217373809Y-92053811D01*
X217373809Y-92053811D02*
X217335713Y-92091906D01*
X217335713Y-92091906D02*
X217259523Y-92130001D01*
X217259523Y-92130001D02*
X217145237Y-92130001D01*
X217145237Y-92130001D02*
X217069047Y-92091906D01*
X217411904Y-91825240D02*
X217335713Y-91863335D01*
X217335713Y-91863335D02*
X217183332Y-91863335D01*
X217183332Y-91863335D02*
X217107142Y-91825240D01*
X217107142Y-91825240D02*
X217069047Y-91787144D01*
X217069047Y-91787144D02*
X217030951Y-91710954D01*
X217030951Y-91710954D02*
X217030951Y-91482382D01*
X217030951Y-91482382D02*
X217069047Y-91406192D01*
X217069047Y-91406192D02*
X217107142Y-91368097D01*
X217107142Y-91368097D02*
X217183332Y-91330001D01*
X217183332Y-91330001D02*
X217335713Y-91330001D01*
X217335713Y-91330001D02*
X217411904Y-91368097D01*
X217792857Y-91330001D02*
X217792857Y-91863335D01*
X217792857Y-91406192D02*
X217830952Y-91368097D01*
X217830952Y-91368097D02*
X217907142Y-91330001D01*
X217907142Y-91330001D02*
X218021428Y-91330001D01*
X218021428Y-91330001D02*
X218097619Y-91368097D01*
X218097619Y-91368097D02*
X218135714Y-91444287D01*
X218135714Y-91444287D02*
X218135714Y-91863335D01*
X218821429Y-91825240D02*
X218745238Y-91863335D01*
X218745238Y-91863335D02*
X218592857Y-91863335D01*
X218592857Y-91863335D02*
X218516667Y-91825240D01*
X218516667Y-91825240D02*
X218478571Y-91749049D01*
X218478571Y-91749049D02*
X218478571Y-91444287D01*
X218478571Y-91444287D02*
X218516667Y-91368097D01*
X218516667Y-91368097D02*
X218592857Y-91330001D01*
X218592857Y-91330001D02*
X218745238Y-91330001D01*
X218745238Y-91330001D02*
X218821429Y-91368097D01*
X218821429Y-91368097D02*
X218859524Y-91444287D01*
X218859524Y-91444287D02*
X218859524Y-91520478D01*
X218859524Y-91520478D02*
X218478571Y-91596668D01*
X219545238Y-91863335D02*
X219545238Y-91063335D01*
X219545238Y-91825240D02*
X219469047Y-91863335D01*
X219469047Y-91863335D02*
X219316666Y-91863335D01*
X219316666Y-91863335D02*
X219240476Y-91825240D01*
X219240476Y-91825240D02*
X219202381Y-91787144D01*
X219202381Y-91787144D02*
X219164285Y-91710954D01*
X219164285Y-91710954D02*
X219164285Y-91482382D01*
X219164285Y-91482382D02*
X219202381Y-91406192D01*
X219202381Y-91406192D02*
X219240476Y-91368097D01*
X219240476Y-91368097D02*
X219316666Y-91330001D01*
X219316666Y-91330001D02*
X219469047Y-91330001D01*
X219469047Y-91330001D02*
X219545238Y-91368097D01*
X220802381Y-91444287D02*
X220916667Y-91482382D01*
X220916667Y-91482382D02*
X220954762Y-91520478D01*
X220954762Y-91520478D02*
X220992858Y-91596668D01*
X220992858Y-91596668D02*
X220992858Y-91710954D01*
X220992858Y-91710954D02*
X220954762Y-91787144D01*
X220954762Y-91787144D02*
X220916667Y-91825240D01*
X220916667Y-91825240D02*
X220840477Y-91863335D01*
X220840477Y-91863335D02*
X220535715Y-91863335D01*
X220535715Y-91863335D02*
X220535715Y-91063335D01*
X220535715Y-91063335D02*
X220802381Y-91063335D01*
X220802381Y-91063335D02*
X220878572Y-91101430D01*
X220878572Y-91101430D02*
X220916667Y-91139525D01*
X220916667Y-91139525D02*
X220954762Y-91215716D01*
X220954762Y-91215716D02*
X220954762Y-91291906D01*
X220954762Y-91291906D02*
X220916667Y-91368097D01*
X220916667Y-91368097D02*
X220878572Y-91406192D01*
X220878572Y-91406192D02*
X220802381Y-91444287D01*
X220802381Y-91444287D02*
X220535715Y-91444287D01*
X221259524Y-91330001D02*
X221450000Y-91863335D01*
X221640477Y-91330001D02*
X221450000Y-91863335D01*
X221450000Y-91863335D02*
X221373810Y-92053811D01*
X221373810Y-92053811D02*
X221335715Y-92091906D01*
X221335715Y-92091906D02*
X221259524Y-92130001D01*
X221945239Y-91787144D02*
X221983334Y-91825240D01*
X221983334Y-91825240D02*
X221945239Y-91863335D01*
X221945239Y-91863335D02*
X221907143Y-91825240D01*
X221907143Y-91825240D02*
X221945239Y-91787144D01*
X221945239Y-91787144D02*
X221945239Y-91863335D01*
X221945239Y-91368097D02*
X221983334Y-91406192D01*
X221983334Y-91406192D02*
X221945239Y-91444287D01*
X221945239Y-91444287D02*
X221907143Y-91406192D01*
X221907143Y-91406192D02*
X221945239Y-91368097D01*
X221945239Y-91368097D02*
X221945239Y-91444287D01*
X212942856Y-90363335D02*
X212942856Y-89563335D01*
X212942856Y-89563335D02*
X213133332Y-89563335D01*
X213133332Y-89563335D02*
X213247618Y-89601430D01*
X213247618Y-89601430D02*
X213323808Y-89677620D01*
X213323808Y-89677620D02*
X213361903Y-89753811D01*
X213361903Y-89753811D02*
X213399999Y-89906192D01*
X213399999Y-89906192D02*
X213399999Y-90020478D01*
X213399999Y-90020478D02*
X213361903Y-90172859D01*
X213361903Y-90172859D02*
X213323808Y-90249049D01*
X213323808Y-90249049D02*
X213247618Y-90325240D01*
X213247618Y-90325240D02*
X213133332Y-90363335D01*
X213133332Y-90363335D02*
X212942856Y-90363335D01*
X213742856Y-90363335D02*
X213742856Y-89830001D01*
X213742856Y-89563335D02*
X213704760Y-89601430D01*
X213704760Y-89601430D02*
X213742856Y-89639525D01*
X213742856Y-89639525D02*
X213780951Y-89601430D01*
X213780951Y-89601430D02*
X213742856Y-89563335D01*
X213742856Y-89563335D02*
X213742856Y-89639525D01*
X214123808Y-89830001D02*
X214123808Y-90630001D01*
X214123808Y-89868097D02*
X214199998Y-89830001D01*
X214199998Y-89830001D02*
X214352379Y-89830001D01*
X214352379Y-89830001D02*
X214428570Y-89868097D01*
X214428570Y-89868097D02*
X214466665Y-89906192D01*
X214466665Y-89906192D02*
X214504760Y-89982382D01*
X214504760Y-89982382D02*
X214504760Y-90210954D01*
X214504760Y-90210954D02*
X214466665Y-90287144D01*
X214466665Y-90287144D02*
X214428570Y-90325240D01*
X214428570Y-90325240D02*
X214352379Y-90363335D01*
X214352379Y-90363335D02*
X214199998Y-90363335D01*
X214199998Y-90363335D02*
X214123808Y-90325240D01*
X215914285Y-90287144D02*
X215876189Y-90325240D01*
X215876189Y-90325240D02*
X215761904Y-90363335D01*
X215761904Y-90363335D02*
X215685713Y-90363335D01*
X215685713Y-90363335D02*
X215571427Y-90325240D01*
X215571427Y-90325240D02*
X215495237Y-90249049D01*
X215495237Y-90249049D02*
X215457142Y-90172859D01*
X215457142Y-90172859D02*
X215419046Y-90020478D01*
X215419046Y-90020478D02*
X215419046Y-89906192D01*
X215419046Y-89906192D02*
X215457142Y-89753811D01*
X215457142Y-89753811D02*
X215495237Y-89677620D01*
X215495237Y-89677620D02*
X215571427Y-89601430D01*
X215571427Y-89601430D02*
X215685713Y-89563335D01*
X215685713Y-89563335D02*
X215761904Y-89563335D01*
X215761904Y-89563335D02*
X215876189Y-89601430D01*
X215876189Y-89601430D02*
X215914285Y-89639525D01*
X216371427Y-90363335D02*
X216295237Y-90325240D01*
X216295237Y-90325240D02*
X216257142Y-90287144D01*
X216257142Y-90287144D02*
X216219046Y-90210954D01*
X216219046Y-90210954D02*
X216219046Y-89982382D01*
X216219046Y-89982382D02*
X216257142Y-89906192D01*
X216257142Y-89906192D02*
X216295237Y-89868097D01*
X216295237Y-89868097D02*
X216371427Y-89830001D01*
X216371427Y-89830001D02*
X216485713Y-89830001D01*
X216485713Y-89830001D02*
X216561904Y-89868097D01*
X216561904Y-89868097D02*
X216599999Y-89906192D01*
X216599999Y-89906192D02*
X216638094Y-89982382D01*
X216638094Y-89982382D02*
X216638094Y-90210954D01*
X216638094Y-90210954D02*
X216599999Y-90287144D01*
X216599999Y-90287144D02*
X216561904Y-90325240D01*
X216561904Y-90325240D02*
X216485713Y-90363335D01*
X216485713Y-90363335D02*
X216371427Y-90363335D01*
X217323809Y-90363335D02*
X217323809Y-89944287D01*
X217323809Y-89944287D02*
X217285714Y-89868097D01*
X217285714Y-89868097D02*
X217209523Y-89830001D01*
X217209523Y-89830001D02*
X217057142Y-89830001D01*
X217057142Y-89830001D02*
X216980952Y-89868097D01*
X217323809Y-90325240D02*
X217247618Y-90363335D01*
X217247618Y-90363335D02*
X217057142Y-90363335D01*
X217057142Y-90363335D02*
X216980952Y-90325240D01*
X216980952Y-90325240D02*
X216942856Y-90249049D01*
X216942856Y-90249049D02*
X216942856Y-90172859D01*
X216942856Y-90172859D02*
X216980952Y-90096668D01*
X216980952Y-90096668D02*
X217057142Y-90058573D01*
X217057142Y-90058573D02*
X217247618Y-90058573D01*
X217247618Y-90058573D02*
X217323809Y-90020478D01*
X217590476Y-89830001D02*
X217895238Y-89830001D01*
X217704762Y-89563335D02*
X217704762Y-90249049D01*
X217704762Y-90249049D02*
X217742857Y-90325240D01*
X217742857Y-90325240D02*
X217819047Y-90363335D01*
X217819047Y-90363335D02*
X217895238Y-90363335D01*
X218161905Y-90363335D02*
X218161905Y-89830001D01*
X218161905Y-89563335D02*
X218123809Y-89601430D01*
X218123809Y-89601430D02*
X218161905Y-89639525D01*
X218161905Y-89639525D02*
X218200000Y-89601430D01*
X218200000Y-89601430D02*
X218161905Y-89563335D01*
X218161905Y-89563335D02*
X218161905Y-89639525D01*
X218542857Y-89830001D02*
X218542857Y-90363335D01*
X218542857Y-89906192D02*
X218580952Y-89868097D01*
X218580952Y-89868097D02*
X218657142Y-89830001D01*
X218657142Y-89830001D02*
X218771428Y-89830001D01*
X218771428Y-89830001D02*
X218847619Y-89868097D01*
X218847619Y-89868097D02*
X218885714Y-89944287D01*
X218885714Y-89944287D02*
X218885714Y-90363335D01*
X219609524Y-89830001D02*
X219609524Y-90477620D01*
X219609524Y-90477620D02*
X219571429Y-90553811D01*
X219571429Y-90553811D02*
X219533333Y-90591906D01*
X219533333Y-90591906D02*
X219457143Y-90630001D01*
X219457143Y-90630001D02*
X219342857Y-90630001D01*
X219342857Y-90630001D02*
X219266667Y-90591906D01*
X219609524Y-90325240D02*
X219533333Y-90363335D01*
X219533333Y-90363335D02*
X219380952Y-90363335D01*
X219380952Y-90363335D02*
X219304762Y-90325240D01*
X219304762Y-90325240D02*
X219266667Y-90287144D01*
X219266667Y-90287144D02*
X219228571Y-90210954D01*
X219228571Y-90210954D02*
X219228571Y-89982382D01*
X219228571Y-89982382D02*
X219266667Y-89906192D01*
X219266667Y-89906192D02*
X219304762Y-89868097D01*
X219304762Y-89868097D02*
X219380952Y-89830001D01*
X219380952Y-89830001D02*
X219533333Y-89830001D01*
X219533333Y-89830001D02*
X219609524Y-89868097D01*
X220600001Y-90363335D02*
X220600001Y-89563335D01*
X220600001Y-89563335D02*
X220866667Y-90134763D01*
X220866667Y-90134763D02*
X221133334Y-89563335D01*
X221133334Y-89563335D02*
X221133334Y-90363335D01*
X221857144Y-90363335D02*
X221857144Y-89944287D01*
X221857144Y-89944287D02*
X221819049Y-89868097D01*
X221819049Y-89868097D02*
X221742858Y-89830001D01*
X221742858Y-89830001D02*
X221590477Y-89830001D01*
X221590477Y-89830001D02*
X221514287Y-89868097D01*
X221857144Y-90325240D02*
X221780953Y-90363335D01*
X221780953Y-90363335D02*
X221590477Y-90363335D01*
X221590477Y-90363335D02*
X221514287Y-90325240D01*
X221514287Y-90325240D02*
X221476191Y-90249049D01*
X221476191Y-90249049D02*
X221476191Y-90172859D01*
X221476191Y-90172859D02*
X221514287Y-90096668D01*
X221514287Y-90096668D02*
X221590477Y-90058573D01*
X221590477Y-90058573D02*
X221780953Y-90058573D01*
X221780953Y-90058573D02*
X221857144Y-90020478D01*
X222580954Y-90325240D02*
X222504763Y-90363335D01*
X222504763Y-90363335D02*
X222352382Y-90363335D01*
X222352382Y-90363335D02*
X222276192Y-90325240D01*
X222276192Y-90325240D02*
X222238097Y-90287144D01*
X222238097Y-90287144D02*
X222200001Y-90210954D01*
X222200001Y-90210954D02*
X222200001Y-89982382D01*
X222200001Y-89982382D02*
X222238097Y-89906192D01*
X222238097Y-89906192D02*
X222276192Y-89868097D01*
X222276192Y-89868097D02*
X222352382Y-89830001D01*
X222352382Y-89830001D02*
X222504763Y-89830001D01*
X222504763Y-89830001D02*
X222580954Y-89868097D01*
X222923811Y-90363335D02*
X222923811Y-89563335D01*
X223266668Y-90363335D02*
X223266668Y-89944287D01*
X223266668Y-89944287D02*
X223228573Y-89868097D01*
X223228573Y-89868097D02*
X223152382Y-89830001D01*
X223152382Y-89830001D02*
X223038096Y-89830001D01*
X223038096Y-89830001D02*
X222961906Y-89868097D01*
X222961906Y-89868097D02*
X222923811Y-89906192D01*
X223647621Y-90363335D02*
X223647621Y-89830001D01*
X223647621Y-89563335D02*
X223609525Y-89601430D01*
X223609525Y-89601430D02*
X223647621Y-89639525D01*
X223647621Y-89639525D02*
X223685716Y-89601430D01*
X223685716Y-89601430D02*
X223647621Y-89563335D01*
X223647621Y-89563335D02*
X223647621Y-89639525D01*
X224028573Y-89830001D02*
X224028573Y-90363335D01*
X224028573Y-89906192D02*
X224066668Y-89868097D01*
X224066668Y-89868097D02*
X224142858Y-89830001D01*
X224142858Y-89830001D02*
X224257144Y-89830001D01*
X224257144Y-89830001D02*
X224333335Y-89868097D01*
X224333335Y-89868097D02*
X224371430Y-89944287D01*
X224371430Y-89944287D02*
X224371430Y-90363335D01*
X225057145Y-90325240D02*
X224980954Y-90363335D01*
X224980954Y-90363335D02*
X224828573Y-90363335D01*
X224828573Y-90363335D02*
X224752383Y-90325240D01*
X224752383Y-90325240D02*
X224714287Y-90249049D01*
X224714287Y-90249049D02*
X224714287Y-89944287D01*
X224714287Y-89944287D02*
X224752383Y-89868097D01*
X224752383Y-89868097D02*
X224828573Y-89830001D01*
X224828573Y-89830001D02*
X224980954Y-89830001D01*
X224980954Y-89830001D02*
X225057145Y-89868097D01*
X225057145Y-89868097D02*
X225095240Y-89944287D01*
X225095240Y-89944287D02*
X225095240Y-90020478D01*
X225095240Y-90020478D02*
X224714287Y-90096668D01*
X179278571Y-49575240D02*
X179392857Y-49613335D01*
X179392857Y-49613335D02*
X179583333Y-49613335D01*
X179583333Y-49613335D02*
X179659524Y-49575240D01*
X179659524Y-49575240D02*
X179697619Y-49537144D01*
X179697619Y-49537144D02*
X179735714Y-49460954D01*
X179735714Y-49460954D02*
X179735714Y-49384763D01*
X179735714Y-49384763D02*
X179697619Y-49308573D01*
X179697619Y-49308573D02*
X179659524Y-49270478D01*
X179659524Y-49270478D02*
X179583333Y-49232382D01*
X179583333Y-49232382D02*
X179430952Y-49194287D01*
X179430952Y-49194287D02*
X179354762Y-49156192D01*
X179354762Y-49156192D02*
X179316667Y-49118097D01*
X179316667Y-49118097D02*
X179278571Y-49041906D01*
X179278571Y-49041906D02*
X179278571Y-48965716D01*
X179278571Y-48965716D02*
X179316667Y-48889525D01*
X179316667Y-48889525D02*
X179354762Y-48851430D01*
X179354762Y-48851430D02*
X179430952Y-48813335D01*
X179430952Y-48813335D02*
X179621429Y-48813335D01*
X179621429Y-48813335D02*
X179735714Y-48851430D01*
X180078572Y-49613335D02*
X180078572Y-48813335D01*
X180078572Y-48813335D02*
X180269048Y-48813335D01*
X180269048Y-48813335D02*
X180383334Y-48851430D01*
X180383334Y-48851430D02*
X180459524Y-48927620D01*
X180459524Y-48927620D02*
X180497619Y-49003811D01*
X180497619Y-49003811D02*
X180535715Y-49156192D01*
X180535715Y-49156192D02*
X180535715Y-49270478D01*
X180535715Y-49270478D02*
X180497619Y-49422859D01*
X180497619Y-49422859D02*
X180459524Y-49499049D01*
X180459524Y-49499049D02*
X180383334Y-49575240D01*
X180383334Y-49575240D02*
X180269048Y-49613335D01*
X180269048Y-49613335D02*
X180078572Y-49613335D01*
X180840476Y-49384763D02*
X181221429Y-49384763D01*
X180764286Y-49613335D02*
X181030953Y-48813335D01*
X181030953Y-48813335D02*
X181297619Y-49613335D01*
X182847430Y-51870859D02*
X182276002Y-51870859D01*
X182561716Y-51870859D02*
X182561716Y-50870859D01*
X182561716Y-50870859D02*
X182466478Y-51013716D01*
X182466478Y-51013716D02*
X182371240Y-51108954D01*
X182371240Y-51108954D02*
X182276002Y-51156573D01*
D12*
G36*
X217182401Y-88622500D02*
G01*
X218165173Y-88622500D01*
X218165173Y-88385279D01*
X217453236Y-88385279D01*
X217453236Y-87992261D01*
X218106372Y-87992261D01*
X218106372Y-87754949D01*
X217453236Y-87754949D01*
X217453236Y-87400217D01*
X218165173Y-87400217D01*
X218165173Y-87162904D01*
X217182401Y-87162904D01*
X217182401Y-88622500D01*
G37*
G36*
X218426666Y-88622500D02*
G01*
X218695486Y-88622500D01*
X218695486Y-87958464D01*
X218726028Y-87926141D01*
X218759918Y-87898740D01*
X218796548Y-87876617D01*
X218835717Y-87859846D01*
X218876583Y-87848758D01*
X218919183Y-87843378D01*
X218937011Y-87842876D01*
X219027853Y-87853906D01*
X219067162Y-87865957D01*
X219128070Y-87620218D01*
X219049117Y-87596961D01*
X218976853Y-87590818D01*
X218885177Y-87602290D01*
X218799018Y-87636252D01*
X218720989Y-87692100D01*
X218666085Y-87752568D01*
X218640897Y-87602541D01*
X218426666Y-87602541D01*
X218426666Y-88622500D01*
G37*
G36*
X219305848Y-88622500D02*
G01*
X219568348Y-88622500D01*
X219568348Y-87642475D01*
X219952573Y-88397460D01*
X220160485Y-88397460D01*
X220551121Y-87615089D01*
X220551121Y-88622500D01*
X220813621Y-88622500D01*
X220813621Y-87162904D01*
X220551121Y-87162904D01*
X220070176Y-88109406D01*
X219572470Y-87162904D01*
X219305848Y-87162904D01*
X219305848Y-88622500D01*
G37*
G36*
X221621050Y-87586987D02*
G01*
X221726151Y-87613355D01*
X221809916Y-87655953D01*
X221875655Y-87714387D01*
X221902556Y-87750349D01*
X221924909Y-87790387D01*
X221943440Y-87836709D01*
X221956910Y-87887405D01*
X221965659Y-87946205D01*
X221968584Y-88009847D01*
X221968584Y-88622500D01*
X221775327Y-88622500D01*
X221737591Y-88524222D01*
X221710131Y-88549736D01*
X221671811Y-88578020D01*
X221629935Y-88601497D01*
X221583392Y-88620535D01*
X221533487Y-88634340D01*
X221478531Y-88643031D01*
X221420411Y-88645947D01*
X221320594Y-88636503D01*
X221232259Y-88607729D01*
X221162676Y-88562522D01*
X221111464Y-88502561D01*
X221092791Y-88467064D01*
X221079143Y-88428255D01*
X221070591Y-88385364D01*
X221067694Y-88339392D01*
X221070024Y-88304862D01*
X221336422Y-88304862D01*
X221345830Y-88351917D01*
X221359189Y-88375005D01*
X221377838Y-88394870D01*
X221402864Y-88412024D01*
X221432861Y-88424847D01*
X221468608Y-88433158D01*
X221508614Y-88436020D01*
X221558754Y-88432052D01*
X221599400Y-88422458D01*
X221637126Y-88407530D01*
X221672345Y-88387171D01*
X221703977Y-88362015D01*
X221703977Y-88165277D01*
X221554022Y-88173652D01*
X221444846Y-88193967D01*
X221382334Y-88221716D01*
X221348522Y-88256599D01*
X221339400Y-88279347D01*
X221336422Y-88304862D01*
X221070024Y-88304862D01*
X221070699Y-88294864D01*
X221091738Y-88222973D01*
X221110185Y-88190911D01*
X221133991Y-88161666D01*
X221165396Y-88133531D01*
X221203101Y-88108523D01*
X221252315Y-88084432D01*
X221309516Y-88064065D01*
X221383901Y-88045466D01*
X221468854Y-88031462D01*
X221579222Y-88020971D01*
X221703977Y-88016258D01*
X221703977Y-87988598D01*
X221699158Y-87941846D01*
X221675704Y-87886373D01*
X221656003Y-87862989D01*
X221631258Y-87843339D01*
X221598368Y-87826093D01*
X221559591Y-87813413D01*
X221509310Y-87804675D01*
X221451919Y-87801752D01*
X221430196Y-87802123D01*
X221364900Y-87807526D01*
X221297679Y-87819361D01*
X221224686Y-87838812D01*
X221149577Y-87865408D01*
X221086562Y-87677829D01*
X221147892Y-87649226D01*
X221213930Y-87625194D01*
X221287110Y-87605071D01*
X221362537Y-87590513D01*
X221508614Y-87579094D01*
X221621050Y-87586987D01*
G37*
G36*
X222105787Y-88622500D02*
G01*
X222395582Y-88622500D01*
X222605600Y-88311914D01*
X222811405Y-88622500D01*
X223117960Y-88622500D01*
X222750497Y-88110414D01*
X223141133Y-87602541D01*
X222842912Y-87602541D01*
X222622361Y-87925766D01*
X222410328Y-87602541D01*
X222101574Y-87602541D01*
X222479571Y-88123053D01*
X222105787Y-88622500D01*
G37*
G36*
X223754976Y-88622500D02*
G01*
X224030024Y-88622500D01*
X224030024Y-87162904D01*
X223754976Y-87162904D01*
X223754976Y-88622500D01*
G37*
G36*
X225024154Y-88622500D02*
G01*
X225290867Y-88622500D01*
X225290867Y-87992903D01*
X225287968Y-87932267D01*
X225279400Y-87875814D01*
X225265889Y-87825345D01*
X225247421Y-87779160D01*
X225224946Y-87738638D01*
X225198134Y-87702478D01*
X225167835Y-87671457D01*
X225133680Y-87644928D01*
X225054846Y-87606110D01*
X224961356Y-87586787D01*
X224919190Y-87584956D01*
X224864500Y-87587873D01*
X224811260Y-87596566D01*
X224760141Y-87610836D01*
X224711104Y-87630637D01*
X224664826Y-87655669D01*
X224621234Y-87685983D01*
X224589462Y-87713092D01*
X224543300Y-87602541D01*
X224350043Y-87602541D01*
X224350043Y-88622500D01*
X224618863Y-88622500D01*
X224618863Y-87891603D01*
X224657264Y-87864872D01*
X224697773Y-87844052D01*
X224738653Y-87829718D01*
X224781469Y-87821022D01*
X224826775Y-87818055D01*
X224869262Y-87820973D01*
X224906695Y-87829676D01*
X224936447Y-87842620D01*
X224961915Y-87860270D01*
X224998751Y-87907243D01*
X225019778Y-87973178D01*
X225024154Y-88030272D01*
X225024154Y-88622500D01*
G37*
G36*
X226023137Y-88645947D02*
G01*
X226092497Y-88643030D01*
X226159620Y-88634337D01*
X226223009Y-88620244D01*
X226283415Y-88600733D01*
X226359093Y-88566171D01*
X226300292Y-88381065D01*
X226187347Y-88417575D01*
X226081939Y-88429700D01*
X226032426Y-88426793D01*
X225986999Y-88418167D01*
X225947667Y-88404772D01*
X225912271Y-88386445D01*
X225881782Y-88364056D01*
X225855214Y-88337248D01*
X225814227Y-88270777D01*
X225789735Y-88185182D01*
X225783718Y-88106201D01*
X225786633Y-88050800D01*
X225795309Y-88000774D01*
X225808439Y-87959214D01*
X225826372Y-87922455D01*
X225847686Y-87892171D01*
X225873160Y-87866322D01*
X225935018Y-87828731D01*
X226014203Y-87808759D01*
X226062979Y-87805965D01*
X226176958Y-87817229D01*
X226238511Y-87831917D01*
X226297431Y-87852099D01*
X226298185Y-87852402D01*
X226354880Y-87640002D01*
X226242423Y-87601621D01*
X226110993Y-87581099D01*
X226054645Y-87579094D01*
X225990071Y-87581995D01*
X225928774Y-87590582D01*
X225871844Y-87604403D01*
X225818424Y-87623386D01*
X225769333Y-87647004D01*
X225723984Y-87675319D01*
X225682853Y-87707890D01*
X225645722Y-87744767D01*
X225584111Y-87830775D01*
X225540132Y-87932908D01*
X225515409Y-88050950D01*
X225510685Y-88135785D01*
X225513594Y-88202627D01*
X225522231Y-88265289D01*
X225535867Y-88321668D01*
X225554592Y-88373929D01*
X225577515Y-88420606D01*
X225605008Y-88463196D01*
X225636361Y-88500959D01*
X225671914Y-88534584D01*
X225755081Y-88588966D01*
X225855377Y-88626096D01*
X225974241Y-88644432D01*
X226023137Y-88645947D01*
G37*
G36*
X226704666Y-88645947D02*
G01*
X226739297Y-88643093D01*
X226770935Y-88634839D01*
X226824418Y-88603637D01*
X226862447Y-88555286D01*
X226874635Y-88525608D01*
X226881594Y-88493146D01*
X226883177Y-88467527D01*
X226880304Y-88431220D01*
X226871912Y-88397794D01*
X226858511Y-88368004D01*
X226840374Y-88341939D01*
X226818232Y-88320363D01*
X226792147Y-88303252D01*
X226762846Y-88291160D01*
X226730318Y-88284243D01*
X226704666Y-88282697D01*
X226669380Y-88285560D01*
X226637238Y-88293877D01*
X226608625Y-88307181D01*
X226583694Y-88325090D01*
X226545769Y-88373546D01*
X226526071Y-88436931D01*
X226524049Y-88467527D01*
X226526926Y-88501860D01*
X226535344Y-88533772D01*
X226548914Y-88562623D01*
X226567342Y-88588036D01*
X226589971Y-88609229D01*
X226616715Y-88626073D01*
X226646777Y-88637927D01*
X226680244Y-88644605D01*
X226704666Y-88645947D01*
G37*
D11*
X181797618Y-49575240D02*
X181911904Y-49613335D01*
X181911904Y-49613335D02*
X182102380Y-49613335D01*
X182102380Y-49613335D02*
X182178571Y-49575240D01*
X182178571Y-49575240D02*
X182216666Y-49537144D01*
X182216666Y-49537144D02*
X182254761Y-49460954D01*
X182254761Y-49460954D02*
X182254761Y-49384763D01*
X182254761Y-49384763D02*
X182216666Y-49308573D01*
X182216666Y-49308573D02*
X182178571Y-49270478D01*
X182178571Y-49270478D02*
X182102380Y-49232382D01*
X182102380Y-49232382D02*
X181949999Y-49194287D01*
X181949999Y-49194287D02*
X181873809Y-49156192D01*
X181873809Y-49156192D02*
X181835714Y-49118097D01*
X181835714Y-49118097D02*
X181797618Y-49041906D01*
X181797618Y-49041906D02*
X181797618Y-48965716D01*
X181797618Y-48965716D02*
X181835714Y-48889525D01*
X181835714Y-48889525D02*
X181873809Y-48851430D01*
X181873809Y-48851430D02*
X181949999Y-48813335D01*
X181949999Y-48813335D02*
X182140476Y-48813335D01*
X182140476Y-48813335D02*
X182254761Y-48851430D01*
X183054762Y-49537144D02*
X183016666Y-49575240D01*
X183016666Y-49575240D02*
X182902381Y-49613335D01*
X182902381Y-49613335D02*
X182826190Y-49613335D01*
X182826190Y-49613335D02*
X182711904Y-49575240D01*
X182711904Y-49575240D02*
X182635714Y-49499049D01*
X182635714Y-49499049D02*
X182597619Y-49422859D01*
X182597619Y-49422859D02*
X182559523Y-49270478D01*
X182559523Y-49270478D02*
X182559523Y-49156192D01*
X182559523Y-49156192D02*
X182597619Y-49003811D01*
X182597619Y-49003811D02*
X182635714Y-48927620D01*
X182635714Y-48927620D02*
X182711904Y-48851430D01*
X182711904Y-48851430D02*
X182826190Y-48813335D01*
X182826190Y-48813335D02*
X182902381Y-48813335D01*
X182902381Y-48813335D02*
X183016666Y-48851430D01*
X183016666Y-48851430D02*
X183054762Y-48889525D01*
X183778571Y-49613335D02*
X183397619Y-49613335D01*
X183397619Y-49613335D02*
X183397619Y-48813335D01*
X212140476Y-49101430D02*
X212064286Y-49063335D01*
X212064286Y-49063335D02*
X211950000Y-49063335D01*
X211950000Y-49063335D02*
X211835714Y-49101430D01*
X211835714Y-49101430D02*
X211759524Y-49177620D01*
X211759524Y-49177620D02*
X211721429Y-49253811D01*
X211721429Y-49253811D02*
X211683333Y-49406192D01*
X211683333Y-49406192D02*
X211683333Y-49520478D01*
X211683333Y-49520478D02*
X211721429Y-49672859D01*
X211721429Y-49672859D02*
X211759524Y-49749049D01*
X211759524Y-49749049D02*
X211835714Y-49825240D01*
X211835714Y-49825240D02*
X211950000Y-49863335D01*
X211950000Y-49863335D02*
X212026191Y-49863335D01*
X212026191Y-49863335D02*
X212140476Y-49825240D01*
X212140476Y-49825240D02*
X212178572Y-49787144D01*
X212178572Y-49787144D02*
X212178572Y-49520478D01*
X212178572Y-49520478D02*
X212026191Y-49520478D01*
X212521429Y-49863335D02*
X212521429Y-49063335D01*
X212521429Y-49063335D02*
X212978572Y-49863335D01*
X212978572Y-49863335D02*
X212978572Y-49063335D01*
X213359524Y-49863335D02*
X213359524Y-49063335D01*
X213359524Y-49063335D02*
X213550000Y-49063335D01*
X213550000Y-49063335D02*
X213664286Y-49101430D01*
X213664286Y-49101430D02*
X213740476Y-49177620D01*
X213740476Y-49177620D02*
X213778571Y-49253811D01*
X213778571Y-49253811D02*
X213816667Y-49406192D01*
X213816667Y-49406192D02*
X213816667Y-49520478D01*
X213816667Y-49520478D02*
X213778571Y-49672859D01*
X213778571Y-49672859D02*
X213740476Y-49749049D01*
X213740476Y-49749049D02*
X213664286Y-49825240D01*
X213664286Y-49825240D02*
X213550000Y-49863335D01*
X213550000Y-49863335D02*
X213359524Y-49863335D01*
X174640476Y-48851430D02*
X174564286Y-48813335D01*
X174564286Y-48813335D02*
X174450000Y-48813335D01*
X174450000Y-48813335D02*
X174335714Y-48851430D01*
X174335714Y-48851430D02*
X174259524Y-48927620D01*
X174259524Y-48927620D02*
X174221429Y-49003811D01*
X174221429Y-49003811D02*
X174183333Y-49156192D01*
X174183333Y-49156192D02*
X174183333Y-49270478D01*
X174183333Y-49270478D02*
X174221429Y-49422859D01*
X174221429Y-49422859D02*
X174259524Y-49499049D01*
X174259524Y-49499049D02*
X174335714Y-49575240D01*
X174335714Y-49575240D02*
X174450000Y-49613335D01*
X174450000Y-49613335D02*
X174526191Y-49613335D01*
X174526191Y-49613335D02*
X174640476Y-49575240D01*
X174640476Y-49575240D02*
X174678572Y-49537144D01*
X174678572Y-49537144D02*
X174678572Y-49270478D01*
X174678572Y-49270478D02*
X174526191Y-49270478D01*
X175021429Y-49613335D02*
X175021429Y-48813335D01*
X175021429Y-48813335D02*
X175478572Y-49613335D01*
X175478572Y-49613335D02*
X175478572Y-48813335D01*
X175859524Y-49613335D02*
X175859524Y-48813335D01*
X175859524Y-48813335D02*
X176050000Y-48813335D01*
X176050000Y-48813335D02*
X176164286Y-48851430D01*
X176164286Y-48851430D02*
X176240476Y-48927620D01*
X176240476Y-48927620D02*
X176278571Y-49003811D01*
X176278571Y-49003811D02*
X176316667Y-49156192D01*
X176316667Y-49156192D02*
X176316667Y-49270478D01*
X176316667Y-49270478D02*
X176278571Y-49422859D01*
X176278571Y-49422859D02*
X176240476Y-49499049D01*
X176240476Y-49499049D02*
X176164286Y-49575240D01*
X176164286Y-49575240D02*
X176050000Y-49613335D01*
X176050000Y-49613335D02*
X175859524Y-49613335D01*
D13*
X176683333Y-49062815D02*
X176950000Y-49862815D01*
X176950000Y-49862815D02*
X177216666Y-49062815D01*
X177940476Y-49786624D02*
X177902380Y-49824720D01*
X177902380Y-49824720D02*
X177788095Y-49862815D01*
X177788095Y-49862815D02*
X177711904Y-49862815D01*
X177711904Y-49862815D02*
X177597618Y-49824720D01*
X177597618Y-49824720D02*
X177521428Y-49748529D01*
X177521428Y-49748529D02*
X177483333Y-49672339D01*
X177483333Y-49672339D02*
X177445237Y-49519958D01*
X177445237Y-49519958D02*
X177445237Y-49405672D01*
X177445237Y-49405672D02*
X177483333Y-49253291D01*
X177483333Y-49253291D02*
X177521428Y-49177100D01*
X177521428Y-49177100D02*
X177597618Y-49100910D01*
X177597618Y-49100910D02*
X177711904Y-49062815D01*
X177711904Y-49062815D02*
X177788095Y-49062815D01*
X177788095Y-49062815D02*
X177902380Y-49100910D01*
X177902380Y-49100910D02*
X177940476Y-49139005D01*
X178740476Y-49786624D02*
X178702380Y-49824720D01*
X178702380Y-49824720D02*
X178588095Y-49862815D01*
X178588095Y-49862815D02*
X178511904Y-49862815D01*
X178511904Y-49862815D02*
X178397618Y-49824720D01*
X178397618Y-49824720D02*
X178321428Y-49748529D01*
X178321428Y-49748529D02*
X178283333Y-49672339D01*
X178283333Y-49672339D02*
X178245237Y-49519958D01*
X178245237Y-49519958D02*
X178245237Y-49405672D01*
X178245237Y-49405672D02*
X178283333Y-49253291D01*
X178283333Y-49253291D02*
X178321428Y-49177100D01*
X178321428Y-49177100D02*
X178397618Y-49100910D01*
X178397618Y-49100910D02*
X178511904Y-49062815D01*
X178511904Y-49062815D02*
X178588095Y-49062815D01*
X178588095Y-49062815D02*
X178702380Y-49100910D01*
X178702380Y-49100910D02*
X178740476Y-49139005D01*
X176687143Y-48840720D02*
X178812857Y-48840720D01*
D14*
X168738095Y-49454819D02*
X168738095Y-50264342D01*
X168738095Y-50264342D02*
X168785714Y-50359580D01*
X168785714Y-50359580D02*
X168833333Y-50407200D01*
X168833333Y-50407200D02*
X168928571Y-50454819D01*
X168928571Y-50454819D02*
X169119047Y-50454819D01*
X169119047Y-50454819D02*
X169214285Y-50407200D01*
X169214285Y-50407200D02*
X169261904Y-50359580D01*
X169261904Y-50359580D02*
X169309523Y-50264342D01*
X169309523Y-50264342D02*
X169309523Y-49454819D01*
X170309523Y-50454819D02*
X169738095Y-50454819D01*
X170023809Y-50454819D02*
X170023809Y-49454819D01*
X170023809Y-49454819D02*
X169928571Y-49597676D01*
X169928571Y-49597676D02*
X169833333Y-49692914D01*
X169833333Y-49692914D02*
X169738095Y-49740533D01*
X167690476Y-72454819D02*
X168261904Y-72454819D01*
X167976190Y-73454819D02*
X167976190Y-72454819D01*
X168595238Y-73454819D02*
X168595238Y-72454819D01*
X168595238Y-72454819D02*
X168928571Y-73169104D01*
X168928571Y-73169104D02*
X169261904Y-72454819D01*
X169261904Y-72454819D02*
X169261904Y-73454819D01*
X170309523Y-73359580D02*
X170261904Y-73407200D01*
X170261904Y-73407200D02*
X170119047Y-73454819D01*
X170119047Y-73454819D02*
X170023809Y-73454819D01*
X170023809Y-73454819D02*
X169880952Y-73407200D01*
X169880952Y-73407200D02*
X169785714Y-73311961D01*
X169785714Y-73311961D02*
X169738095Y-73216723D01*
X169738095Y-73216723D02*
X169690476Y-73026247D01*
X169690476Y-73026247D02*
X169690476Y-72883390D01*
X169690476Y-72883390D02*
X169738095Y-72692914D01*
X169738095Y-72692914D02*
X169785714Y-72597676D01*
X169785714Y-72597676D02*
X169880952Y-72502438D01*
X169880952Y-72502438D02*
X170023809Y-72454819D01*
X170023809Y-72454819D02*
X170119047Y-72454819D01*
X170119047Y-72454819D02*
X170261904Y-72502438D01*
X170261904Y-72502438D02*
X170309523Y-72550057D01*
X170690476Y-72550057D02*
X170738095Y-72502438D01*
X170738095Y-72502438D02*
X170833333Y-72454819D01*
X170833333Y-72454819D02*
X171071428Y-72454819D01*
X171071428Y-72454819D02*
X171166666Y-72502438D01*
X171166666Y-72502438D02*
X171214285Y-72550057D01*
X171214285Y-72550057D02*
X171261904Y-72645295D01*
X171261904Y-72645295D02*
X171261904Y-72740533D01*
X171261904Y-72740533D02*
X171214285Y-72883390D01*
X171214285Y-72883390D02*
X170642857Y-73454819D01*
X170642857Y-73454819D02*
X171261904Y-73454819D01*
X171642857Y-72550057D02*
X171690476Y-72502438D01*
X171690476Y-72502438D02*
X171785714Y-72454819D01*
X171785714Y-72454819D02*
X172023809Y-72454819D01*
X172023809Y-72454819D02*
X172119047Y-72502438D01*
X172119047Y-72502438D02*
X172166666Y-72550057D01*
X172166666Y-72550057D02*
X172214285Y-72645295D01*
X172214285Y-72645295D02*
X172214285Y-72740533D01*
X172214285Y-72740533D02*
X172166666Y-72883390D01*
X172166666Y-72883390D02*
X171595238Y-73454819D01*
X171595238Y-73454819D02*
X172214285Y-73454819D01*
X172833333Y-72454819D02*
X172928571Y-72454819D01*
X172928571Y-72454819D02*
X173023809Y-72502438D01*
X173023809Y-72502438D02*
X173071428Y-72550057D01*
X173071428Y-72550057D02*
X173119047Y-72645295D01*
X173119047Y-72645295D02*
X173166666Y-72835771D01*
X173166666Y-72835771D02*
X173166666Y-73073866D01*
X173166666Y-73073866D02*
X173119047Y-73264342D01*
X173119047Y-73264342D02*
X173071428Y-73359580D01*
X173071428Y-73359580D02*
X173023809Y-73407200D01*
X173023809Y-73407200D02*
X172928571Y-73454819D01*
X172928571Y-73454819D02*
X172833333Y-73454819D01*
X172833333Y-73454819D02*
X172738095Y-73407200D01*
X172738095Y-73407200D02*
X172690476Y-73359580D01*
X172690476Y-73359580D02*
X172642857Y-73264342D01*
X172642857Y-73264342D02*
X172595238Y-73073866D01*
X172595238Y-73073866D02*
X172595238Y-72835771D01*
X172595238Y-72835771D02*
X172642857Y-72645295D01*
X172642857Y-72645295D02*
X172690476Y-72550057D01*
X172690476Y-72550057D02*
X172738095Y-72502438D01*
X172738095Y-72502438D02*
X172833333Y-72454819D01*
X173642857Y-73454819D02*
X173833333Y-73454819D01*
X173833333Y-73454819D02*
X173928571Y-73407200D01*
X173928571Y-73407200D02*
X173976190Y-73359580D01*
X173976190Y-73359580D02*
X174071428Y-73216723D01*
X174071428Y-73216723D02*
X174119047Y-73026247D01*
X174119047Y-73026247D02*
X174119047Y-72645295D01*
X174119047Y-72645295D02*
X174071428Y-72550057D01*
X174071428Y-72550057D02*
X174023809Y-72502438D01*
X174023809Y-72502438D02*
X173928571Y-72454819D01*
X173928571Y-72454819D02*
X173738095Y-72454819D01*
X173738095Y-72454819D02*
X173642857Y-72502438D01*
X173642857Y-72502438D02*
X173595238Y-72550057D01*
X173595238Y-72550057D02*
X173547619Y-72645295D01*
X173547619Y-72645295D02*
X173547619Y-72883390D01*
X173547619Y-72883390D02*
X173595238Y-72978628D01*
X173595238Y-72978628D02*
X173642857Y-73026247D01*
X173642857Y-73026247D02*
X173738095Y-73073866D01*
X173738095Y-73073866D02*
X173928571Y-73073866D01*
X173928571Y-73073866D02*
X174023809Y-73026247D01*
X174023809Y-73026247D02*
X174071428Y-72978628D01*
X174071428Y-72978628D02*
X174119047Y-72883390D01*
X175309524Y-72788152D02*
X175309524Y-73788152D01*
X175309524Y-72835771D02*
X175404762Y-72788152D01*
X175404762Y-72788152D02*
X175595238Y-72788152D01*
X175595238Y-72788152D02*
X175690476Y-72835771D01*
X175690476Y-72835771D02*
X175738095Y-72883390D01*
X175738095Y-72883390D02*
X175785714Y-72978628D01*
X175785714Y-72978628D02*
X175785714Y-73264342D01*
X175785714Y-73264342D02*
X175738095Y-73359580D01*
X175738095Y-73359580D02*
X175690476Y-73407200D01*
X175690476Y-73407200D02*
X175595238Y-73454819D01*
X175595238Y-73454819D02*
X175404762Y-73454819D01*
X175404762Y-73454819D02*
X175309524Y-73407200D01*
X176214286Y-73454819D02*
X176214286Y-72788152D01*
X176214286Y-72454819D02*
X176166667Y-72502438D01*
X176166667Y-72502438D02*
X176214286Y-72550057D01*
X176214286Y-72550057D02*
X176261905Y-72502438D01*
X176261905Y-72502438D02*
X176214286Y-72454819D01*
X176214286Y-72454819D02*
X176214286Y-72550057D01*
X176690476Y-72788152D02*
X176690476Y-73454819D01*
X176690476Y-72883390D02*
X176738095Y-72835771D01*
X176738095Y-72835771D02*
X176833333Y-72788152D01*
X176833333Y-72788152D02*
X176976190Y-72788152D01*
X176976190Y-72788152D02*
X177071428Y-72835771D01*
X177071428Y-72835771D02*
X177119047Y-72931009D01*
X177119047Y-72931009D02*
X177119047Y-73454819D01*
X177357143Y-73550057D02*
X178119047Y-73550057D01*
X178785714Y-73454819D02*
X178785714Y-72454819D01*
X178785714Y-73407200D02*
X178690476Y-73454819D01*
X178690476Y-73454819D02*
X178500000Y-73454819D01*
X178500000Y-73454819D02*
X178404762Y-73407200D01*
X178404762Y-73407200D02*
X178357143Y-73359580D01*
X178357143Y-73359580D02*
X178309524Y-73264342D01*
X178309524Y-73264342D02*
X178309524Y-72978628D01*
X178309524Y-72978628D02*
X178357143Y-72883390D01*
X178357143Y-72883390D02*
X178404762Y-72835771D01*
X178404762Y-72835771D02*
X178500000Y-72788152D01*
X178500000Y-72788152D02*
X178690476Y-72788152D01*
X178690476Y-72788152D02*
X178785714Y-72835771D01*
X179261905Y-73454819D02*
X179261905Y-72788152D01*
X179261905Y-72454819D02*
X179214286Y-72502438D01*
X179214286Y-72502438D02*
X179261905Y-72550057D01*
X179261905Y-72550057D02*
X179309524Y-72502438D01*
X179309524Y-72502438D02*
X179261905Y-72454819D01*
X179261905Y-72454819D02*
X179261905Y-72550057D01*
X179738095Y-72788152D02*
X179738095Y-73788152D01*
X179738095Y-72835771D02*
X179833333Y-72788152D01*
X179833333Y-72788152D02*
X180023809Y-72788152D01*
X180023809Y-72788152D02*
X180119047Y-72835771D01*
X180119047Y-72835771D02*
X180166666Y-72883390D01*
X180166666Y-72883390D02*
X180214285Y-72978628D01*
X180214285Y-72978628D02*
X180214285Y-73264342D01*
X180214285Y-73264342D02*
X180166666Y-73359580D01*
X180166666Y-73359580D02*
X180119047Y-73407200D01*
X180119047Y-73407200D02*
X180023809Y-73454819D01*
X180023809Y-73454819D02*
X179833333Y-73454819D01*
X179833333Y-73454819D02*
X179738095Y-73407200D01*
D11*
X215738095Y-105408240D02*
X215880952Y-105455859D01*
X215880952Y-105455859D02*
X216119047Y-105455859D01*
X216119047Y-105455859D02*
X216214285Y-105408240D01*
X216214285Y-105408240D02*
X216261904Y-105360620D01*
X216261904Y-105360620D02*
X216309523Y-105265382D01*
X216309523Y-105265382D02*
X216309523Y-105170144D01*
X216309523Y-105170144D02*
X216261904Y-105074906D01*
X216261904Y-105074906D02*
X216214285Y-105027287D01*
X216214285Y-105027287D02*
X216119047Y-104979668D01*
X216119047Y-104979668D02*
X215928571Y-104932049D01*
X215928571Y-104932049D02*
X215833333Y-104884430D01*
X215833333Y-104884430D02*
X215785714Y-104836811D01*
X215785714Y-104836811D02*
X215738095Y-104741573D01*
X215738095Y-104741573D02*
X215738095Y-104646335D01*
X215738095Y-104646335D02*
X215785714Y-104551097D01*
X215785714Y-104551097D02*
X215833333Y-104503478D01*
X215833333Y-104503478D02*
X215928571Y-104455859D01*
X215928571Y-104455859D02*
X216166666Y-104455859D01*
X216166666Y-104455859D02*
X216309523Y-104503478D01*
X216690476Y-104551097D02*
X216738095Y-104503478D01*
X216738095Y-104503478D02*
X216833333Y-104455859D01*
X216833333Y-104455859D02*
X217071428Y-104455859D01*
X217071428Y-104455859D02*
X217166666Y-104503478D01*
X217166666Y-104503478D02*
X217214285Y-104551097D01*
X217214285Y-104551097D02*
X217261904Y-104646335D01*
X217261904Y-104646335D02*
X217261904Y-104741573D01*
X217261904Y-104741573D02*
X217214285Y-104884430D01*
X217214285Y-104884430D02*
X216642857Y-105455859D01*
X216642857Y-105455859D02*
X217261904Y-105455859D01*
D14*
X208499999Y-101454819D02*
X208499999Y-100454819D01*
X209071427Y-101454819D02*
X208642856Y-100883390D01*
X209071427Y-100454819D02*
X208499999Y-101026247D01*
X209880951Y-101407200D02*
X209785713Y-101454819D01*
X209785713Y-101454819D02*
X209595237Y-101454819D01*
X209595237Y-101454819D02*
X209499999Y-101407200D01*
X209499999Y-101407200D02*
X209452380Y-101311961D01*
X209452380Y-101311961D02*
X209452380Y-100931009D01*
X209452380Y-100931009D02*
X209499999Y-100835771D01*
X209499999Y-100835771D02*
X209595237Y-100788152D01*
X209595237Y-100788152D02*
X209785713Y-100788152D01*
X209785713Y-100788152D02*
X209880951Y-100835771D01*
X209880951Y-100835771D02*
X209928570Y-100931009D01*
X209928570Y-100931009D02*
X209928570Y-101026247D01*
X209928570Y-101026247D02*
X209452380Y-101121485D01*
X210261904Y-100788152D02*
X210499999Y-101454819D01*
X210738094Y-100788152D02*
X210499999Y-101454819D01*
X210499999Y-101454819D02*
X210404761Y-101692914D01*
X210404761Y-101692914D02*
X210357142Y-101740533D01*
X210357142Y-101740533D02*
X210261904Y-101788152D01*
X211119047Y-100788152D02*
X211119047Y-101788152D01*
X211119047Y-100835771D02*
X211214285Y-100788152D01*
X211214285Y-100788152D02*
X211404761Y-100788152D01*
X211404761Y-100788152D02*
X211499999Y-100835771D01*
X211499999Y-100835771D02*
X211547618Y-100883390D01*
X211547618Y-100883390D02*
X211595237Y-100978628D01*
X211595237Y-100978628D02*
X211595237Y-101264342D01*
X211595237Y-101264342D02*
X211547618Y-101359580D01*
X211547618Y-101359580D02*
X211499999Y-101407200D01*
X211499999Y-101407200D02*
X211404761Y-101454819D01*
X211404761Y-101454819D02*
X211214285Y-101454819D01*
X211214285Y-101454819D02*
X211119047Y-101407200D01*
X212452380Y-101454819D02*
X212452380Y-100931009D01*
X212452380Y-100931009D02*
X212404761Y-100835771D01*
X212404761Y-100835771D02*
X212309523Y-100788152D01*
X212309523Y-100788152D02*
X212119047Y-100788152D01*
X212119047Y-100788152D02*
X212023809Y-100835771D01*
X212452380Y-101407200D02*
X212357142Y-101454819D01*
X212357142Y-101454819D02*
X212119047Y-101454819D01*
X212119047Y-101454819D02*
X212023809Y-101407200D01*
X212023809Y-101407200D02*
X211976190Y-101311961D01*
X211976190Y-101311961D02*
X211976190Y-101216723D01*
X211976190Y-101216723D02*
X212023809Y-101121485D01*
X212023809Y-101121485D02*
X212119047Y-101073866D01*
X212119047Y-101073866D02*
X212357142Y-101073866D01*
X212357142Y-101073866D02*
X212452380Y-101026247D01*
X213357142Y-101454819D02*
X213357142Y-100454819D01*
X213357142Y-101407200D02*
X213261904Y-101454819D01*
X213261904Y-101454819D02*
X213071428Y-101454819D01*
X213071428Y-101454819D02*
X212976190Y-101407200D01*
X212976190Y-101407200D02*
X212928571Y-101359580D01*
X212928571Y-101359580D02*
X212880952Y-101264342D01*
X212880952Y-101264342D02*
X212880952Y-100978628D01*
X212880952Y-100978628D02*
X212928571Y-100883390D01*
X212928571Y-100883390D02*
X212976190Y-100835771D01*
X212976190Y-100835771D02*
X213071428Y-100788152D01*
X213071428Y-100788152D02*
X213261904Y-100788152D01*
X213261904Y-100788152D02*
X213357142Y-100835771D01*
X213595238Y-101550057D02*
X214357142Y-101550057D01*
X215166666Y-101359580D02*
X215119047Y-101407200D01*
X215119047Y-101407200D02*
X214976190Y-101454819D01*
X214976190Y-101454819D02*
X214880952Y-101454819D01*
X214880952Y-101454819D02*
X214738095Y-101407200D01*
X214738095Y-101407200D02*
X214642857Y-101311961D01*
X214642857Y-101311961D02*
X214595238Y-101216723D01*
X214595238Y-101216723D02*
X214547619Y-101026247D01*
X214547619Y-101026247D02*
X214547619Y-100883390D01*
X214547619Y-100883390D02*
X214595238Y-100692914D01*
X214595238Y-100692914D02*
X214642857Y-100597676D01*
X214642857Y-100597676D02*
X214738095Y-100502438D01*
X214738095Y-100502438D02*
X214880952Y-100454819D01*
X214880952Y-100454819D02*
X214976190Y-100454819D01*
X214976190Y-100454819D02*
X215119047Y-100502438D01*
X215119047Y-100502438D02*
X215166666Y-100550057D01*
X215738095Y-101454819D02*
X215642857Y-101407200D01*
X215642857Y-101407200D02*
X215595238Y-101359580D01*
X215595238Y-101359580D02*
X215547619Y-101264342D01*
X215547619Y-101264342D02*
X215547619Y-100978628D01*
X215547619Y-100978628D02*
X215595238Y-100883390D01*
X215595238Y-100883390D02*
X215642857Y-100835771D01*
X215642857Y-100835771D02*
X215738095Y-100788152D01*
X215738095Y-100788152D02*
X215880952Y-100788152D01*
X215880952Y-100788152D02*
X215976190Y-100835771D01*
X215976190Y-100835771D02*
X216023809Y-100883390D01*
X216023809Y-100883390D02*
X216071428Y-100978628D01*
X216071428Y-100978628D02*
X216071428Y-101264342D01*
X216071428Y-101264342D02*
X216023809Y-101359580D01*
X216023809Y-101359580D02*
X215976190Y-101407200D01*
X215976190Y-101407200D02*
X215880952Y-101454819D01*
X215880952Y-101454819D02*
X215738095Y-101454819D01*
X216642857Y-101454819D02*
X216547619Y-101407200D01*
X216547619Y-101407200D02*
X216500000Y-101311961D01*
X216500000Y-101311961D02*
X216500000Y-100454819D01*
X217452381Y-100788152D02*
X217452381Y-101454819D01*
X217023810Y-100788152D02*
X217023810Y-101311961D01*
X217023810Y-101311961D02*
X217071429Y-101407200D01*
X217071429Y-101407200D02*
X217166667Y-101454819D01*
X217166667Y-101454819D02*
X217309524Y-101454819D01*
X217309524Y-101454819D02*
X217404762Y-101407200D01*
X217404762Y-101407200D02*
X217452381Y-101359580D01*
X217928572Y-101454819D02*
X217928572Y-100788152D01*
X217928572Y-100883390D02*
X217976191Y-100835771D01*
X217976191Y-100835771D02*
X218071429Y-100788152D01*
X218071429Y-100788152D02*
X218214286Y-100788152D01*
X218214286Y-100788152D02*
X218309524Y-100835771D01*
X218309524Y-100835771D02*
X218357143Y-100931009D01*
X218357143Y-100931009D02*
X218357143Y-101454819D01*
X218357143Y-100931009D02*
X218404762Y-100835771D01*
X218404762Y-100835771D02*
X218500000Y-100788152D01*
X218500000Y-100788152D02*
X218642857Y-100788152D01*
X218642857Y-100788152D02*
X218738096Y-100835771D01*
X218738096Y-100835771D02*
X218785715Y-100931009D01*
X218785715Y-100931009D02*
X218785715Y-101454819D01*
X219261905Y-100788152D02*
X219261905Y-101454819D01*
X219261905Y-100883390D02*
X219309524Y-100835771D01*
X219309524Y-100835771D02*
X219404762Y-100788152D01*
X219404762Y-100788152D02*
X219547619Y-100788152D01*
X219547619Y-100788152D02*
X219642857Y-100835771D01*
X219642857Y-100835771D02*
X219690476Y-100931009D01*
X219690476Y-100931009D02*
X219690476Y-101454819D01*
X220119048Y-101407200D02*
X220214286Y-101454819D01*
X220214286Y-101454819D02*
X220404762Y-101454819D01*
X220404762Y-101454819D02*
X220500000Y-101407200D01*
X220500000Y-101407200D02*
X220547619Y-101311961D01*
X220547619Y-101311961D02*
X220547619Y-101264342D01*
X220547619Y-101264342D02*
X220500000Y-101169104D01*
X220500000Y-101169104D02*
X220404762Y-101121485D01*
X220404762Y-101121485D02*
X220261905Y-101121485D01*
X220261905Y-101121485D02*
X220166667Y-101073866D01*
X220166667Y-101073866D02*
X220119048Y-100978628D01*
X220119048Y-100978628D02*
X220119048Y-100931009D01*
X220119048Y-100931009D02*
X220166667Y-100835771D01*
X220166667Y-100835771D02*
X220261905Y-100788152D01*
X220261905Y-100788152D02*
X220404762Y-100788152D01*
X220404762Y-100788152D02*
X220500000Y-100835771D01*
D11*
X162190476Y-61455859D02*
X162190476Y-60455859D01*
X162190476Y-60455859D02*
X162523809Y-61170144D01*
X162523809Y-61170144D02*
X162857142Y-60455859D01*
X162857142Y-60455859D02*
X162857142Y-61455859D01*
X163857142Y-61455859D02*
X163285714Y-61455859D01*
X163571428Y-61455859D02*
X163571428Y-60455859D01*
X163571428Y-60455859D02*
X163476190Y-60598716D01*
X163476190Y-60598716D02*
X163380952Y-60693954D01*
X163380952Y-60693954D02*
X163285714Y-60741573D01*
D14*
X162071429Y-49288152D02*
X162071429Y-50288152D01*
X162071429Y-49335771D02*
X162166667Y-49288152D01*
X162166667Y-49288152D02*
X162357143Y-49288152D01*
X162357143Y-49288152D02*
X162452381Y-49335771D01*
X162452381Y-49335771D02*
X162500000Y-49383390D01*
X162500000Y-49383390D02*
X162547619Y-49478628D01*
X162547619Y-49478628D02*
X162547619Y-49764342D01*
X162547619Y-49764342D02*
X162500000Y-49859580D01*
X162500000Y-49859580D02*
X162452381Y-49907200D01*
X162452381Y-49907200D02*
X162357143Y-49954819D01*
X162357143Y-49954819D02*
X162166667Y-49954819D01*
X162166667Y-49954819D02*
X162071429Y-49907200D01*
X162976191Y-49954819D02*
X162976191Y-49288152D01*
X162976191Y-48954819D02*
X162928572Y-49002438D01*
X162928572Y-49002438D02*
X162976191Y-49050057D01*
X162976191Y-49050057D02*
X163023810Y-49002438D01*
X163023810Y-49002438D02*
X162976191Y-48954819D01*
X162976191Y-48954819D02*
X162976191Y-49050057D01*
X163452381Y-49288152D02*
X163452381Y-49954819D01*
X163452381Y-49383390D02*
X163500000Y-49335771D01*
X163500000Y-49335771D02*
X163595238Y-49288152D01*
X163595238Y-49288152D02*
X163738095Y-49288152D01*
X163738095Y-49288152D02*
X163833333Y-49335771D01*
X163833333Y-49335771D02*
X163880952Y-49431009D01*
X163880952Y-49431009D02*
X163880952Y-49954819D01*
X164119048Y-50050057D02*
X164880952Y-50050057D01*
X165547619Y-49954819D02*
X165547619Y-48954819D01*
X165547619Y-49907200D02*
X165452381Y-49954819D01*
X165452381Y-49954819D02*
X165261905Y-49954819D01*
X165261905Y-49954819D02*
X165166667Y-49907200D01*
X165166667Y-49907200D02*
X165119048Y-49859580D01*
X165119048Y-49859580D02*
X165071429Y-49764342D01*
X165071429Y-49764342D02*
X165071429Y-49478628D01*
X165071429Y-49478628D02*
X165119048Y-49383390D01*
X165119048Y-49383390D02*
X165166667Y-49335771D01*
X165166667Y-49335771D02*
X165261905Y-49288152D01*
X165261905Y-49288152D02*
X165452381Y-49288152D01*
X165452381Y-49288152D02*
X165547619Y-49335771D01*
X166023810Y-49954819D02*
X166023810Y-49288152D01*
X166023810Y-48954819D02*
X165976191Y-49002438D01*
X165976191Y-49002438D02*
X166023810Y-49050057D01*
X166023810Y-49050057D02*
X166071429Y-49002438D01*
X166071429Y-49002438D02*
X166023810Y-48954819D01*
X166023810Y-48954819D02*
X166023810Y-49050057D01*
X166500000Y-49288152D02*
X166500000Y-50288152D01*
X166500000Y-49335771D02*
X166595238Y-49288152D01*
X166595238Y-49288152D02*
X166785714Y-49288152D01*
X166785714Y-49288152D02*
X166880952Y-49335771D01*
X166880952Y-49335771D02*
X166928571Y-49383390D01*
X166928571Y-49383390D02*
X166976190Y-49478628D01*
X166976190Y-49478628D02*
X166976190Y-49764342D01*
X166976190Y-49764342D02*
X166928571Y-49859580D01*
X166928571Y-49859580D02*
X166880952Y-49907200D01*
X166880952Y-49907200D02*
X166785714Y-49954819D01*
X166785714Y-49954819D02*
X166595238Y-49954819D01*
X166595238Y-49954819D02*
X166500000Y-49907200D01*
D11*
X177785714Y-45155859D02*
X177785714Y-44155859D01*
X177785714Y-44155859D02*
X178023809Y-44155859D01*
X178023809Y-44155859D02*
X178166666Y-44203478D01*
X178166666Y-44203478D02*
X178261904Y-44298716D01*
X178261904Y-44298716D02*
X178309523Y-44393954D01*
X178309523Y-44393954D02*
X178357142Y-44584430D01*
X178357142Y-44584430D02*
X178357142Y-44727287D01*
X178357142Y-44727287D02*
X178309523Y-44917763D01*
X178309523Y-44917763D02*
X178261904Y-45013001D01*
X178261904Y-45013001D02*
X178166666Y-45108240D01*
X178166666Y-45108240D02*
X178023809Y-45155859D01*
X178023809Y-45155859D02*
X177785714Y-45155859D01*
X178738095Y-45108240D02*
X178880952Y-45155859D01*
X178880952Y-45155859D02*
X179119047Y-45155859D01*
X179119047Y-45155859D02*
X179214285Y-45108240D01*
X179214285Y-45108240D02*
X179261904Y-45060620D01*
X179261904Y-45060620D02*
X179309523Y-44965382D01*
X179309523Y-44965382D02*
X179309523Y-44870144D01*
X179309523Y-44870144D02*
X179261904Y-44774906D01*
X179261904Y-44774906D02*
X179214285Y-44727287D01*
X179214285Y-44727287D02*
X179119047Y-44679668D01*
X179119047Y-44679668D02*
X178928571Y-44632049D01*
X178928571Y-44632049D02*
X178833333Y-44584430D01*
X178833333Y-44584430D02*
X178785714Y-44536811D01*
X178785714Y-44536811D02*
X178738095Y-44441573D01*
X178738095Y-44441573D02*
X178738095Y-44346335D01*
X178738095Y-44346335D02*
X178785714Y-44251097D01*
X178785714Y-44251097D02*
X178833333Y-44203478D01*
X178833333Y-44203478D02*
X178928571Y-44155859D01*
X178928571Y-44155859D02*
X179166666Y-44155859D01*
X179166666Y-44155859D02*
X179309523Y-44203478D01*
X180261904Y-45155859D02*
X179690476Y-45155859D01*
X179976190Y-45155859D02*
X179976190Y-44155859D01*
X179976190Y-44155859D02*
X179880952Y-44298716D01*
X179880952Y-44298716D02*
X179785714Y-44393954D01*
X179785714Y-44393954D02*
X179690476Y-44441573D01*
D14*
X208663095Y-49799819D02*
X208663095Y-50609342D01*
X208663095Y-50609342D02*
X208710714Y-50704580D01*
X208710714Y-50704580D02*
X208758333Y-50752200D01*
X208758333Y-50752200D02*
X208853571Y-50799819D01*
X208853571Y-50799819D02*
X209044047Y-50799819D01*
X209044047Y-50799819D02*
X209139285Y-50752200D01*
X209139285Y-50752200D02*
X209186904Y-50704580D01*
X209186904Y-50704580D02*
X209234523Y-50609342D01*
X209234523Y-50609342D02*
X209234523Y-49799819D01*
X209663095Y-49895057D02*
X209710714Y-49847438D01*
X209710714Y-49847438D02*
X209805952Y-49799819D01*
X209805952Y-49799819D02*
X210044047Y-49799819D01*
X210044047Y-49799819D02*
X210139285Y-49847438D01*
X210139285Y-49847438D02*
X210186904Y-49895057D01*
X210186904Y-49895057D02*
X210234523Y-49990295D01*
X210234523Y-49990295D02*
X210234523Y-50085533D01*
X210234523Y-50085533D02*
X210186904Y-50228390D01*
X210186904Y-50228390D02*
X209615476Y-50799819D01*
X209615476Y-50799819D02*
X210234523Y-50799819D01*
X208285714Y-72454819D02*
X208857142Y-72454819D01*
X208571428Y-73454819D02*
X208571428Y-72454819D01*
X209190476Y-73454819D02*
X209190476Y-72454819D01*
X209190476Y-72454819D02*
X209523809Y-73169104D01*
X209523809Y-73169104D02*
X209857142Y-72454819D01*
X209857142Y-72454819D02*
X209857142Y-73454819D01*
X210904761Y-73359580D02*
X210857142Y-73407200D01*
X210857142Y-73407200D02*
X210714285Y-73454819D01*
X210714285Y-73454819D02*
X210619047Y-73454819D01*
X210619047Y-73454819D02*
X210476190Y-73407200D01*
X210476190Y-73407200D02*
X210380952Y-73311961D01*
X210380952Y-73311961D02*
X210333333Y-73216723D01*
X210333333Y-73216723D02*
X210285714Y-73026247D01*
X210285714Y-73026247D02*
X210285714Y-72883390D01*
X210285714Y-72883390D02*
X210333333Y-72692914D01*
X210333333Y-72692914D02*
X210380952Y-72597676D01*
X210380952Y-72597676D02*
X210476190Y-72502438D01*
X210476190Y-72502438D02*
X210619047Y-72454819D01*
X210619047Y-72454819D02*
X210714285Y-72454819D01*
X210714285Y-72454819D02*
X210857142Y-72502438D01*
X210857142Y-72502438D02*
X210904761Y-72550057D01*
X211285714Y-72550057D02*
X211333333Y-72502438D01*
X211333333Y-72502438D02*
X211428571Y-72454819D01*
X211428571Y-72454819D02*
X211666666Y-72454819D01*
X211666666Y-72454819D02*
X211761904Y-72502438D01*
X211761904Y-72502438D02*
X211809523Y-72550057D01*
X211809523Y-72550057D02*
X211857142Y-72645295D01*
X211857142Y-72645295D02*
X211857142Y-72740533D01*
X211857142Y-72740533D02*
X211809523Y-72883390D01*
X211809523Y-72883390D02*
X211238095Y-73454819D01*
X211238095Y-73454819D02*
X211857142Y-73454819D01*
X212238095Y-72550057D02*
X212285714Y-72502438D01*
X212285714Y-72502438D02*
X212380952Y-72454819D01*
X212380952Y-72454819D02*
X212619047Y-72454819D01*
X212619047Y-72454819D02*
X212714285Y-72502438D01*
X212714285Y-72502438D02*
X212761904Y-72550057D01*
X212761904Y-72550057D02*
X212809523Y-72645295D01*
X212809523Y-72645295D02*
X212809523Y-72740533D01*
X212809523Y-72740533D02*
X212761904Y-72883390D01*
X212761904Y-72883390D02*
X212190476Y-73454819D01*
X212190476Y-73454819D02*
X212809523Y-73454819D01*
X213428571Y-72454819D02*
X213523809Y-72454819D01*
X213523809Y-72454819D02*
X213619047Y-72502438D01*
X213619047Y-72502438D02*
X213666666Y-72550057D01*
X213666666Y-72550057D02*
X213714285Y-72645295D01*
X213714285Y-72645295D02*
X213761904Y-72835771D01*
X213761904Y-72835771D02*
X213761904Y-73073866D01*
X213761904Y-73073866D02*
X213714285Y-73264342D01*
X213714285Y-73264342D02*
X213666666Y-73359580D01*
X213666666Y-73359580D02*
X213619047Y-73407200D01*
X213619047Y-73407200D02*
X213523809Y-73454819D01*
X213523809Y-73454819D02*
X213428571Y-73454819D01*
X213428571Y-73454819D02*
X213333333Y-73407200D01*
X213333333Y-73407200D02*
X213285714Y-73359580D01*
X213285714Y-73359580D02*
X213238095Y-73264342D01*
X213238095Y-73264342D02*
X213190476Y-73073866D01*
X213190476Y-73073866D02*
X213190476Y-72835771D01*
X213190476Y-72835771D02*
X213238095Y-72645295D01*
X213238095Y-72645295D02*
X213285714Y-72550057D01*
X213285714Y-72550057D02*
X213333333Y-72502438D01*
X213333333Y-72502438D02*
X213428571Y-72454819D01*
X214238095Y-73454819D02*
X214428571Y-73454819D01*
X214428571Y-73454819D02*
X214523809Y-73407200D01*
X214523809Y-73407200D02*
X214571428Y-73359580D01*
X214571428Y-73359580D02*
X214666666Y-73216723D01*
X214666666Y-73216723D02*
X214714285Y-73026247D01*
X214714285Y-73026247D02*
X214714285Y-72645295D01*
X214714285Y-72645295D02*
X214666666Y-72550057D01*
X214666666Y-72550057D02*
X214619047Y-72502438D01*
X214619047Y-72502438D02*
X214523809Y-72454819D01*
X214523809Y-72454819D02*
X214333333Y-72454819D01*
X214333333Y-72454819D02*
X214238095Y-72502438D01*
X214238095Y-72502438D02*
X214190476Y-72550057D01*
X214190476Y-72550057D02*
X214142857Y-72645295D01*
X214142857Y-72645295D02*
X214142857Y-72883390D01*
X214142857Y-72883390D02*
X214190476Y-72978628D01*
X214190476Y-72978628D02*
X214238095Y-73026247D01*
X214238095Y-73026247D02*
X214333333Y-73073866D01*
X214333333Y-73073866D02*
X214523809Y-73073866D01*
X214523809Y-73073866D02*
X214619047Y-73026247D01*
X214619047Y-73026247D02*
X214666666Y-72978628D01*
X214666666Y-72978628D02*
X214714285Y-72883390D01*
X215904762Y-72788152D02*
X215904762Y-73788152D01*
X215904762Y-72835771D02*
X216000000Y-72788152D01*
X216000000Y-72788152D02*
X216190476Y-72788152D01*
X216190476Y-72788152D02*
X216285714Y-72835771D01*
X216285714Y-72835771D02*
X216333333Y-72883390D01*
X216333333Y-72883390D02*
X216380952Y-72978628D01*
X216380952Y-72978628D02*
X216380952Y-73264342D01*
X216380952Y-73264342D02*
X216333333Y-73359580D01*
X216333333Y-73359580D02*
X216285714Y-73407200D01*
X216285714Y-73407200D02*
X216190476Y-73454819D01*
X216190476Y-73454819D02*
X216000000Y-73454819D01*
X216000000Y-73454819D02*
X215904762Y-73407200D01*
X216809524Y-73454819D02*
X216809524Y-72788152D01*
X216809524Y-72454819D02*
X216761905Y-72502438D01*
X216761905Y-72502438D02*
X216809524Y-72550057D01*
X216809524Y-72550057D02*
X216857143Y-72502438D01*
X216857143Y-72502438D02*
X216809524Y-72454819D01*
X216809524Y-72454819D02*
X216809524Y-72550057D01*
X217285714Y-72788152D02*
X217285714Y-73454819D01*
X217285714Y-72883390D02*
X217333333Y-72835771D01*
X217333333Y-72835771D02*
X217428571Y-72788152D01*
X217428571Y-72788152D02*
X217571428Y-72788152D01*
X217571428Y-72788152D02*
X217666666Y-72835771D01*
X217666666Y-72835771D02*
X217714285Y-72931009D01*
X217714285Y-72931009D02*
X217714285Y-73454819D01*
X217952381Y-73550057D02*
X218714285Y-73550057D01*
X218952381Y-73454819D02*
X218952381Y-72788152D01*
X218952381Y-72978628D02*
X219000000Y-72883390D01*
X219000000Y-72883390D02*
X219047619Y-72835771D01*
X219047619Y-72835771D02*
X219142857Y-72788152D01*
X219142857Y-72788152D02*
X219238095Y-72788152D01*
X219714286Y-73454819D02*
X219619048Y-73407200D01*
X219619048Y-73407200D02*
X219571429Y-73359580D01*
X219571429Y-73359580D02*
X219523810Y-73264342D01*
X219523810Y-73264342D02*
X219523810Y-72978628D01*
X219523810Y-72978628D02*
X219571429Y-72883390D01*
X219571429Y-72883390D02*
X219619048Y-72835771D01*
X219619048Y-72835771D02*
X219714286Y-72788152D01*
X219714286Y-72788152D02*
X219857143Y-72788152D01*
X219857143Y-72788152D02*
X219952381Y-72835771D01*
X219952381Y-72835771D02*
X220000000Y-72883390D01*
X220000000Y-72883390D02*
X220047619Y-72978628D01*
X220047619Y-72978628D02*
X220047619Y-73264342D01*
X220047619Y-73264342D02*
X220000000Y-73359580D01*
X220000000Y-73359580D02*
X219952381Y-73407200D01*
X219952381Y-73407200D02*
X219857143Y-73454819D01*
X219857143Y-73454819D02*
X219714286Y-73454819D01*
X220333334Y-72788152D02*
X220714286Y-72788152D01*
X220476191Y-72454819D02*
X220476191Y-73311961D01*
X220476191Y-73311961D02*
X220523810Y-73407200D01*
X220523810Y-73407200D02*
X220619048Y-73454819D01*
X220619048Y-73454819D02*
X220714286Y-73454819D01*
D11*
X223190476Y-61955859D02*
X223190476Y-60955859D01*
X223190476Y-60955859D02*
X223523809Y-61670144D01*
X223523809Y-61670144D02*
X223857142Y-60955859D01*
X223857142Y-60955859D02*
X223857142Y-61955859D01*
X224285714Y-61051097D02*
X224333333Y-61003478D01*
X224333333Y-61003478D02*
X224428571Y-60955859D01*
X224428571Y-60955859D02*
X224666666Y-60955859D01*
X224666666Y-60955859D02*
X224761904Y-61003478D01*
X224761904Y-61003478D02*
X224809523Y-61051097D01*
X224809523Y-61051097D02*
X224857142Y-61146335D01*
X224857142Y-61146335D02*
X224857142Y-61241573D01*
X224857142Y-61241573D02*
X224809523Y-61384430D01*
X224809523Y-61384430D02*
X224238095Y-61955859D01*
X224238095Y-61955859D02*
X224857142Y-61955859D01*
D14*
X222666666Y-50288152D02*
X222666666Y-51288152D01*
X222666666Y-50335771D02*
X222761904Y-50288152D01*
X222761904Y-50288152D02*
X222952380Y-50288152D01*
X222952380Y-50288152D02*
X223047618Y-50335771D01*
X223047618Y-50335771D02*
X223095237Y-50383390D01*
X223095237Y-50383390D02*
X223142856Y-50478628D01*
X223142856Y-50478628D02*
X223142856Y-50764342D01*
X223142856Y-50764342D02*
X223095237Y-50859580D01*
X223095237Y-50859580D02*
X223047618Y-50907200D01*
X223047618Y-50907200D02*
X222952380Y-50954819D01*
X222952380Y-50954819D02*
X222761904Y-50954819D01*
X222761904Y-50954819D02*
X222666666Y-50907200D01*
X223571428Y-50954819D02*
X223571428Y-50288152D01*
X223571428Y-49954819D02*
X223523809Y-50002438D01*
X223523809Y-50002438D02*
X223571428Y-50050057D01*
X223571428Y-50050057D02*
X223619047Y-50002438D01*
X223619047Y-50002438D02*
X223571428Y-49954819D01*
X223571428Y-49954819D02*
X223571428Y-50050057D01*
X224047618Y-50288152D02*
X224047618Y-50954819D01*
X224047618Y-50383390D02*
X224095237Y-50335771D01*
X224095237Y-50335771D02*
X224190475Y-50288152D01*
X224190475Y-50288152D02*
X224333332Y-50288152D01*
X224333332Y-50288152D02*
X224428570Y-50335771D01*
X224428570Y-50335771D02*
X224476189Y-50431009D01*
X224476189Y-50431009D02*
X224476189Y-50954819D01*
X224714285Y-51050057D02*
X225476189Y-51050057D01*
X225714285Y-50954819D02*
X225714285Y-50288152D01*
X225714285Y-50478628D02*
X225761904Y-50383390D01*
X225761904Y-50383390D02*
X225809523Y-50335771D01*
X225809523Y-50335771D02*
X225904761Y-50288152D01*
X225904761Y-50288152D02*
X225999999Y-50288152D01*
X226476190Y-50954819D02*
X226380952Y-50907200D01*
X226380952Y-50907200D02*
X226333333Y-50859580D01*
X226333333Y-50859580D02*
X226285714Y-50764342D01*
X226285714Y-50764342D02*
X226285714Y-50478628D01*
X226285714Y-50478628D02*
X226333333Y-50383390D01*
X226333333Y-50383390D02*
X226380952Y-50335771D01*
X226380952Y-50335771D02*
X226476190Y-50288152D01*
X226476190Y-50288152D02*
X226619047Y-50288152D01*
X226619047Y-50288152D02*
X226714285Y-50335771D01*
X226714285Y-50335771D02*
X226761904Y-50383390D01*
X226761904Y-50383390D02*
X226809523Y-50478628D01*
X226809523Y-50478628D02*
X226809523Y-50764342D01*
X226809523Y-50764342D02*
X226761904Y-50859580D01*
X226761904Y-50859580D02*
X226714285Y-50907200D01*
X226714285Y-50907200D02*
X226619047Y-50954819D01*
X226619047Y-50954819D02*
X226476190Y-50954819D01*
X227095238Y-50288152D02*
X227476190Y-50288152D01*
X227238095Y-49954819D02*
X227238095Y-50811961D01*
X227238095Y-50811961D02*
X227285714Y-50907200D01*
X227285714Y-50907200D02*
X227380952Y-50954819D01*
X227380952Y-50954819D02*
X227476190Y-50954819D01*
D11*
X208261904Y-44955859D02*
X208261904Y-43955859D01*
X208261904Y-43955859D02*
X208642856Y-43955859D01*
X208642856Y-43955859D02*
X208738094Y-44003478D01*
X208738094Y-44003478D02*
X208785713Y-44051097D01*
X208785713Y-44051097D02*
X208833332Y-44146335D01*
X208833332Y-44146335D02*
X208833332Y-44289192D01*
X208833332Y-44289192D02*
X208785713Y-44384430D01*
X208785713Y-44384430D02*
X208738094Y-44432049D01*
X208738094Y-44432049D02*
X208642856Y-44479668D01*
X208642856Y-44479668D02*
X208261904Y-44479668D01*
X209404761Y-44955859D02*
X209309523Y-44908240D01*
X209309523Y-44908240D02*
X209261904Y-44860620D01*
X209261904Y-44860620D02*
X209214285Y-44765382D01*
X209214285Y-44765382D02*
X209214285Y-44479668D01*
X209214285Y-44479668D02*
X209261904Y-44384430D01*
X209261904Y-44384430D02*
X209309523Y-44336811D01*
X209309523Y-44336811D02*
X209404761Y-44289192D01*
X209404761Y-44289192D02*
X209547618Y-44289192D01*
X209547618Y-44289192D02*
X209642856Y-44336811D01*
X209642856Y-44336811D02*
X209690475Y-44384430D01*
X209690475Y-44384430D02*
X209738094Y-44479668D01*
X209738094Y-44479668D02*
X209738094Y-44765382D01*
X209738094Y-44765382D02*
X209690475Y-44860620D01*
X209690475Y-44860620D02*
X209642856Y-44908240D01*
X209642856Y-44908240D02*
X209547618Y-44955859D01*
X209547618Y-44955859D02*
X209404761Y-44955859D01*
X210071428Y-44289192D02*
X210261904Y-44955859D01*
X210261904Y-44955859D02*
X210452380Y-44479668D01*
X210452380Y-44479668D02*
X210642856Y-44955859D01*
X210642856Y-44955859D02*
X210833332Y-44289192D01*
X211595237Y-44908240D02*
X211499999Y-44955859D01*
X211499999Y-44955859D02*
X211309523Y-44955859D01*
X211309523Y-44955859D02*
X211214285Y-44908240D01*
X211214285Y-44908240D02*
X211166666Y-44813001D01*
X211166666Y-44813001D02*
X211166666Y-44432049D01*
X211166666Y-44432049D02*
X211214285Y-44336811D01*
X211214285Y-44336811D02*
X211309523Y-44289192D01*
X211309523Y-44289192D02*
X211499999Y-44289192D01*
X211499999Y-44289192D02*
X211595237Y-44336811D01*
X211595237Y-44336811D02*
X211642856Y-44432049D01*
X211642856Y-44432049D02*
X211642856Y-44527287D01*
X211642856Y-44527287D02*
X211166666Y-44622525D01*
X212071428Y-44955859D02*
X212071428Y-44289192D01*
X212071428Y-44479668D02*
X212119047Y-44384430D01*
X212119047Y-44384430D02*
X212166666Y-44336811D01*
X212166666Y-44336811D02*
X212261904Y-44289192D01*
X212261904Y-44289192D02*
X212357142Y-44289192D01*
X213976190Y-44955859D02*
X213404762Y-44955859D01*
X213690476Y-44955859D02*
X213690476Y-43955859D01*
X213690476Y-43955859D02*
X213595238Y-44098716D01*
X213595238Y-44098716D02*
X213500000Y-44193954D01*
X213500000Y-44193954D02*
X213404762Y-44241573D01*
X214357143Y-44051097D02*
X214404762Y-44003478D01*
X214404762Y-44003478D02*
X214500000Y-43955859D01*
X214500000Y-43955859D02*
X214738095Y-43955859D01*
X214738095Y-43955859D02*
X214833333Y-44003478D01*
X214833333Y-44003478D02*
X214880952Y-44051097D01*
X214880952Y-44051097D02*
X214928571Y-44146335D01*
X214928571Y-44146335D02*
X214928571Y-44241573D01*
X214928571Y-44241573D02*
X214880952Y-44384430D01*
X214880952Y-44384430D02*
X214309524Y-44955859D01*
X214309524Y-44955859D02*
X214928571Y-44955859D01*
X215214286Y-43955859D02*
X215547619Y-44955859D01*
X215547619Y-44955859D02*
X215880952Y-43955859D01*
X182738095Y-105908240D02*
X182880952Y-105955859D01*
X182880952Y-105955859D02*
X183119047Y-105955859D01*
X183119047Y-105955859D02*
X183214285Y-105908240D01*
X183214285Y-105908240D02*
X183261904Y-105860620D01*
X183261904Y-105860620D02*
X183309523Y-105765382D01*
X183309523Y-105765382D02*
X183309523Y-105670144D01*
X183309523Y-105670144D02*
X183261904Y-105574906D01*
X183261904Y-105574906D02*
X183214285Y-105527287D01*
X183214285Y-105527287D02*
X183119047Y-105479668D01*
X183119047Y-105479668D02*
X182928571Y-105432049D01*
X182928571Y-105432049D02*
X182833333Y-105384430D01*
X182833333Y-105384430D02*
X182785714Y-105336811D01*
X182785714Y-105336811D02*
X182738095Y-105241573D01*
X182738095Y-105241573D02*
X182738095Y-105146335D01*
X182738095Y-105146335D02*
X182785714Y-105051097D01*
X182785714Y-105051097D02*
X182833333Y-105003478D01*
X182833333Y-105003478D02*
X182928571Y-104955859D01*
X182928571Y-104955859D02*
X183166666Y-104955859D01*
X183166666Y-104955859D02*
X183309523Y-105003478D01*
X184261904Y-105955859D02*
X183690476Y-105955859D01*
X183976190Y-105955859D02*
X183976190Y-104955859D01*
X183976190Y-104955859D02*
X183880952Y-105098716D01*
X183880952Y-105098716D02*
X183785714Y-105193954D01*
X183785714Y-105193954D02*
X183690476Y-105241573D01*
D14*
X172809523Y-100954819D02*
X172809523Y-99954819D01*
X173380951Y-100954819D02*
X172952380Y-100383390D01*
X173380951Y-99954819D02*
X172809523Y-100526247D01*
X174190475Y-100907200D02*
X174095237Y-100954819D01*
X174095237Y-100954819D02*
X173904761Y-100954819D01*
X173904761Y-100954819D02*
X173809523Y-100907200D01*
X173809523Y-100907200D02*
X173761904Y-100811961D01*
X173761904Y-100811961D02*
X173761904Y-100431009D01*
X173761904Y-100431009D02*
X173809523Y-100335771D01*
X173809523Y-100335771D02*
X173904761Y-100288152D01*
X173904761Y-100288152D02*
X174095237Y-100288152D01*
X174095237Y-100288152D02*
X174190475Y-100335771D01*
X174190475Y-100335771D02*
X174238094Y-100431009D01*
X174238094Y-100431009D02*
X174238094Y-100526247D01*
X174238094Y-100526247D02*
X173761904Y-100621485D01*
X174571428Y-100288152D02*
X174809523Y-100954819D01*
X175047618Y-100288152D02*
X174809523Y-100954819D01*
X174809523Y-100954819D02*
X174714285Y-101192914D01*
X174714285Y-101192914D02*
X174666666Y-101240533D01*
X174666666Y-101240533D02*
X174571428Y-101288152D01*
X175428571Y-100288152D02*
X175428571Y-101288152D01*
X175428571Y-100335771D02*
X175523809Y-100288152D01*
X175523809Y-100288152D02*
X175714285Y-100288152D01*
X175714285Y-100288152D02*
X175809523Y-100335771D01*
X175809523Y-100335771D02*
X175857142Y-100383390D01*
X175857142Y-100383390D02*
X175904761Y-100478628D01*
X175904761Y-100478628D02*
X175904761Y-100764342D01*
X175904761Y-100764342D02*
X175857142Y-100859580D01*
X175857142Y-100859580D02*
X175809523Y-100907200D01*
X175809523Y-100907200D02*
X175714285Y-100954819D01*
X175714285Y-100954819D02*
X175523809Y-100954819D01*
X175523809Y-100954819D02*
X175428571Y-100907200D01*
X176761904Y-100954819D02*
X176761904Y-100431009D01*
X176761904Y-100431009D02*
X176714285Y-100335771D01*
X176714285Y-100335771D02*
X176619047Y-100288152D01*
X176619047Y-100288152D02*
X176428571Y-100288152D01*
X176428571Y-100288152D02*
X176333333Y-100335771D01*
X176761904Y-100907200D02*
X176666666Y-100954819D01*
X176666666Y-100954819D02*
X176428571Y-100954819D01*
X176428571Y-100954819D02*
X176333333Y-100907200D01*
X176333333Y-100907200D02*
X176285714Y-100811961D01*
X176285714Y-100811961D02*
X176285714Y-100716723D01*
X176285714Y-100716723D02*
X176333333Y-100621485D01*
X176333333Y-100621485D02*
X176428571Y-100573866D01*
X176428571Y-100573866D02*
X176666666Y-100573866D01*
X176666666Y-100573866D02*
X176761904Y-100526247D01*
X177666666Y-100954819D02*
X177666666Y-99954819D01*
X177666666Y-100907200D02*
X177571428Y-100954819D01*
X177571428Y-100954819D02*
X177380952Y-100954819D01*
X177380952Y-100954819D02*
X177285714Y-100907200D01*
X177285714Y-100907200D02*
X177238095Y-100859580D01*
X177238095Y-100859580D02*
X177190476Y-100764342D01*
X177190476Y-100764342D02*
X177190476Y-100478628D01*
X177190476Y-100478628D02*
X177238095Y-100383390D01*
X177238095Y-100383390D02*
X177285714Y-100335771D01*
X177285714Y-100335771D02*
X177380952Y-100288152D01*
X177380952Y-100288152D02*
X177571428Y-100288152D01*
X177571428Y-100288152D02*
X177666666Y-100335771D01*
X177904762Y-101050057D02*
X178666666Y-101050057D01*
X179476190Y-100954819D02*
X179142857Y-100478628D01*
X178904762Y-100954819D02*
X178904762Y-99954819D01*
X178904762Y-99954819D02*
X179285714Y-99954819D01*
X179285714Y-99954819D02*
X179380952Y-100002438D01*
X179380952Y-100002438D02*
X179428571Y-100050057D01*
X179428571Y-100050057D02*
X179476190Y-100145295D01*
X179476190Y-100145295D02*
X179476190Y-100288152D01*
X179476190Y-100288152D02*
X179428571Y-100383390D01*
X179428571Y-100383390D02*
X179380952Y-100431009D01*
X179380952Y-100431009D02*
X179285714Y-100478628D01*
X179285714Y-100478628D02*
X178904762Y-100478628D01*
X180047619Y-100954819D02*
X179952381Y-100907200D01*
X179952381Y-100907200D02*
X179904762Y-100859580D01*
X179904762Y-100859580D02*
X179857143Y-100764342D01*
X179857143Y-100764342D02*
X179857143Y-100478628D01*
X179857143Y-100478628D02*
X179904762Y-100383390D01*
X179904762Y-100383390D02*
X179952381Y-100335771D01*
X179952381Y-100335771D02*
X180047619Y-100288152D01*
X180047619Y-100288152D02*
X180190476Y-100288152D01*
X180190476Y-100288152D02*
X180285714Y-100335771D01*
X180285714Y-100335771D02*
X180333333Y-100383390D01*
X180333333Y-100383390D02*
X180380952Y-100478628D01*
X180380952Y-100478628D02*
X180380952Y-100764342D01*
X180380952Y-100764342D02*
X180333333Y-100859580D01*
X180333333Y-100859580D02*
X180285714Y-100907200D01*
X180285714Y-100907200D02*
X180190476Y-100954819D01*
X180190476Y-100954819D02*
X180047619Y-100954819D01*
X180714286Y-100288152D02*
X180904762Y-100954819D01*
X180904762Y-100954819D02*
X181095238Y-100478628D01*
X181095238Y-100478628D02*
X181285714Y-100954819D01*
X181285714Y-100954819D02*
X181476190Y-100288152D01*
X181809524Y-100907200D02*
X181904762Y-100954819D01*
X181904762Y-100954819D02*
X182095238Y-100954819D01*
X182095238Y-100954819D02*
X182190476Y-100907200D01*
X182190476Y-100907200D02*
X182238095Y-100811961D01*
X182238095Y-100811961D02*
X182238095Y-100764342D01*
X182238095Y-100764342D02*
X182190476Y-100669104D01*
X182190476Y-100669104D02*
X182095238Y-100621485D01*
X182095238Y-100621485D02*
X181952381Y-100621485D01*
X181952381Y-100621485D02*
X181857143Y-100573866D01*
X181857143Y-100573866D02*
X181809524Y-100478628D01*
X181809524Y-100478628D02*
X181809524Y-100431009D01*
X181809524Y-100431009D02*
X181857143Y-100335771D01*
X181857143Y-100335771D02*
X181952381Y-100288152D01*
X181952381Y-100288152D02*
X182095238Y-100288152D01*
X182095238Y-100288152D02*
X182190476Y-100335771D01*
X206426660Y-100284104D02*
X206902850Y-100284104D01*
X206331422Y-100569819D02*
X206664755Y-99569819D01*
X206664755Y-99569819D02*
X206998088Y-100569819D01*
X207855231Y-100569819D02*
X207283803Y-100569819D01*
X207569517Y-100569819D02*
X207569517Y-99569819D01*
X207569517Y-99569819D02*
X207474279Y-99712676D01*
X207474279Y-99712676D02*
X207379041Y-99807914D01*
X207379041Y-99807914D02*
X207283803Y-99855533D01*
X192199523Y-103744819D02*
X191866190Y-103268628D01*
X191628095Y-103744819D02*
X191628095Y-102744819D01*
X191628095Y-102744819D02*
X192009047Y-102744819D01*
X192009047Y-102744819D02*
X192104285Y-102792438D01*
X192104285Y-102792438D02*
X192151904Y-102840057D01*
X192151904Y-102840057D02*
X192199523Y-102935295D01*
X192199523Y-102935295D02*
X192199523Y-103078152D01*
X192199523Y-103078152D02*
X192151904Y-103173390D01*
X192151904Y-103173390D02*
X192104285Y-103221009D01*
X192104285Y-103221009D02*
X192009047Y-103268628D01*
X192009047Y-103268628D02*
X191628095Y-103268628D01*
X192628095Y-103744819D02*
X192628095Y-102744819D01*
X192628095Y-102744819D02*
X193009047Y-102744819D01*
X193009047Y-102744819D02*
X193104285Y-102792438D01*
X193104285Y-102792438D02*
X193151904Y-102840057D01*
X193151904Y-102840057D02*
X193199523Y-102935295D01*
X193199523Y-102935295D02*
X193199523Y-103078152D01*
X193199523Y-103078152D02*
X193151904Y-103173390D01*
X193151904Y-103173390D02*
X193104285Y-103221009D01*
X193104285Y-103221009D02*
X193009047Y-103268628D01*
X193009047Y-103268628D02*
X192628095Y-103268628D01*
X193390000Y-103840057D02*
X194151904Y-103840057D01*
X194390000Y-103744819D02*
X194390000Y-102744819D01*
X194390000Y-102744819D02*
X194770952Y-102744819D01*
X194770952Y-102744819D02*
X194866190Y-102792438D01*
X194866190Y-102792438D02*
X194913809Y-102840057D01*
X194913809Y-102840057D02*
X194961428Y-102935295D01*
X194961428Y-102935295D02*
X194961428Y-103078152D01*
X194961428Y-103078152D02*
X194913809Y-103173390D01*
X194913809Y-103173390D02*
X194866190Y-103221009D01*
X194866190Y-103221009D02*
X194770952Y-103268628D01*
X194770952Y-103268628D02*
X194390000Y-103268628D01*
X195390000Y-103744819D02*
X195390000Y-103078152D01*
X195390000Y-102744819D02*
X195342381Y-102792438D01*
X195342381Y-102792438D02*
X195390000Y-102840057D01*
X195390000Y-102840057D02*
X195437619Y-102792438D01*
X195437619Y-102792438D02*
X195390000Y-102744819D01*
X195390000Y-102744819D02*
X195390000Y-102840057D01*
X196294761Y-103697200D02*
X196199523Y-103744819D01*
X196199523Y-103744819D02*
X196009047Y-103744819D01*
X196009047Y-103744819D02*
X195913809Y-103697200D01*
X195913809Y-103697200D02*
X195866190Y-103649580D01*
X195866190Y-103649580D02*
X195818571Y-103554342D01*
X195818571Y-103554342D02*
X195818571Y-103268628D01*
X195818571Y-103268628D02*
X195866190Y-103173390D01*
X195866190Y-103173390D02*
X195913809Y-103125771D01*
X195913809Y-103125771D02*
X196009047Y-103078152D01*
X196009047Y-103078152D02*
X196199523Y-103078152D01*
X196199523Y-103078152D02*
X196294761Y-103125771D01*
X196866190Y-103744819D02*
X196770952Y-103697200D01*
X196770952Y-103697200D02*
X196723333Y-103649580D01*
X196723333Y-103649580D02*
X196675714Y-103554342D01*
X196675714Y-103554342D02*
X196675714Y-103268628D01*
X196675714Y-103268628D02*
X196723333Y-103173390D01*
X196723333Y-103173390D02*
X196770952Y-103125771D01*
X196770952Y-103125771D02*
X196866190Y-103078152D01*
X196866190Y-103078152D02*
X197009047Y-103078152D01*
X197009047Y-103078152D02*
X197104285Y-103125771D01*
X197104285Y-103125771D02*
X197151904Y-103173390D01*
X197151904Y-103173390D02*
X197199523Y-103268628D01*
X197199523Y-103268628D02*
X197199523Y-103554342D01*
X197199523Y-103554342D02*
X197151904Y-103649580D01*
X197151904Y-103649580D02*
X197104285Y-103697200D01*
X197104285Y-103697200D02*
X197009047Y-103744819D01*
X197009047Y-103744819D02*
X196866190Y-103744819D01*
D15*
%TO.C,U1*%
X166230000Y-50950000D02*
X181470000Y-50950000D01*
X166230000Y-71270000D02*
X166230000Y-50950000D01*
X181470000Y-50950000D02*
X181470000Y-71270000D01*
X181470000Y-71270000D02*
X166230000Y-71270000D01*
D16*
X165750000Y-52220000D02*
G75*
G02*
X165550000Y-52220000I-100000J0D01*
G01*
X165550000Y-52220000D02*
G75*
G02*
X165750000Y-52220000I100000J0D01*
G01*
D17*
%TO.C,S2*%
X206199981Y-105600000D02*
X206200019Y-102400000D01*
X206200019Y-102400000D02*
X215000000Y-102400000D01*
X215000000Y-102400000D02*
X215000000Y-105600000D01*
X215000000Y-105600000D02*
X206199981Y-105600000D01*
%TO.C,M1*%
X161900000Y-51199981D02*
X165100000Y-51200019D01*
X161900000Y-60000000D02*
X161900000Y-51199981D01*
X165100000Y-51200019D02*
X165100000Y-60000000D01*
X165100000Y-60000000D02*
X161900000Y-60000000D01*
%TO.C,DS1*%
X174699981Y-48600000D02*
X174700019Y-45400000D01*
X174700019Y-45400000D02*
X183500000Y-45400000D01*
X183500000Y-45400000D02*
X183500000Y-48600000D01*
X183500000Y-48600000D02*
X174699981Y-48600000D01*
D15*
%TO.C,U2*%
X206880000Y-51340000D02*
X222120000Y-51340000D01*
X206880000Y-71660000D02*
X206880000Y-51340000D01*
X222120000Y-51340000D02*
X222120000Y-71660000D01*
X222120000Y-71660000D02*
X206880000Y-71660000D01*
D16*
X206400000Y-52610000D02*
G75*
G02*
X206200000Y-52610000I-100000J0D01*
G01*
X206200000Y-52610000D02*
G75*
G02*
X206400000Y-52610000I100000J0D01*
G01*
D17*
%TO.C,M2*%
X223400000Y-51699981D02*
X226600000Y-51700019D01*
X223400000Y-60500000D02*
X223400000Y-51699981D01*
X226600000Y-51700019D02*
X226600000Y-60500000D01*
X226600000Y-60500000D02*
X223400000Y-60500000D01*
%TO.C,Power 12V*%
X207699981Y-48600000D02*
X207700019Y-45400000D01*
X207700019Y-45400000D02*
X216500000Y-45400000D01*
X216500000Y-45400000D02*
X216500000Y-48600000D01*
X216500000Y-48600000D02*
X207699981Y-48600000D01*
%TO.C,S1*%
X173199981Y-105100000D02*
X173200019Y-101900000D01*
X173200019Y-101900000D02*
X182000000Y-101900000D01*
X182000000Y-101900000D02*
X182000000Y-105100000D01*
X182000000Y-105100000D02*
X173199981Y-105100000D01*
D18*
%TO.C,A1*%
X183780000Y-52280000D02*
X183300000Y-52280000D01*
X183780000Y-52280000D02*
X183780000Y-52700000D01*
X183780000Y-54820000D02*
X183780000Y-55240000D01*
X183780000Y-57360000D02*
X183780000Y-57780000D01*
X183780000Y-59900000D02*
X183780000Y-60320000D01*
X183780000Y-62440000D02*
X183780000Y-62860000D01*
X183780000Y-64980000D02*
X183780000Y-65400000D01*
X183780000Y-67520000D02*
X183780000Y-67940000D01*
X183780000Y-70060000D02*
X183780000Y-70480000D01*
X183780000Y-72600000D02*
X183780000Y-73020000D01*
X183780000Y-75140000D02*
X183780000Y-75560000D01*
X183780000Y-77680000D02*
X183780000Y-78100000D01*
X183780000Y-80220000D02*
X183780000Y-80640000D01*
X183780000Y-82760000D02*
X183780000Y-83180000D01*
X183780000Y-85300000D02*
X183780000Y-85720000D01*
X183780000Y-87840000D02*
X183780000Y-88260000D01*
X183780000Y-90380000D02*
X183780000Y-90800000D01*
X183780000Y-92920000D02*
X183780000Y-93340000D01*
X183780000Y-95460000D02*
X183780000Y-95880000D01*
X183780000Y-98000000D02*
X183780000Y-98420000D01*
X183810324Y-50160000D02*
X183300000Y-50160000D01*
X184120000Y-50160063D02*
X184120000Y-49803000D01*
X184120000Y-52280000D02*
X184120000Y-52700000D01*
X184120000Y-54820000D02*
X184120000Y-55240000D01*
X184120000Y-57360000D02*
X184120000Y-57780000D01*
X184120000Y-59900000D02*
X184120000Y-60320000D01*
X184120000Y-62440000D02*
X184120000Y-62860000D01*
X184120000Y-64980000D02*
X184120000Y-65400000D01*
X184120000Y-67520000D02*
X184120000Y-67940000D01*
X184120000Y-70060000D02*
X184120000Y-70480000D01*
X184120000Y-72600000D02*
X184120000Y-73020000D01*
X184120000Y-75140000D02*
X184120000Y-75560000D01*
X184120000Y-77680000D02*
X184120000Y-78100000D01*
X184120000Y-80220000D02*
X184120000Y-80640000D01*
X184120000Y-82760000D02*
X184120000Y-83180000D01*
X184120000Y-85300000D02*
X184120000Y-85720000D01*
X184120000Y-87840000D02*
X184120000Y-88260000D01*
X184120000Y-90380000D02*
X184120000Y-90800000D01*
X184120000Y-92920000D02*
X184120000Y-93340000D01*
X184120000Y-95460000D02*
X184120000Y-95880000D01*
X184120000Y-98000000D02*
X184120000Y-98420000D01*
X184120000Y-100539937D02*
X184120000Y-100897000D01*
X184390000Y-49740000D02*
X186880000Y-49740000D01*
X184390000Y-100960000D02*
X188227939Y-100960000D01*
X186880000Y-49740000D02*
X186880000Y-50653520D01*
X186880000Y-49740000D02*
X188227940Y-49740000D01*
X186880000Y-53046480D02*
X186880000Y-97653520D01*
X186880000Y-100046480D02*
X186880000Y-100960000D01*
X189152061Y-49740000D02*
X190155000Y-49740000D01*
X190155000Y-49740000D02*
X198625000Y-49740000D01*
X190490000Y-49740000D02*
X190490000Y-50656000D01*
X190490000Y-53044000D02*
X190490000Y-54260000D01*
X190490000Y-54260000D02*
X190786090Y-54260000D01*
X190790000Y-100960000D02*
X189152061Y-100960000D01*
X193143910Y-54260000D02*
X195636090Y-54260000D01*
X197990000Y-100960000D02*
X190790000Y-100960000D01*
X197993910Y-54260000D02*
X198290000Y-54260000D01*
X198290000Y-49740000D02*
X198290000Y-50656000D01*
X198290000Y-53044000D02*
X198290000Y-54260000D01*
X198625000Y-49740000D02*
X199627939Y-49740000D01*
X199627939Y-100960000D02*
X197990000Y-100960000D01*
X200552061Y-49740000D02*
X201900000Y-49740000D01*
X200552061Y-100960000D02*
X204390000Y-100960000D01*
X201900000Y-49740000D02*
X201900000Y-50653520D01*
X201900000Y-53046480D02*
X201900000Y-97653520D01*
X201900000Y-100046480D02*
X201900000Y-100960000D01*
X204390000Y-49740000D02*
X201900000Y-49740000D01*
X204660000Y-50160063D02*
X204660000Y-49803000D01*
X204660000Y-52280000D02*
X204660000Y-52700000D01*
X204660000Y-54820000D02*
X204660000Y-55240000D01*
X204660000Y-57360000D02*
X204660000Y-57780000D01*
X204660000Y-59900000D02*
X204660000Y-60320000D01*
X204660000Y-62440000D02*
X204660000Y-62860000D01*
X204660000Y-64980000D02*
X204660000Y-65400000D01*
X204660000Y-67520000D02*
X204660000Y-67940000D01*
X204660000Y-70060000D02*
X204660000Y-70480000D01*
X204660000Y-72600000D02*
X204660000Y-73020000D01*
X204660000Y-75140000D02*
X204660000Y-75560000D01*
X204660000Y-77680000D02*
X204660000Y-78100000D01*
X204660000Y-80220000D02*
X204660000Y-80640000D01*
X204660000Y-82760000D02*
X204660000Y-83180000D01*
X204660000Y-85300000D02*
X204660000Y-85720000D01*
X204660000Y-87840000D02*
X204660000Y-88260000D01*
X204660000Y-90380000D02*
X204660000Y-90800000D01*
X204660000Y-92920000D02*
X204660000Y-93340000D01*
X204660000Y-95460000D02*
X204660000Y-95880000D01*
X204660000Y-98000000D02*
X204660000Y-98420000D01*
X204660000Y-100539937D02*
X204660000Y-100897000D01*
X205000000Y-52280000D02*
X205000000Y-52700000D01*
X205000000Y-54820000D02*
X205000000Y-55240000D01*
X205000000Y-57360000D02*
X205000000Y-57780000D01*
X205000000Y-59900000D02*
X205000000Y-60320000D01*
X205000000Y-62440000D02*
X205000000Y-62860000D01*
X205000000Y-64980000D02*
X205000000Y-65400000D01*
X205000000Y-67520000D02*
X205000000Y-67940000D01*
X205000000Y-70060000D02*
X205000000Y-70480000D01*
X205000000Y-72600000D02*
X205000000Y-73020000D01*
X205000000Y-75140000D02*
X205000000Y-75560000D01*
X205000000Y-77680000D02*
X205000000Y-78100000D01*
X205000000Y-80220000D02*
X205000000Y-80640000D01*
X205000000Y-82760000D02*
X205000000Y-83180000D01*
X205000000Y-85300000D02*
X205000000Y-85720000D01*
X205000000Y-87840000D02*
X205000000Y-88260000D01*
X205000000Y-90380000D02*
X205000000Y-90800000D01*
X205000000Y-92920000D02*
X205000000Y-93340000D01*
X205000000Y-95460000D02*
X205000000Y-95880000D01*
X205000000Y-98000000D02*
X205000000Y-98420000D01*
X183810324Y-50160000D02*
G75*
G02*
X184390000Y-49740000I579692J-190051D01*
G01*
X184390000Y-100960000D02*
G75*
G02*
X183810324Y-100539937I1J610002D01*
G01*
X204390000Y-49740000D02*
G75*
G02*
X204969676Y-50160063I0J-610000D01*
G01*
X204969676Y-100539937D02*
G75*
G02*
X204390000Y-100960069I-579676J189837D01*
G01*
%TD*%
M02*
