%TF.GenerationSoftware,KiCad,Pcbnew,9.0.7-1.fc42*%
%TF.CreationDate,2026-03-28T14:12:51-05:00*%
%TF.ProjectId,Dip_PCB,4469705f-5043-4422-9e6b-696361645f70,v1*%
%TF.SameCoordinates,Original*%
%TF.FileFunction,Soldermask,Top*%
%TF.FilePolarity,Negative*%
%FSLAX46Y46*%
G04 Gerber Fmt 4.6, Leading zero omitted, Abs format (unit mm)*
G04 Created by KiCad (PCBNEW 9.0.7-1.fc42) date 2026-03-28 14:12:51*
%MOMM*%
%LPD*%
G01*
G04 APERTURE LIST*
G04 Aperture macros list*
%AMRoundRect*
0 Rectangle with rounded corners*
0 $1 Rounding radius*
0 $2 $3 $4 $5 $6 $7 $8 $9 X,Y pos of 4 corners*
0 Add a 4 corners polygon primitive as box body*
4,1,4,$2,$3,$4,$5,$6,$7,$8,$9,$2,$3,0*
0 Add four circle primitives for the rounded corners*
1,1,$1+$1,$2,$3*
1,1,$1+$1,$4,$5*
1,1,$1+$1,$6,$7*
1,1,$1+$1,$8,$9*
0 Add four rect primitives between the rounded corners*
20,1,$1+$1,$2,$3,$4,$5,0*
20,1,$1+$1,$4,$5,$6,$7,0*
20,1,$1+$1,$6,$7,$8,$9,0*
20,1,$1+$1,$8,$9,$2,$3,0*%
%AMFreePoly0*
4,1,61,0.809300,0.846948,0.878414,0.846948,0.888325,0.845972,1.042139,0.815376,1.051668,0.812485,1.196557,0.752470,1.205340,0.747776,1.335738,0.660647,1.343436,0.654329,1.454329,0.543436,1.460647,0.535738,1.547776,0.405340,1.552470,0.396557,1.612485,0.251668,1.615376,0.242139,1.645972,0.088325,1.646948,0.078414,1.646948,-0.078414,1.645972,-0.088325,1.615376,-0.242139,
1.612485,-0.251668,1.552470,-0.396557,1.547776,-0.405340,1.460647,-0.535738,1.454329,-0.543436,1.343436,-0.654329,1.335738,-0.660647,1.205340,-0.747776,1.196557,-0.752470,1.051668,-0.812485,1.042139,-0.815376,0.888325,-0.845972,0.878414,-0.846948,0.809300,-0.846948,0.800000,-0.850800,-1.400000,-0.850800,-1.409278,-0.846957,-1.439018,-0.846957,-1.458458,-0.843090,-1.530554,-0.813227,
-1.547035,-0.802215,-1.602215,-0.747035,-1.613227,-0.730554,-1.643090,-0.658458,-1.646957,-0.639018,-1.646957,-0.609277,-1.650800,-0.600000,-1.650800,0.600000,-1.646957,0.609277,-1.646957,0.639018,-1.643090,0.658458,-1.613227,0.730554,-1.602215,0.747035,-1.547035,0.802215,-1.530554,0.813227,-1.458458,0.843090,-1.439018,0.846957,-1.409278,0.846957,-1.400000,0.850800,0.800000,0.850800,
0.809300,0.846948,0.809300,0.846948,$1*%
%AMFreePoly1*
4,1,61,1.409278,0.846957,1.439018,0.846957,1.458458,0.843090,1.530554,0.813227,1.547035,0.802215,1.602215,0.747035,1.613227,0.730554,1.643090,0.658458,1.646957,0.639018,1.646957,0.609277,1.650800,0.600000,1.650800,-0.600000,1.646957,-0.609277,1.646957,-0.639018,1.643090,-0.658458,1.613227,-0.730554,1.602215,-0.747035,1.547035,-0.802215,1.530554,-0.813227,1.458458,-0.843090,
1.439018,-0.846957,1.409278,-0.846957,1.400000,-0.850800,-0.800000,-0.850800,-0.809300,-0.846948,-0.878414,-0.846948,-0.888325,-0.845972,-1.042139,-0.815376,-1.051668,-0.812485,-1.196557,-0.752470,-1.205340,-0.747776,-1.335738,-0.660647,-1.343436,-0.654329,-1.454329,-0.543436,-1.460647,-0.535738,-1.547776,-0.405340,-1.552470,-0.396557,-1.612485,-0.251668,-1.615376,-0.242139,-1.645972,-0.088325,
-1.646948,-0.078414,-1.646948,0.078414,-1.645972,0.088325,-1.615376,0.242139,-1.612485,0.251668,-1.552470,0.396557,-1.547776,0.405340,-1.460647,0.535738,-1.454329,0.543436,-1.343436,0.654329,-1.335738,0.660647,-1.205340,0.747776,-1.196557,0.752470,-1.051668,0.812485,-1.042139,0.815376,-0.888325,0.845972,-0.878414,0.846948,-0.809300,0.846948,-0.800000,0.850800,1.400000,0.850800,
1.409278,0.846957,1.409278,0.846957,$1*%
%AMFreePoly2*
4,1,61,0.609278,0.846957,0.639018,0.846957,0.658458,0.843090,0.730554,0.813227,0.747035,0.802215,0.802215,0.747035,0.813227,0.730554,0.843090,0.658458,0.846957,0.639018,0.846957,0.609277,0.850800,0.600000,0.850800,-0.600000,0.846957,-0.609277,0.846957,-0.639018,0.843090,-0.658458,0.813227,-0.730554,0.802215,-0.747035,0.747035,-0.802215,0.730554,-0.813227,0.658458,-0.843090,
0.639018,-0.846957,0.609278,-0.846957,0.600000,-0.850800,0.000000,-0.850800,-0.009300,-0.846948,-0.078414,-0.846948,-0.088325,-0.845972,-0.242139,-0.815376,-0.251668,-0.812485,-0.396557,-0.752470,-0.405340,-0.747776,-0.535738,-0.660647,-0.543436,-0.654329,-0.654329,-0.543436,-0.660647,-0.535738,-0.747776,-0.405340,-0.752470,-0.396557,-0.812485,-0.251668,-0.815376,-0.242139,-0.845972,-0.088325,
-0.846948,-0.078414,-0.846948,0.078414,-0.845972,0.088325,-0.815376,0.242139,-0.812485,0.251668,-0.752470,0.396557,-0.747776,0.405340,-0.660647,0.535738,-0.654329,0.543436,-0.543436,0.654329,-0.535738,0.660647,-0.405340,0.747776,-0.396557,0.752470,-0.251668,0.812485,-0.242139,0.815376,-0.088325,0.845972,-0.078414,0.846948,-0.009300,0.846948,0.000000,0.850800,0.600000,0.850800,
0.609278,0.846957,0.609278,0.846957,$1*%
%AMFreePoly3*
4,1,61,0.009300,0.846948,0.078414,0.846948,0.088325,0.845972,0.242139,0.815376,0.251668,0.812485,0.396557,0.752470,0.405340,0.747776,0.535738,0.660647,0.543436,0.654329,0.654329,0.543436,0.660647,0.535738,0.747776,0.405340,0.752470,0.396557,0.812485,0.251668,0.815376,0.242139,0.845972,0.088325,0.846948,0.078414,0.846948,-0.078414,0.845972,-0.088325,0.815376,-0.242139,
0.812485,-0.251668,0.752470,-0.396557,0.747776,-0.405340,0.660647,-0.535738,0.654329,-0.543436,0.543436,-0.654329,0.535738,-0.660647,0.405340,-0.747776,0.396557,-0.752470,0.251668,-0.812485,0.242139,-0.815376,0.088325,-0.845972,0.078414,-0.846948,0.009300,-0.846948,0.000000,-0.850800,-0.600000,-0.850800,-0.609278,-0.846957,-0.639018,-0.846957,-0.658458,-0.843090,-0.730554,-0.813227,
-0.747035,-0.802215,-0.802215,-0.747035,-0.813227,-0.730554,-0.843090,-0.658458,-0.846957,-0.639018,-0.846957,-0.609277,-0.850800,-0.600000,-0.850800,0.600000,-0.846957,0.609277,-0.846957,0.639018,-0.843090,0.658458,-0.813227,0.730554,-0.802215,0.747035,-0.747035,0.802215,-0.730554,0.813227,-0.658458,0.843090,-0.639018,0.846957,-0.609278,0.846957,-0.600000,0.850800,0.000000,0.850800,
0.009300,0.846948,0.009300,0.846948,$1*%
G04 Aperture macros list end*
%ADD10C,0.000000*%
%ADD11C,0.100000*%
%ADD12C,1.712000*%
%ADD13C,1.904000*%
%ADD14C,2.200000*%
%ADD15C,1.850000*%
%ADD16FreePoly0,0.000000*%
%ADD17RoundRect,0.212700X-0.638100X-0.638100X0.638100X-0.638100X0.638100X0.638100X-0.638100X0.638100X0*%
%ADD18RoundRect,0.850800X-0.800000X-0.000010X0.800000X-0.000010X0.800000X0.000010X-0.800000X0.000010X0*%
%ADD19C,1.701600*%
%ADD20FreePoly1,0.000000*%
%ADD21FreePoly2,0.000000*%
%ADD22FreePoly3,0.000000*%
G04 APERTURE END LIST*
D10*
G36*
X224344337Y-97547736D02*
G01*
X224358011Y-97548573D01*
X224357440Y-97562231D01*
X224356209Y-97575848D01*
X224354335Y-97589400D01*
X224351835Y-97602864D01*
X224348724Y-97616218D01*
X224345021Y-97629437D01*
X224340741Y-97642500D01*
X224335902Y-97655383D01*
X224330519Y-97668063D01*
X224324611Y-97680518D01*
X224318192Y-97692723D01*
X224311281Y-97704657D01*
X224303893Y-97716295D01*
X224296046Y-97727616D01*
X224287756Y-97738596D01*
X224279039Y-97749212D01*
X224275906Y-97751797D01*
X224272804Y-97754265D01*
X224269723Y-97756621D01*
X224266652Y-97758875D01*
X224263582Y-97761034D01*
X224260504Y-97763105D01*
X224257406Y-97765098D01*
X224254280Y-97767019D01*
X224251115Y-97768876D01*
X224247901Y-97770677D01*
X224244628Y-97772430D01*
X224241288Y-97774142D01*
X224234361Y-97777478D01*
X224227042Y-97780745D01*
X224208935Y-97788806D01*
X224203060Y-97790731D01*
X224200561Y-97791509D01*
X224198258Y-97792176D01*
X224196078Y-97792741D01*
X224193949Y-97793212D01*
X224191800Y-97793598D01*
X224189557Y-97793907D01*
X224187148Y-97794147D01*
X224184501Y-97794328D01*
X224181544Y-97794458D01*
X224178205Y-97794545D01*
X224170088Y-97794624D01*
X224159574Y-97794636D01*
X224158817Y-97782174D01*
X224158361Y-97769799D01*
X224158218Y-97757508D01*
X224158404Y-97745298D01*
X224158933Y-97733166D01*
X224159817Y-97721110D01*
X224161071Y-97709127D01*
X224162710Y-97697215D01*
X224164747Y-97685370D01*
X224167195Y-97673591D01*
X224170070Y-97661874D01*
X224173385Y-97650217D01*
X224177154Y-97638618D01*
X224181391Y-97627073D01*
X224186109Y-97615579D01*
X224191324Y-97604136D01*
X224199953Y-97596422D01*
X224208583Y-97589329D01*
X224217241Y-97582843D01*
X224225953Y-97576952D01*
X224234745Y-97571642D01*
X224243644Y-97566899D01*
X224252677Y-97562711D01*
X224261869Y-97559063D01*
X224271248Y-97555942D01*
X224280840Y-97553336D01*
X224290671Y-97551229D01*
X224300767Y-97549610D01*
X224311155Y-97548465D01*
X224321862Y-97547779D01*
X224332914Y-97547541D01*
X224344337Y-97547736D01*
G37*
G36*
X222053416Y-93314848D02*
G01*
X222059835Y-93315158D01*
X222066088Y-93315758D01*
X222072213Y-93316685D01*
X222078243Y-93317975D01*
X222084214Y-93319664D01*
X222090162Y-93321788D01*
X222096123Y-93324383D01*
X222102131Y-93327485D01*
X222108222Y-93331131D01*
X222114432Y-93335357D01*
X222120795Y-93340199D01*
X222124813Y-93344735D01*
X222128415Y-93349093D01*
X222131622Y-93353312D01*
X222134453Y-93357433D01*
X222136927Y-93361495D01*
X222139063Y-93365537D01*
X222140881Y-93369600D01*
X222142400Y-93373723D01*
X222143639Y-93377945D01*
X222144617Y-93382307D01*
X222145354Y-93386847D01*
X222145870Y-93391606D01*
X222146182Y-93396623D01*
X222146311Y-93401938D01*
X222146276Y-93407591D01*
X222146096Y-93413620D01*
X222145445Y-93435077D01*
X222144608Y-93451324D01*
X222128732Y-93451324D01*
X222121787Y-93466703D01*
X222118809Y-93472122D01*
X222117543Y-93474345D01*
X222116377Y-93476291D01*
X222115275Y-93477996D01*
X222114201Y-93479496D01*
X222113118Y-93480825D01*
X222111989Y-93482020D01*
X222110780Y-93483116D01*
X222109453Y-93484148D01*
X222107971Y-93485154D01*
X222106300Y-93486167D01*
X222104401Y-93487223D01*
X222102240Y-93488359D01*
X222096982Y-93491011D01*
X222081789Y-93492428D01*
X222067126Y-93493452D01*
X222059964Y-93493732D01*
X222052898Y-93493812D01*
X222045917Y-93493658D01*
X222039007Y-93493236D01*
X222032157Y-93492512D01*
X222025355Y-93491452D01*
X222018589Y-93490022D01*
X222011846Y-93488188D01*
X222005114Y-93485915D01*
X221998382Y-93483170D01*
X221991636Y-93479920D01*
X221984866Y-93476129D01*
X221980238Y-93470582D01*
X221976154Y-93465054D01*
X221972588Y-93459527D01*
X221969515Y-93453983D01*
X221966911Y-93448406D01*
X221964750Y-93442778D01*
X221963007Y-93437082D01*
X221961658Y-93431300D01*
X221960678Y-93425415D01*
X221960041Y-93419410D01*
X221959724Y-93413267D01*
X221959700Y-93406970D01*
X221959945Y-93400501D01*
X221960434Y-93393842D01*
X221961143Y-93386976D01*
X221962045Y-93379887D01*
X221967870Y-93369377D01*
X221970700Y-93364575D01*
X221973517Y-93360038D01*
X221976351Y-93355740D01*
X221979234Y-93351653D01*
X221982197Y-93347750D01*
X221985271Y-93344003D01*
X221988488Y-93340386D01*
X221991878Y-93336870D01*
X221995473Y-93333429D01*
X221999303Y-93330035D01*
X222003401Y-93326661D01*
X222007797Y-93323280D01*
X222012522Y-93319864D01*
X222017608Y-93316386D01*
X222032815Y-93315298D01*
X222039942Y-93314954D01*
X222046797Y-93314792D01*
X222053416Y-93314848D01*
G37*
G36*
X219418779Y-95442639D02*
G01*
X219429864Y-95443275D01*
X219440820Y-95444371D01*
X219451650Y-95445987D01*
X219462354Y-95448183D01*
X219472936Y-95451019D01*
X219483397Y-95454554D01*
X219493739Y-95458849D01*
X219503965Y-95463962D01*
X219514076Y-95469955D01*
X219524074Y-95476886D01*
X219543376Y-95494777D01*
X219561352Y-95513996D01*
X219578030Y-95534428D01*
X219593443Y-95555957D01*
X219607620Y-95578467D01*
X219620592Y-95601845D01*
X219632390Y-95625973D01*
X219643044Y-95650737D01*
X219652584Y-95676021D01*
X219661042Y-95701710D01*
X219668448Y-95727689D01*
X219674832Y-95753841D01*
X219680225Y-95780053D01*
X219684657Y-95806208D01*
X219688159Y-95832190D01*
X219690761Y-95857886D01*
X219694034Y-95948196D01*
X219694336Y-95992462D01*
X219693694Y-96036224D01*
X219692065Y-96079548D01*
X219689408Y-96122502D01*
X219685681Y-96165152D01*
X219680842Y-96207565D01*
X219674851Y-96249809D01*
X219667665Y-96291949D01*
X219659243Y-96334054D01*
X219649543Y-96376188D01*
X219638524Y-96418421D01*
X219626143Y-96460817D01*
X219612359Y-96503445D01*
X219597132Y-96546371D01*
X219587706Y-96572240D01*
X219578464Y-96598172D01*
X219560289Y-96650147D01*
X219547379Y-96686281D01*
X219534210Y-96722310D01*
X219520794Y-96758248D01*
X219507145Y-96794108D01*
X219503333Y-96805022D01*
X219499828Y-96815863D01*
X219496621Y-96826647D01*
X219493697Y-96837390D01*
X219491046Y-96848108D01*
X219488655Y-96858819D01*
X219486512Y-96869539D01*
X219484606Y-96880284D01*
X219481457Y-96901916D01*
X219479111Y-96923847D01*
X219477474Y-96946210D01*
X219476449Y-96969136D01*
X219502386Y-96943850D01*
X219527635Y-96918275D01*
X219552238Y-96892341D01*
X219576234Y-96865978D01*
X219599663Y-96839115D01*
X219622565Y-96811681D01*
X219644981Y-96783608D01*
X219666949Y-96754823D01*
X219685738Y-96729708D01*
X219721178Y-96682239D01*
X219731931Y-96668216D01*
X219742801Y-96654299D01*
X219764848Y-96626726D01*
X219787222Y-96599415D01*
X219809824Y-96572261D01*
X219820195Y-96559684D01*
X219854321Y-96519188D01*
X219889234Y-96479527D01*
X219925008Y-96440765D01*
X219961717Y-96402967D01*
X219999435Y-96366197D01*
X220038237Y-96330520D01*
X220058067Y-96313111D01*
X220078196Y-96295999D01*
X220098633Y-96279192D01*
X220119386Y-96262698D01*
X220164531Y-96224995D01*
X220190715Y-96204117D01*
X220203887Y-96194122D01*
X220217159Y-96184525D01*
X220230568Y-96175399D01*
X220244148Y-96166821D01*
X220257935Y-96158867D01*
X220271965Y-96151611D01*
X220286273Y-96145129D01*
X220300895Y-96139496D01*
X220315866Y-96134788D01*
X220331221Y-96131080D01*
X220339054Y-96129625D01*
X220346997Y-96128448D01*
X220355053Y-96127559D01*
X220363228Y-96126967D01*
X220371525Y-96126682D01*
X220379950Y-96126713D01*
X220388506Y-96127069D01*
X220397199Y-96127761D01*
X220405188Y-96131331D01*
X220408876Y-96133080D01*
X220412381Y-96134837D01*
X220415717Y-96136625D01*
X220418900Y-96138469D01*
X220421947Y-96140391D01*
X220424872Y-96142415D01*
X220427690Y-96144565D01*
X220430418Y-96146864D01*
X220433071Y-96149337D01*
X220435665Y-96152006D01*
X220438214Y-96154895D01*
X220440735Y-96158029D01*
X220443243Y-96161430D01*
X220445754Y-96165123D01*
X220447367Y-96169545D01*
X220448777Y-96173891D01*
X220449998Y-96178176D01*
X220451043Y-96182413D01*
X220451925Y-96186616D01*
X220452658Y-96190797D01*
X220453256Y-96194970D01*
X220453731Y-96199150D01*
X220454098Y-96203349D01*
X220454369Y-96207581D01*
X220454680Y-96216197D01*
X220454769Y-96225108D01*
X220454746Y-96234421D01*
X220454870Y-96261179D01*
X220454422Y-96265849D01*
X220453874Y-96270323D01*
X220453229Y-96274625D01*
X220452488Y-96278780D01*
X220451654Y-96282812D01*
X220450728Y-96286748D01*
X220449712Y-96290611D01*
X220448610Y-96294426D01*
X220446150Y-96302011D01*
X220443366Y-96309703D01*
X220440272Y-96317699D01*
X220436886Y-96326198D01*
X220434550Y-96336512D01*
X220432348Y-96346856D01*
X220430275Y-96357227D01*
X220428329Y-96367622D01*
X220423800Y-96391772D01*
X220419027Y-96417479D01*
X220409204Y-96466354D01*
X220403945Y-96490630D01*
X220398412Y-96514816D01*
X220392573Y-96538928D01*
X220386394Y-96562979D01*
X220379844Y-96586984D01*
X220372890Y-96610956D01*
X220360284Y-96654066D01*
X220348360Y-96697513D01*
X220337439Y-96741272D01*
X220327842Y-96785320D01*
X220319889Y-96829631D01*
X220316630Y-96851877D01*
X220313903Y-96874180D01*
X220311747Y-96896536D01*
X220310203Y-96918943D01*
X220309311Y-96941397D01*
X220309111Y-96963896D01*
X220309145Y-96982343D01*
X220309390Y-97040077D01*
X220309499Y-97079470D01*
X220309886Y-97175511D01*
X220328893Y-97154768D01*
X220370633Y-97110066D01*
X220412867Y-97065920D01*
X220455615Y-97022270D01*
X220498898Y-96979058D01*
X220515816Y-96962194D01*
X220532490Y-96945282D01*
X220548907Y-96928255D01*
X220565054Y-96911042D01*
X220580917Y-96893577D01*
X220596484Y-96875789D01*
X220611740Y-96857611D01*
X220626673Y-96838973D01*
X220639916Y-96822847D01*
X220653467Y-96806988D01*
X220667276Y-96791355D01*
X220681296Y-96775907D01*
X220709774Y-96745400D01*
X220738511Y-96715136D01*
X220749743Y-96703214D01*
X220769663Y-96682711D01*
X220789909Y-96662935D01*
X220810532Y-96643828D01*
X220831583Y-96625335D01*
X220853111Y-96607401D01*
X220875169Y-96589969D01*
X220897806Y-96572982D01*
X220921074Y-96556386D01*
X220942034Y-96541565D01*
X220971190Y-96522355D01*
X221001805Y-96503464D01*
X221017599Y-96494385D01*
X221033684Y-96485685D01*
X221050035Y-96477461D01*
X221066628Y-96469812D01*
X221083438Y-96462839D01*
X221100440Y-96456640D01*
X221117611Y-96451315D01*
X221134924Y-96446962D01*
X221152356Y-96443681D01*
X221169883Y-96441571D01*
X221187478Y-96440731D01*
X221196294Y-96440819D01*
X221205119Y-96441261D01*
X221209765Y-96442403D01*
X221214179Y-96443663D01*
X221218381Y-96445047D01*
X221222389Y-96446561D01*
X221226223Y-96448210D01*
X221229903Y-96450001D01*
X221233446Y-96451940D01*
X221236872Y-96454033D01*
X221240201Y-96456285D01*
X221243452Y-96458702D01*
X221246643Y-96461290D01*
X221249795Y-96464056D01*
X221252926Y-96467005D01*
X221256055Y-96470144D01*
X221259202Y-96473477D01*
X221262386Y-96477011D01*
X221264539Y-96481602D01*
X221266450Y-96486269D01*
X221268128Y-96491006D01*
X221269581Y-96495808D01*
X221271845Y-96505586D01*
X221273308Y-96515565D01*
X221274038Y-96525705D01*
X221274099Y-96535966D01*
X221273560Y-96546308D01*
X221272485Y-96556692D01*
X221270942Y-96567077D01*
X221268997Y-96577424D01*
X221266715Y-96587694D01*
X221264164Y-96597845D01*
X221258519Y-96617636D01*
X221252592Y-96636480D01*
X221245023Y-96658581D01*
X221237268Y-96681938D01*
X221225823Y-96714674D01*
X221213710Y-96747002D01*
X221200990Y-96778991D01*
X221187726Y-96810709D01*
X221173978Y-96842225D01*
X221159809Y-96873608D01*
X221130454Y-96936246D01*
X221116466Y-96965938D01*
X221102806Y-96995689D01*
X221089534Y-97025549D01*
X221076710Y-97055568D01*
X221064393Y-97085793D01*
X221052643Y-97116276D01*
X221041520Y-97147064D01*
X221031083Y-97178208D01*
X221027556Y-97188907D01*
X221023917Y-97199554D01*
X221016352Y-97220727D01*
X221008495Y-97241794D01*
X221000449Y-97262823D01*
X220991550Y-97286574D01*
X220984525Y-97304937D01*
X220977353Y-97323126D01*
X220969984Y-97341153D01*
X220962365Y-97359031D01*
X220954445Y-97376774D01*
X220946172Y-97394395D01*
X220937494Y-97411907D01*
X220928360Y-97429325D01*
X220926425Y-97436211D01*
X220924790Y-97443094D01*
X220923432Y-97449975D01*
X220922329Y-97456859D01*
X220921461Y-97463747D01*
X220920804Y-97470642D01*
X220920337Y-97477548D01*
X220920038Y-97484466D01*
X220919857Y-97498355D01*
X220920086Y-97512331D01*
X220921074Y-97540636D01*
X220966712Y-97541502D01*
X221012355Y-97542124D01*
X221038276Y-97542729D01*
X221056934Y-97542681D01*
X221074743Y-97542071D01*
X221083391Y-97541500D01*
X221091904Y-97540724D01*
X221100305Y-97539720D01*
X221108620Y-97538466D01*
X221116874Y-97536940D01*
X221125093Y-97535121D01*
X221133301Y-97532987D01*
X221141525Y-97530516D01*
X221149789Y-97527685D01*
X221158118Y-97524475D01*
X221166538Y-97520861D01*
X221175074Y-97516823D01*
X221191577Y-97508911D01*
X221204130Y-97502691D01*
X221216634Y-97496388D01*
X221241550Y-97483585D01*
X221275596Y-97466090D01*
X221286644Y-97460711D01*
X221291066Y-97458709D01*
X221294903Y-97457106D01*
X221298266Y-97455857D01*
X221301267Y-97454919D01*
X221304019Y-97454247D01*
X221306633Y-97453796D01*
X221309221Y-97453523D01*
X221311895Y-97453382D01*
X221317949Y-97453323D01*
X221317112Y-97440146D01*
X221316894Y-97413246D01*
X221318060Y-97386804D01*
X221320563Y-97360804D01*
X221324355Y-97335232D01*
X221329388Y-97310074D01*
X221335613Y-97285314D01*
X221342982Y-97260939D01*
X221351449Y-97236933D01*
X221360963Y-97213282D01*
X221371478Y-97189972D01*
X221382945Y-97166988D01*
X221395317Y-97144316D01*
X221408545Y-97121940D01*
X221422581Y-97099847D01*
X221437378Y-97078021D01*
X221452886Y-97056448D01*
X221468265Y-97035116D01*
X221475900Y-97026679D01*
X221483645Y-97018406D01*
X221491523Y-97010335D01*
X221499553Y-97002506D01*
X221507757Y-96994960D01*
X221516155Y-96987735D01*
X221524768Y-96980871D01*
X221533616Y-96974408D01*
X221542722Y-96968385D01*
X221552104Y-96962842D01*
X221561785Y-96957819D01*
X221571785Y-96953355D01*
X221576911Y-96951345D01*
X221582124Y-96949489D01*
X221587428Y-96947794D01*
X221592824Y-96946262D01*
X221598315Y-96944901D01*
X221603905Y-96943713D01*
X221609595Y-96942705D01*
X221615388Y-96941881D01*
X221643882Y-96941851D01*
X221672439Y-96941385D01*
X221678127Y-96942310D01*
X221683414Y-96943339D01*
X221688340Y-96944489D01*
X221692948Y-96945773D01*
X221697279Y-96947206D01*
X221701376Y-96948804D01*
X221705279Y-96950581D01*
X221709032Y-96952552D01*
X221712675Y-96954731D01*
X221716251Y-96957134D01*
X221719802Y-96959775D01*
X221723369Y-96962669D01*
X221726994Y-96965831D01*
X221730719Y-96969276D01*
X221734586Y-96973019D01*
X221738636Y-96977073D01*
X221741334Y-96981318D01*
X221743798Y-96985668D01*
X221746037Y-96990115D01*
X221748059Y-96994655D01*
X221749871Y-96999282D01*
X221751482Y-97003990D01*
X221754133Y-97013625D01*
X221756076Y-97023513D01*
X221757374Y-97033610D01*
X221758092Y-97043869D01*
X221758295Y-97054242D01*
X221758046Y-97064685D01*
X221757409Y-97075150D01*
X221756450Y-97085591D01*
X221755232Y-97095963D01*
X221752275Y-97116311D01*
X221749054Y-97135823D01*
X221747051Y-97144258D01*
X221744831Y-97152581D01*
X221742409Y-97160803D01*
X221739799Y-97168932D01*
X221737015Y-97176979D01*
X221734072Y-97184953D01*
X221727761Y-97200722D01*
X221720981Y-97216316D01*
X221713843Y-97231812D01*
X221698949Y-97262823D01*
X221687539Y-97290604D01*
X221679274Y-97308709D01*
X221670743Y-97326517D01*
X221661906Y-97344006D01*
X221652721Y-97361155D01*
X221643147Y-97377943D01*
X221633145Y-97394349D01*
X221622672Y-97410352D01*
X221611688Y-97425929D01*
X221600152Y-97441060D01*
X221588023Y-97455724D01*
X221575260Y-97469899D01*
X221561823Y-97483564D01*
X221547671Y-97496698D01*
X221532762Y-97509279D01*
X221517056Y-97521286D01*
X221500511Y-97532698D01*
X221501407Y-97541186D01*
X221501886Y-97545067D01*
X221502420Y-97548738D01*
X221503037Y-97552222D01*
X221503763Y-97555542D01*
X221504626Y-97558723D01*
X221505652Y-97561788D01*
X221506868Y-97564759D01*
X221508302Y-97567662D01*
X221509979Y-97570519D01*
X221511926Y-97573354D01*
X221514171Y-97576190D01*
X221516741Y-97579051D01*
X221519661Y-97581961D01*
X221522960Y-97584943D01*
X221535339Y-97590939D01*
X221547622Y-97596290D01*
X221559830Y-97600996D01*
X221571987Y-97605057D01*
X221584116Y-97608474D01*
X221596239Y-97611246D01*
X221608379Y-97613374D01*
X221620560Y-97614857D01*
X221632804Y-97615697D01*
X221645134Y-97615892D01*
X221657573Y-97615444D01*
X221670143Y-97614351D01*
X221682869Y-97612615D01*
X221695772Y-97610236D01*
X221708876Y-97607213D01*
X221722203Y-97603547D01*
X221735655Y-97598893D01*
X221748921Y-97593977D01*
X221762011Y-97588804D01*
X221774937Y-97583381D01*
X221787710Y-97577714D01*
X221800340Y-97571808D01*
X221825216Y-97559304D01*
X221849653Y-97545919D01*
X221873738Y-97531699D01*
X221897557Y-97516693D01*
X221921199Y-97500948D01*
X221943647Y-97485848D01*
X221965074Y-97470389D01*
X221985939Y-97454409D01*
X222006322Y-97437952D01*
X222026301Y-97421065D01*
X222045955Y-97403794D01*
X222065364Y-97386185D01*
X222084607Y-97368284D01*
X222103761Y-97350136D01*
X222119605Y-97335284D01*
X222129405Y-97325630D01*
X222138940Y-97315822D01*
X222148246Y-97305863D01*
X222157358Y-97295756D01*
X222166311Y-97285502D01*
X222175139Y-97275105D01*
X222183878Y-97264568D01*
X222192562Y-97253893D01*
X222247500Y-97185973D01*
X222289616Y-97134798D01*
X222306724Y-97114695D01*
X222321654Y-97097826D01*
X222334752Y-97083872D01*
X222346359Y-97072517D01*
X222356818Y-97063442D01*
X222366473Y-97056330D01*
X222375667Y-97050864D01*
X222384742Y-97046726D01*
X222394042Y-97043598D01*
X222403909Y-97041163D01*
X222426718Y-97037100D01*
X222433563Y-97038164D01*
X222440056Y-97039498D01*
X222446223Y-97041107D01*
X222452091Y-97042993D01*
X222457685Y-97045159D01*
X222463031Y-97047607D01*
X222468156Y-97050339D01*
X222473084Y-97053360D01*
X222477843Y-97056670D01*
X222482457Y-97060274D01*
X222486954Y-97064173D01*
X222491358Y-97068371D01*
X222495697Y-97072869D01*
X222499995Y-97077672D01*
X222504278Y-97082780D01*
X222508574Y-97088198D01*
X222510106Y-97092252D01*
X222511506Y-97096240D01*
X222512772Y-97100174D01*
X222513903Y-97104065D01*
X222514897Y-97107926D01*
X222515753Y-97111767D01*
X222516472Y-97115601D01*
X222517050Y-97119439D01*
X222517488Y-97123294D01*
X222517783Y-97127175D01*
X222517936Y-97131096D01*
X222517944Y-97135068D01*
X222517807Y-97139103D01*
X222517523Y-97143211D01*
X222517091Y-97147406D01*
X222516511Y-97151698D01*
X222504809Y-97173453D01*
X222502545Y-97178428D01*
X222500488Y-97183245D01*
X222498625Y-97187931D01*
X222496945Y-97192512D01*
X222495437Y-97197015D01*
X222494089Y-97201467D01*
X222492889Y-97205896D01*
X222491827Y-97210327D01*
X222490891Y-97214789D01*
X222490070Y-97219307D01*
X222489351Y-97223909D01*
X222488724Y-97228622D01*
X222487698Y-97238487D01*
X222486901Y-97249118D01*
X222484963Y-97276869D01*
X222483273Y-97305487D01*
X222481304Y-97334664D01*
X222478997Y-97370177D01*
X222476824Y-97405698D01*
X222497873Y-97402771D01*
X222518296Y-97399495D01*
X222538198Y-97395665D01*
X222547987Y-97393478D01*
X222557686Y-97391076D01*
X222567306Y-97388434D01*
X222576863Y-97385525D01*
X222586368Y-97382324D01*
X222595836Y-97378806D01*
X222605278Y-97374945D01*
X222614710Y-97370716D01*
X222624142Y-97366093D01*
X222633589Y-97361050D01*
X222666146Y-97343811D01*
X222682617Y-97334958D01*
X222694743Y-97328708D01*
X222706931Y-97322626D01*
X222719184Y-97316675D01*
X222731506Y-97310820D01*
X222767098Y-97293304D01*
X222801601Y-97274828D01*
X222818448Y-97265174D01*
X222835030Y-97255214D01*
X222851347Y-97244925D01*
X222867402Y-97234284D01*
X222883197Y-97223270D01*
X222898734Y-97211860D01*
X222914015Y-97200032D01*
X222929042Y-97187763D01*
X222943817Y-97175032D01*
X222958343Y-97161815D01*
X222972621Y-97148092D01*
X222986653Y-97133839D01*
X222993878Y-97126970D01*
X223001241Y-97120506D01*
X223008737Y-97114437D01*
X223016363Y-97108748D01*
X223024113Y-97103427D01*
X223031983Y-97098462D01*
X223048069Y-97089548D01*
X223064587Y-97081906D01*
X223081503Y-97075434D01*
X223098783Y-97070033D01*
X223116393Y-97065601D01*
X223134300Y-97062039D01*
X223152470Y-97059244D01*
X223170869Y-97057118D01*
X223189463Y-97055558D01*
X223208218Y-97054464D01*
X223227102Y-97053737D01*
X223265117Y-97052975D01*
X223289797Y-97052439D01*
X223301157Y-97052619D01*
X223312099Y-97053106D01*
X223322659Y-97053924D01*
X223332872Y-97055094D01*
X223342773Y-97056640D01*
X223352398Y-97058585D01*
X223361783Y-97060953D01*
X223370961Y-97063765D01*
X223379970Y-97067047D01*
X223388843Y-97070819D01*
X223397617Y-97075106D01*
X223406327Y-97079930D01*
X223415007Y-97085315D01*
X223423695Y-97091284D01*
X223432424Y-97097860D01*
X223441230Y-97105065D01*
X223444355Y-97111385D01*
X223447111Y-97117649D01*
X223449507Y-97123872D01*
X223451557Y-97130068D01*
X223453270Y-97136250D01*
X223454658Y-97142431D01*
X223455732Y-97148626D01*
X223456504Y-97154849D01*
X223456985Y-97161112D01*
X223457185Y-97167431D01*
X223457117Y-97173817D01*
X223456791Y-97180287D01*
X223456219Y-97186852D01*
X223455411Y-97193527D01*
X223454380Y-97200325D01*
X223453136Y-97207261D01*
X223449199Y-97212500D01*
X223445362Y-97217347D01*
X223441588Y-97221820D01*
X223437840Y-97225939D01*
X223434083Y-97229725D01*
X223430280Y-97233195D01*
X223426393Y-97236370D01*
X223422388Y-97239270D01*
X223418228Y-97241914D01*
X223413876Y-97244320D01*
X223409296Y-97246510D01*
X223404451Y-97248502D01*
X223399305Y-97250316D01*
X223393822Y-97251972D01*
X223387966Y-97253488D01*
X223381699Y-97254886D01*
X223381096Y-97270034D01*
X223378226Y-97338725D01*
X223377281Y-97362553D01*
X223375695Y-97393404D01*
X223374668Y-97408727D01*
X223373439Y-97424007D01*
X223371974Y-97439263D01*
X223370239Y-97454513D01*
X223368200Y-97469777D01*
X223365824Y-97485073D01*
X223383187Y-97467710D01*
X223445199Y-97405698D01*
X223458469Y-97391591D01*
X223474602Y-97375115D01*
X223491546Y-97358575D01*
X223509258Y-97342122D01*
X223527692Y-97325906D01*
X223546804Y-97310079D01*
X223566549Y-97294791D01*
X223586883Y-97280194D01*
X223607760Y-97266438D01*
X223629137Y-97253673D01*
X223650968Y-97242052D01*
X223673208Y-97231725D01*
X223695814Y-97222843D01*
X223707239Y-97218991D01*
X223718739Y-97215556D01*
X223730309Y-97212559D01*
X223741941Y-97210016D01*
X223753631Y-97207949D01*
X223765373Y-97206374D01*
X223777162Y-97205312D01*
X223788992Y-97204780D01*
X223800405Y-97205007D01*
X223810947Y-97205442D01*
X223820877Y-97206197D01*
X223825692Y-97206729D01*
X223830451Y-97207384D01*
X223835185Y-97208173D01*
X223839928Y-97209113D01*
X223844710Y-97210216D01*
X223849565Y-97211496D01*
X223854524Y-97212968D01*
X223859620Y-97214645D01*
X223864885Y-97216541D01*
X223870351Y-97218671D01*
X223875084Y-97223840D01*
X223879503Y-97229058D01*
X223883633Y-97234329D01*
X223887495Y-97239659D01*
X223891114Y-97245055D01*
X223894513Y-97250523D01*
X223897714Y-97256068D01*
X223900740Y-97261697D01*
X223903615Y-97267415D01*
X223906363Y-97273229D01*
X223909005Y-97279144D01*
X223911565Y-97285166D01*
X223916532Y-97297557D01*
X223921449Y-97310448D01*
X223929386Y-97326323D01*
X223929869Y-97338727D01*
X223930184Y-97351137D01*
X223930356Y-97363550D01*
X223930413Y-97375964D01*
X223930489Y-97407588D01*
X223930440Y-97441913D01*
X223930464Y-97476967D01*
X223930421Y-97550472D01*
X223930449Y-97644802D01*
X223930448Y-97717198D01*
X223930468Y-97751985D01*
X223930413Y-97800558D01*
X223930394Y-97828508D01*
X223930046Y-97835698D01*
X223929687Y-97841295D01*
X223929471Y-97843634D01*
X223929214Y-97845740D01*
X223928901Y-97847667D01*
X223928520Y-97849471D01*
X223928058Y-97851207D01*
X223927501Y-97852930D01*
X223926838Y-97854695D01*
X223926053Y-97856556D01*
X223925135Y-97858570D01*
X223924071Y-97860791D01*
X223921449Y-97866073D01*
X224000824Y-97866073D01*
X223996948Y-97846632D01*
X223993894Y-97822676D01*
X223991703Y-97799045D01*
X223990395Y-97775721D01*
X223989995Y-97752688D01*
X223990526Y-97729931D01*
X223992010Y-97707432D01*
X223994470Y-97685174D01*
X223997929Y-97663142D01*
X224002410Y-97641319D01*
X224007936Y-97619688D01*
X224014531Y-97598232D01*
X224022216Y-97576936D01*
X224031015Y-97555782D01*
X224040950Y-97534754D01*
X224052046Y-97513836D01*
X224064324Y-97493011D01*
X224074351Y-97481825D01*
X224084701Y-97471216D01*
X224095372Y-97461179D01*
X224106365Y-97451714D01*
X224117676Y-97442817D01*
X224129305Y-97434488D01*
X224141250Y-97426723D01*
X224153510Y-97419520D01*
X224166083Y-97412878D01*
X224178969Y-97406793D01*
X224192165Y-97401265D01*
X224205671Y-97396290D01*
X224219485Y-97391867D01*
X224233605Y-97387994D01*
X224248031Y-97384667D01*
X224262761Y-97381886D01*
X224274859Y-97381162D01*
X224286946Y-97380618D01*
X224299027Y-97380233D01*
X224311107Y-97379983D01*
X224335279Y-97379803D01*
X224359499Y-97379901D01*
X224385157Y-97379715D01*
X224409946Y-97379777D01*
X224432276Y-97379831D01*
X224438785Y-97380577D01*
X224445115Y-97381526D01*
X224451272Y-97382688D01*
X224457267Y-97384068D01*
X224463105Y-97385676D01*
X224468794Y-97387519D01*
X224474344Y-97389605D01*
X224479760Y-97391941D01*
X224485051Y-97394535D01*
X224490226Y-97397396D01*
X224495290Y-97400530D01*
X224500253Y-97403946D01*
X224505122Y-97407651D01*
X224509904Y-97411654D01*
X224514608Y-97415961D01*
X224519242Y-97420581D01*
X224523776Y-97426596D01*
X224527774Y-97432523D01*
X224531265Y-97438387D01*
X224534280Y-97444216D01*
X224536848Y-97450035D01*
X224538999Y-97455870D01*
X224540763Y-97461747D01*
X224542169Y-97467693D01*
X224543246Y-97473733D01*
X224544026Y-97479894D01*
X224544538Y-97486201D01*
X224544810Y-97492682D01*
X224544874Y-97499361D01*
X224544758Y-97506265D01*
X224544108Y-97520854D01*
X224540718Y-97545188D01*
X224536719Y-97569490D01*
X224532064Y-97593703D01*
X224526705Y-97617769D01*
X224520591Y-97641629D01*
X224513676Y-97665227D01*
X224505910Y-97688504D01*
X224497246Y-97711402D01*
X224487634Y-97733864D01*
X224477027Y-97755831D01*
X224465376Y-97777246D01*
X224452632Y-97798051D01*
X224438747Y-97818188D01*
X224423672Y-97837598D01*
X224407360Y-97856225D01*
X224389761Y-97874011D01*
X224430354Y-97871231D01*
X224470347Y-97866832D01*
X224509729Y-97860816D01*
X224548489Y-97853183D01*
X224586617Y-97843934D01*
X224624102Y-97833071D01*
X224660934Y-97820594D01*
X224697102Y-97806505D01*
X224732594Y-97790805D01*
X224767402Y-97773495D01*
X224801514Y-97754576D01*
X224834919Y-97734049D01*
X224867607Y-97711915D01*
X224899567Y-97688176D01*
X224930789Y-97662833D01*
X224961261Y-97635886D01*
X224974305Y-97623948D01*
X224983062Y-97615431D01*
X224987154Y-97611268D01*
X224991061Y-97607130D01*
X224994789Y-97602992D01*
X224998340Y-97598826D01*
X225001722Y-97594604D01*
X225004937Y-97590298D01*
X225007991Y-97585882D01*
X225010889Y-97581328D01*
X225013635Y-97576608D01*
X225016235Y-97571696D01*
X225018692Y-97566562D01*
X225021011Y-97561181D01*
X225023198Y-97555525D01*
X225025257Y-97549565D01*
X225030634Y-97535453D01*
X225036362Y-97521775D01*
X225042482Y-97508471D01*
X225049031Y-97495479D01*
X225056050Y-97482736D01*
X225063579Y-97470181D01*
X225071657Y-97457751D01*
X225080324Y-97445386D01*
X225096819Y-97422162D01*
X225101884Y-97416459D01*
X225107112Y-97411110D01*
X225112496Y-97406089D01*
X225118030Y-97401370D01*
X225123708Y-97396925D01*
X225129524Y-97392728D01*
X225135472Y-97388753D01*
X225141545Y-97384974D01*
X225147739Y-97381362D01*
X225154045Y-97377893D01*
X225160459Y-97374539D01*
X225166975Y-97371274D01*
X225180286Y-97364903D01*
X225193929Y-97358569D01*
X225213572Y-97348694D01*
X225221719Y-97344940D01*
X225229542Y-97341549D01*
X225237095Y-97338525D01*
X225244428Y-97335871D01*
X225251594Y-97333591D01*
X225258646Y-97331689D01*
X225265635Y-97330169D01*
X225272613Y-97329034D01*
X225279633Y-97328287D01*
X225286747Y-97327933D01*
X225294007Y-97327976D01*
X225301466Y-97328418D01*
X225309174Y-97329264D01*
X225317185Y-97330517D01*
X225325551Y-97332182D01*
X225334324Y-97334261D01*
X225342052Y-97340849D01*
X225348059Y-97346043D01*
X225352811Y-97350306D01*
X225354861Y-97352234D01*
X225356772Y-97354104D01*
X225358601Y-97355974D01*
X225360407Y-97357903D01*
X225364182Y-97362166D01*
X225368562Y-97367359D01*
X225374011Y-97373948D01*
X225381948Y-97381886D01*
X225383144Y-97391335D01*
X225383863Y-97400333D01*
X225384113Y-97408930D01*
X225383900Y-97417174D01*
X225383230Y-97425116D01*
X225382110Y-97432805D01*
X225380546Y-97440289D01*
X225378546Y-97447619D01*
X225376115Y-97454844D01*
X225373260Y-97462013D01*
X225369988Y-97469176D01*
X225366305Y-97476382D01*
X225362217Y-97483680D01*
X225357732Y-97491120D01*
X225352855Y-97498751D01*
X225347594Y-97506622D01*
X225328881Y-97530068D01*
X225309097Y-97553500D01*
X225288355Y-97576675D01*
X225266768Y-97599346D01*
X225255694Y-97610417D01*
X225244451Y-97621270D01*
X225233054Y-97631874D01*
X225221517Y-97642200D01*
X225209854Y-97652217D01*
X225198079Y-97661893D01*
X225186206Y-97671198D01*
X225174250Y-97680102D01*
X225169689Y-97683949D01*
X225165388Y-97688155D01*
X225161337Y-97692700D01*
X225157528Y-97697564D01*
X225153952Y-97702728D01*
X225150600Y-97708171D01*
X225147462Y-97713873D01*
X225144529Y-97719814D01*
X225139243Y-97732332D01*
X225134669Y-97745566D01*
X225130735Y-97759354D01*
X225127367Y-97773538D01*
X225124492Y-97787955D01*
X225122038Y-97802445D01*
X225118102Y-97831005D01*
X225112073Y-97881948D01*
X225138300Y-97873586D01*
X225163840Y-97864787D01*
X225188754Y-97855538D01*
X225213100Y-97845828D01*
X225236938Y-97835646D01*
X225260329Y-97824978D01*
X225283330Y-97813815D01*
X225306002Y-97802143D01*
X225328403Y-97789952D01*
X225350594Y-97777229D01*
X225372634Y-97763962D01*
X225394582Y-97750141D01*
X225438440Y-97720787D01*
X225482644Y-97689072D01*
X225532080Y-97653363D01*
X225581142Y-97619369D01*
X225630008Y-97587241D01*
X225678859Y-97557134D01*
X225727873Y-97529200D01*
X225777230Y-97503592D01*
X225827110Y-97480461D01*
X225877690Y-97459962D01*
X225929152Y-97442247D01*
X225981675Y-97427469D01*
X226035437Y-97415780D01*
X226090618Y-97407333D01*
X226147397Y-97402281D01*
X226205954Y-97400777D01*
X226266469Y-97402974D01*
X226329120Y-97409024D01*
X226361822Y-97414866D01*
X226394146Y-97421557D01*
X226426100Y-97429194D01*
X226457688Y-97437877D01*
X226488917Y-97447707D01*
X226519793Y-97458783D01*
X226535101Y-97464820D01*
X226550322Y-97471205D01*
X226565459Y-97477952D01*
X226580511Y-97485073D01*
X226607796Y-97495987D01*
X226634231Y-97508404D01*
X226660157Y-97521344D01*
X226685601Y-97534874D01*
X226710587Y-97549059D01*
X226735140Y-97563967D01*
X226759285Y-97579663D01*
X226783047Y-97596214D01*
X226806451Y-97613685D01*
X226810516Y-97616511D01*
X226814600Y-97619242D01*
X226822827Y-97624451D01*
X226831138Y-97629373D01*
X226839540Y-97634067D01*
X226848041Y-97638593D01*
X226856646Y-97643011D01*
X226874199Y-97651761D01*
X226878557Y-97655871D01*
X226882591Y-97659887D01*
X226886308Y-97663840D01*
X226889721Y-97667759D01*
X226892837Y-97671675D01*
X226895668Y-97675618D01*
X226898223Y-97679619D01*
X226900511Y-97683707D01*
X226902543Y-97687914D01*
X226904328Y-97692268D01*
X226905877Y-97696800D01*
X226907199Y-97701542D01*
X226908304Y-97706522D01*
X226909201Y-97711771D01*
X226909901Y-97717320D01*
X226910414Y-97723198D01*
X226910148Y-97728146D01*
X226909812Y-97732603D01*
X226909385Y-97736632D01*
X226908848Y-97740295D01*
X226908181Y-97743653D01*
X226907364Y-97746769D01*
X226906377Y-97749704D01*
X226905201Y-97752522D01*
X226903816Y-97755284D01*
X226902202Y-97758051D01*
X226900339Y-97760888D01*
X226898207Y-97763854D01*
X226895787Y-97767013D01*
X226893060Y-97770426D01*
X226886601Y-97778265D01*
X226866261Y-97794636D01*
X226858324Y-97802573D01*
X226847607Y-97803976D01*
X226837360Y-97804772D01*
X226827533Y-97804979D01*
X226818076Y-97804616D01*
X226808940Y-97803704D01*
X226800075Y-97802261D01*
X226791432Y-97800306D01*
X226782961Y-97797860D01*
X226774613Y-97794940D01*
X226766337Y-97791567D01*
X226758086Y-97787760D01*
X226749808Y-97783538D01*
X226741456Y-97778920D01*
X226732978Y-97773926D01*
X226715448Y-97762886D01*
X226683936Y-97743023D01*
X226652659Y-97724111D01*
X226621527Y-97706202D01*
X226590446Y-97689345D01*
X226559324Y-97673594D01*
X226528069Y-97658999D01*
X226496588Y-97645612D01*
X226464789Y-97633483D01*
X226432579Y-97622666D01*
X226399867Y-97613211D01*
X226366559Y-97605169D01*
X226332564Y-97598593D01*
X226297788Y-97593533D01*
X226262140Y-97590041D01*
X226225527Y-97588168D01*
X226187857Y-97587966D01*
X226167126Y-97588201D01*
X226146394Y-97588307D01*
X226109325Y-97588858D01*
X226073853Y-97590490D01*
X226056601Y-97591828D01*
X226039612Y-97593576D01*
X226022840Y-97595780D01*
X226006238Y-97598488D01*
X225989760Y-97601744D01*
X225973362Y-97605596D01*
X225956998Y-97610091D01*
X225940621Y-97615274D01*
X225924186Y-97621192D01*
X225907647Y-97627892D01*
X225890958Y-97635420D01*
X225874074Y-97643823D01*
X225846013Y-97658303D01*
X225820483Y-97672525D01*
X225795462Y-97687440D01*
X225770874Y-97702963D01*
X225746645Y-97719009D01*
X225722701Y-97735491D01*
X225698966Y-97752323D01*
X225651824Y-97786698D01*
X225589409Y-97832055D01*
X225526547Y-97876549D01*
X225494818Y-97898346D01*
X225462823Y-97919774D01*
X225430508Y-97940784D01*
X225397824Y-97961323D01*
X225380398Y-97972826D01*
X225370586Y-97978676D01*
X225360623Y-97984145D01*
X225350521Y-97989262D01*
X225340291Y-97994058D01*
X225329944Y-97998562D01*
X225319491Y-98002804D01*
X225298312Y-98010619D01*
X225276844Y-98017741D01*
X225255177Y-98024407D01*
X225211602Y-98037318D01*
X225201307Y-98040545D01*
X225191128Y-98043917D01*
X225181046Y-98047439D01*
X225171042Y-98051116D01*
X225161097Y-98054954D01*
X225151191Y-98058959D01*
X225141306Y-98063134D01*
X225131421Y-98067487D01*
X225124292Y-98070316D01*
X225117210Y-98072914D01*
X225110165Y-98075272D01*
X225103144Y-98077382D01*
X225096137Y-98079236D01*
X225089133Y-98080826D01*
X225082121Y-98082143D01*
X225075090Y-98083179D01*
X225068028Y-98083927D01*
X225060926Y-98084378D01*
X225053771Y-98084523D01*
X225046552Y-98084355D01*
X225039259Y-98083866D01*
X225031881Y-98083046D01*
X225024406Y-98081889D01*
X225016824Y-98080386D01*
X225010263Y-98076719D01*
X225003924Y-98072816D01*
X224997810Y-98068677D01*
X224991925Y-98064306D01*
X224986274Y-98059702D01*
X224980862Y-98054869D01*
X224975692Y-98049807D01*
X224970769Y-98044517D01*
X224966098Y-98039003D01*
X224961682Y-98033264D01*
X224957526Y-98027303D01*
X224953634Y-98021122D01*
X224950011Y-98014721D01*
X224946661Y-98008103D01*
X224943589Y-98001269D01*
X224940798Y-97994220D01*
X224939543Y-97987278D01*
X224938497Y-97980318D01*
X224937645Y-97973341D01*
X224936972Y-97966349D01*
X224936463Y-97959344D01*
X224936104Y-97952328D01*
X224935773Y-97938270D01*
X224935860Y-97924188D01*
X224936248Y-97910098D01*
X224937449Y-97881948D01*
X224918721Y-97893606D01*
X224876158Y-97918011D01*
X224854537Y-97929597D01*
X224832698Y-97940767D01*
X224810650Y-97951516D01*
X224788400Y-97961839D01*
X224765956Y-97971732D01*
X224743325Y-97981191D01*
X224720514Y-97990211D01*
X224697532Y-97998788D01*
X224674385Y-98006918D01*
X224651081Y-98014595D01*
X224627628Y-98021817D01*
X224604034Y-98028577D01*
X224580305Y-98034872D01*
X224556449Y-98040698D01*
X224533970Y-98046093D01*
X224509050Y-98050639D01*
X224483935Y-98054550D01*
X224458667Y-98057779D01*
X224433289Y-98060281D01*
X224407844Y-98062010D01*
X224382375Y-98062920D01*
X224356924Y-98062965D01*
X224331534Y-98062100D01*
X224306248Y-98060278D01*
X224281110Y-98057453D01*
X224256161Y-98053580D01*
X224231444Y-98048613D01*
X224207003Y-98042506D01*
X224182881Y-98035213D01*
X224159119Y-98026688D01*
X224135761Y-98016886D01*
X224129690Y-98015187D01*
X224123934Y-98013811D01*
X224118451Y-98012751D01*
X224113198Y-98011997D01*
X224108133Y-98011543D01*
X224103212Y-98011380D01*
X224098393Y-98011499D01*
X224093633Y-98011894D01*
X224088889Y-98012556D01*
X224084119Y-98013476D01*
X224079279Y-98014648D01*
X224074327Y-98016062D01*
X224069220Y-98017711D01*
X224063915Y-98019586D01*
X224052541Y-98023986D01*
X224042663Y-98027333D01*
X224032882Y-98030338D01*
X224023179Y-98033018D01*
X224013536Y-98035391D01*
X224003934Y-98037474D01*
X223994353Y-98039284D01*
X223984777Y-98040838D01*
X223975184Y-98042154D01*
X223965558Y-98043248D01*
X223955879Y-98044138D01*
X223936289Y-98045375D01*
X223916263Y-98046001D01*
X223895652Y-98046155D01*
X223868739Y-98047132D01*
X223852398Y-98047015D01*
X223844666Y-98046766D01*
X223837186Y-98046345D01*
X223829931Y-98045717D01*
X223822872Y-98044849D01*
X223815979Y-98043708D01*
X223809224Y-98042258D01*
X223802578Y-98040467D01*
X223796013Y-98038301D01*
X223789498Y-98035725D01*
X223783006Y-98032706D01*
X223776507Y-98029210D01*
X223769973Y-98025203D01*
X223763375Y-98020652D01*
X223756684Y-98015521D01*
X223753358Y-98012060D01*
X223750289Y-98008783D01*
X223747458Y-98005654D01*
X223744847Y-98002633D01*
X223742438Y-97999684D01*
X223740214Y-97996768D01*
X223738156Y-97993847D01*
X223736248Y-97990884D01*
X223734470Y-97987841D01*
X223732805Y-97984679D01*
X223731235Y-97981361D01*
X223729743Y-97977850D01*
X223728310Y-97974106D01*
X223726919Y-97970093D01*
X223725551Y-97965772D01*
X223724189Y-97961106D01*
X223725988Y-97938007D01*
X223727166Y-97914969D01*
X223728430Y-97906637D01*
X223729477Y-97900045D01*
X223730445Y-97894582D01*
X223731472Y-97889637D01*
X223732695Y-97884599D01*
X223734251Y-97878857D01*
X223738917Y-97862816D01*
X223740912Y-97854372D01*
X223742644Y-97845923D01*
X223744133Y-97837468D01*
X223745398Y-97829007D01*
X223746458Y-97820536D01*
X223747333Y-97812056D01*
X223748603Y-97795061D01*
X223749362Y-97778011D01*
X223749763Y-97760895D01*
X223750110Y-97726423D01*
X223750576Y-97697865D01*
X223751785Y-97608104D01*
X223752715Y-97547023D01*
X223754761Y-97397761D01*
X223739004Y-97404641D01*
X223723824Y-97412049D01*
X223709174Y-97419961D01*
X223695006Y-97428350D01*
X223681273Y-97437192D01*
X223667928Y-97446460D01*
X223654923Y-97456129D01*
X223642212Y-97466175D01*
X223629747Y-97476570D01*
X223617481Y-97487290D01*
X223593355Y-97509604D01*
X223569458Y-97532910D01*
X223545410Y-97557007D01*
X223533132Y-97569321D01*
X223505017Y-97598089D01*
X223477866Y-97627063D01*
X223451710Y-97656451D01*
X223439015Y-97671367D01*
X223426581Y-97686466D01*
X223414411Y-97701774D01*
X223402509Y-97717317D01*
X223390880Y-97733121D01*
X223379527Y-97749214D01*
X223368454Y-97765621D01*
X223357666Y-97782369D01*
X223347166Y-97799483D01*
X223336957Y-97816991D01*
X223334994Y-97820079D01*
X223333012Y-97823083D01*
X223328986Y-97828870D01*
X223324854Y-97834413D01*
X223320595Y-97839773D01*
X223316186Y-97845012D01*
X223311604Y-97850192D01*
X223306825Y-97855372D01*
X223301828Y-97860616D01*
X223297708Y-97865276D01*
X223293884Y-97869959D01*
X223290332Y-97874671D01*
X223287030Y-97879422D01*
X223283955Y-97884219D01*
X223281085Y-97889072D01*
X223278397Y-97893988D01*
X223275869Y-97898977D01*
X223273477Y-97904045D01*
X223271200Y-97909202D01*
X223269014Y-97914456D01*
X223266897Y-97919815D01*
X223262780Y-97930883D01*
X223258668Y-97942472D01*
X223255297Y-97951662D01*
X223251905Y-97960252D01*
X223248444Y-97968283D01*
X223244865Y-97975796D01*
X223241122Y-97982834D01*
X223237164Y-97989437D01*
X223232946Y-97995647D01*
X223228419Y-98001506D01*
X223223535Y-98007054D01*
X223218246Y-98012335D01*
X223212504Y-98017388D01*
X223206261Y-98022255D01*
X223199470Y-98026978D01*
X223192082Y-98031599D01*
X223184049Y-98036158D01*
X223175324Y-98040698D01*
X223166320Y-98042021D01*
X223162079Y-98042506D01*
X223157985Y-98042853D01*
X223154016Y-98043048D01*
X223150151Y-98043076D01*
X223146368Y-98042921D01*
X223142646Y-98042570D01*
X223138963Y-98042007D01*
X223135299Y-98041218D01*
X223131632Y-98040187D01*
X223127941Y-98038901D01*
X223124204Y-98037344D01*
X223120400Y-98035501D01*
X223116508Y-98033358D01*
X223112506Y-98030900D01*
X223102348Y-98022342D01*
X223097674Y-98018242D01*
X223093272Y-98014199D01*
X223089145Y-98010168D01*
X223085293Y-98006102D01*
X223081719Y-98001953D01*
X223078424Y-97997676D01*
X223075409Y-97993225D01*
X223074008Y-97990919D01*
X223072677Y-97988552D01*
X223071418Y-97986118D01*
X223070229Y-97983611D01*
X223069112Y-97981025D01*
X223068067Y-97978356D01*
X223067093Y-97975596D01*
X223066192Y-97972740D01*
X223065363Y-97969782D01*
X223064606Y-97966716D01*
X223063922Y-97963537D01*
X223063310Y-97960239D01*
X223062308Y-97953262D01*
X223062131Y-97944686D01*
X223062195Y-97936568D01*
X223062515Y-97928857D01*
X223063103Y-97921501D01*
X223063972Y-97914449D01*
X223065136Y-97907649D01*
X223066609Y-97901051D01*
X223068403Y-97894602D01*
X223070533Y-97888253D01*
X223073011Y-97881950D01*
X223075851Y-97875644D01*
X223079066Y-97869283D01*
X223082670Y-97862815D01*
X223086677Y-97856190D01*
X223091098Y-97849355D01*
X223095949Y-97842261D01*
X223107938Y-97832141D01*
X223112384Y-97826640D01*
X223116583Y-97820743D01*
X223120545Y-97814474D01*
X223124279Y-97807856D01*
X223131098Y-97793670D01*
X223137111Y-97778375D01*
X223142392Y-97762160D01*
X223147013Y-97745214D01*
X223151047Y-97727729D01*
X223154565Y-97709893D01*
X223160345Y-97673927D01*
X223164932Y-97638836D01*
X223168905Y-97606137D01*
X223172843Y-97577347D01*
X223175427Y-97561164D01*
X223179566Y-97534251D01*
X223183381Y-97507389D01*
X223186840Y-97480548D01*
X223189912Y-97453696D01*
X223192567Y-97426804D01*
X223194772Y-97399840D01*
X223196497Y-97372775D01*
X223197710Y-97345578D01*
X223198693Y-97331036D01*
X223200086Y-97316603D01*
X223201852Y-97302258D01*
X223203956Y-97287977D01*
X223206359Y-97273740D01*
X223209028Y-97259525D01*
X223211924Y-97245310D01*
X223215011Y-97231073D01*
X223202803Y-97233048D01*
X223191181Y-97235250D01*
X223180093Y-97237710D01*
X223169485Y-97240457D01*
X223159306Y-97243520D01*
X223149504Y-97246931D01*
X223140026Y-97250719D01*
X223130820Y-97254913D01*
X223121834Y-97259544D01*
X223113015Y-97264641D01*
X223104312Y-97270235D01*
X223095671Y-97276355D01*
X223087042Y-97283031D01*
X223078371Y-97290294D01*
X223069606Y-97298172D01*
X223060695Y-97306696D01*
X223052616Y-97314346D01*
X223044451Y-97321779D01*
X223036192Y-97329025D01*
X223027834Y-97336115D01*
X223019368Y-97343080D01*
X223010788Y-97349951D01*
X223002087Y-97356757D01*
X222993258Y-97363530D01*
X222971708Y-97379994D01*
X222959697Y-97388204D01*
X222947497Y-97396146D01*
X222935124Y-97403840D01*
X222922595Y-97411305D01*
X222897134Y-97425625D01*
X222871245Y-97439261D01*
X222845061Y-97452365D01*
X222818712Y-97465093D01*
X222766047Y-97490034D01*
X222742870Y-97501196D01*
X222711431Y-97516007D01*
X222680778Y-97529741D01*
X222665616Y-97536122D01*
X222650496Y-97542136D01*
X222635365Y-97547750D01*
X222620173Y-97552931D01*
X222604868Y-97557646D01*
X222589397Y-97561863D01*
X222573710Y-97565549D01*
X222557754Y-97568671D01*
X222541479Y-97571196D01*
X222524832Y-97573092D01*
X222507763Y-97574327D01*
X222490218Y-97574866D01*
X222467662Y-97575564D01*
X222451156Y-97575477D01*
X222443465Y-97575198D01*
X222436094Y-97574716D01*
X222429003Y-97573997D01*
X222422150Y-97573007D01*
X222415494Y-97571711D01*
X222408996Y-97570076D01*
X222402613Y-97568065D01*
X222396306Y-97565647D01*
X222390034Y-97562785D01*
X222383755Y-97559447D01*
X222377429Y-97555597D01*
X222371016Y-97551201D01*
X222364473Y-97546226D01*
X222357761Y-97540636D01*
X222348681Y-97531477D01*
X222344284Y-97526864D01*
X222340020Y-97522207D01*
X222335916Y-97517487D01*
X222332001Y-97512687D01*
X222328302Y-97507790D01*
X222324848Y-97502779D01*
X222321666Y-97497635D01*
X222318784Y-97492343D01*
X222316230Y-97486884D01*
X222315085Y-97484087D01*
X222314032Y-97481242D01*
X222313076Y-97478346D01*
X222312219Y-97475398D01*
X222311465Y-97472395D01*
X222310817Y-97469335D01*
X222310279Y-97466217D01*
X222309855Y-97463037D01*
X222309548Y-97459794D01*
X222309361Y-97456486D01*
X222309640Y-97432487D01*
X222309857Y-97408365D01*
X222310136Y-97389823D01*
X222294261Y-97389823D01*
X222288186Y-97403652D01*
X222282336Y-97413908D01*
X222276087Y-97424033D01*
X222262461Y-97443891D01*
X222247455Y-97463226D01*
X222231212Y-97482041D01*
X222213878Y-97500336D01*
X222195598Y-97518113D01*
X222176517Y-97535372D01*
X222156779Y-97552116D01*
X222136530Y-97568345D01*
X222115914Y-97584060D01*
X222095077Y-97599263D01*
X222074162Y-97613955D01*
X222032683Y-97641810D01*
X221992636Y-97667636D01*
X221971056Y-97682022D01*
X221948485Y-97696046D01*
X221925263Y-97709593D01*
X221901443Y-97722559D01*
X221877080Y-97734835D01*
X221852228Y-97746314D01*
X221826940Y-97756891D01*
X221801270Y-97766456D01*
X221775274Y-97774905D01*
X221749004Y-97782129D01*
X221722514Y-97788021D01*
X221695859Y-97792476D01*
X221669093Y-97795385D01*
X221642270Y-97796641D01*
X221615443Y-97796138D01*
X221588667Y-97793769D01*
X221561996Y-97789427D01*
X221545041Y-97784483D01*
X221528563Y-97779064D01*
X221512552Y-97773151D01*
X221496996Y-97766729D01*
X221481884Y-97759780D01*
X221467205Y-97752288D01*
X221452947Y-97744236D01*
X221439100Y-97735607D01*
X221425652Y-97726386D01*
X221412593Y-97716554D01*
X221399910Y-97706096D01*
X221387593Y-97694995D01*
X221375631Y-97683234D01*
X221364013Y-97670796D01*
X221352726Y-97657664D01*
X221341761Y-97643823D01*
X221313767Y-97653196D01*
X221285955Y-97662991D01*
X221258266Y-97673123D01*
X221230636Y-97683511D01*
X221197894Y-97695913D01*
X221183445Y-97701401D01*
X221167136Y-97707323D01*
X221144521Y-97715772D01*
X221136321Y-97718034D01*
X221128109Y-97719972D01*
X221119885Y-97721610D01*
X221111647Y-97722974D01*
X221103395Y-97724089D01*
X221095127Y-97724980D01*
X221078540Y-97726193D01*
X221061878Y-97726816D01*
X221045133Y-97727051D01*
X221011363Y-97727167D01*
X220982310Y-97728159D01*
X220968696Y-97728096D01*
X220955225Y-97727650D01*
X220941907Y-97726785D01*
X220928755Y-97725468D01*
X220915779Y-97723663D01*
X220902990Y-97721337D01*
X220890401Y-97718456D01*
X220878021Y-97714984D01*
X220865864Y-97710887D01*
X220853939Y-97706132D01*
X220842258Y-97700684D01*
X220830833Y-97694507D01*
X220819674Y-97687569D01*
X220808794Y-97679834D01*
X220798202Y-97671268D01*
X220787911Y-97661837D01*
X220781485Y-97652960D01*
X220775677Y-97644023D01*
X220770460Y-97635016D01*
X220765806Y-97625931D01*
X220761689Y-97616758D01*
X220758081Y-97607487D01*
X220754954Y-97598110D01*
X220752282Y-97588617D01*
X220750036Y-97578999D01*
X220748190Y-97569247D01*
X220746716Y-97559351D01*
X220745587Y-97549303D01*
X220744775Y-97539093D01*
X220744252Y-97528711D01*
X220743993Y-97518149D01*
X220743968Y-97507397D01*
X220744087Y-97489333D01*
X220744611Y-97475501D01*
X220745588Y-97461980D01*
X220747005Y-97448736D01*
X220748847Y-97435740D01*
X220751099Y-97422959D01*
X220753749Y-97410363D01*
X220756781Y-97397920D01*
X220760182Y-97385600D01*
X220763938Y-97373371D01*
X220768034Y-97361201D01*
X220772457Y-97349060D01*
X220777192Y-97336916D01*
X220787542Y-97312495D01*
X220798973Y-97287690D01*
X220803769Y-97276555D01*
X220808367Y-97265376D01*
X220812792Y-97254151D01*
X220817072Y-97242881D01*
X220825300Y-97220202D01*
X220833265Y-97197339D01*
X220850198Y-97149773D01*
X220867930Y-97102590D01*
X220886313Y-97055653D01*
X220905199Y-97008823D01*
X220911803Y-96991562D01*
X220921379Y-96967580D01*
X220931425Y-96943832D01*
X220941875Y-96920280D01*
X220952659Y-96896886D01*
X220974963Y-96850422D01*
X220997794Y-96804136D01*
X221018680Y-96761551D01*
X221031168Y-96736253D01*
X221034637Y-96729292D01*
X221036035Y-96726383D01*
X221037225Y-96723768D01*
X221038222Y-96721381D01*
X221039038Y-96719156D01*
X221039685Y-96717026D01*
X221040179Y-96714927D01*
X221040531Y-96712792D01*
X221040754Y-96710556D01*
X221040862Y-96708152D01*
X221040869Y-96705516D01*
X221040786Y-96702580D01*
X221040628Y-96699280D01*
X221040136Y-96691323D01*
X221017180Y-96707463D01*
X220994925Y-96724012D01*
X220973288Y-96741011D01*
X220952186Y-96758501D01*
X220931536Y-96776523D01*
X220911254Y-96795119D01*
X220891258Y-96814330D01*
X220871465Y-96834198D01*
X220851125Y-96854662D01*
X220829095Y-96877334D01*
X220807495Y-96900279D01*
X220786284Y-96923496D01*
X220765420Y-96946985D01*
X220744864Y-96970744D01*
X220724573Y-96994774D01*
X220704507Y-97019074D01*
X220684623Y-97043643D01*
X220677796Y-97051572D01*
X220670871Y-97059351D01*
X220663851Y-97067001D01*
X220656736Y-97074544D01*
X220649531Y-97082002D01*
X220642236Y-97089395D01*
X220627386Y-97104073D01*
X220607543Y-97123917D01*
X220587699Y-97143761D01*
X220569467Y-97162054D01*
X220547700Y-97183634D01*
X220525811Y-97205090D01*
X220508722Y-97222049D01*
X220491985Y-97239140D01*
X220475574Y-97256406D01*
X220459463Y-97273887D01*
X220443627Y-97291621D01*
X220428039Y-97309651D01*
X220412675Y-97328016D01*
X220397509Y-97346756D01*
X220393399Y-97351567D01*
X220389262Y-97356256D01*
X220385093Y-97360830D01*
X220380888Y-97365298D01*
X220376640Y-97369669D01*
X220372346Y-97373950D01*
X220363598Y-97382275D01*
X220354605Y-97390341D01*
X220345327Y-97398212D01*
X220335726Y-97405955D01*
X220325761Y-97413636D01*
X220309886Y-97413636D01*
X220304925Y-97427526D01*
X220301993Y-97432125D01*
X220299022Y-97436396D01*
X220295998Y-97440366D01*
X220292910Y-97444064D01*
X220289746Y-97447515D01*
X220286493Y-97450749D01*
X220283139Y-97453792D01*
X220279672Y-97456672D01*
X220276079Y-97459416D01*
X220272349Y-97462052D01*
X220268468Y-97464608D01*
X220264426Y-97467110D01*
X220260208Y-97469586D01*
X220255804Y-97472064D01*
X220246386Y-97477136D01*
X220234270Y-97478271D01*
X220228398Y-97478688D01*
X220222639Y-97478966D01*
X220216983Y-97479077D01*
X220211422Y-97478994D01*
X220205947Y-97478688D01*
X220200549Y-97478131D01*
X220195220Y-97477295D01*
X220189949Y-97476151D01*
X220184729Y-97474672D01*
X220179551Y-97472830D01*
X220174405Y-97470596D01*
X220169283Y-97467941D01*
X220164175Y-97464839D01*
X220159074Y-97461261D01*
X220155105Y-97455601D01*
X220151531Y-97450115D01*
X220148331Y-97444767D01*
X220145485Y-97439521D01*
X220142976Y-97434338D01*
X220140782Y-97429184D01*
X220138884Y-97424022D01*
X220137264Y-97418815D01*
X220135901Y-97413527D01*
X220134776Y-97408121D01*
X220133869Y-97402561D01*
X220133161Y-97396810D01*
X220132633Y-97390833D01*
X220132264Y-97384591D01*
X220132036Y-97378050D01*
X220131928Y-97371173D01*
X220131546Y-97340688D01*
X220131541Y-97307719D01*
X220131358Y-97273240D01*
X220131264Y-97236929D01*
X220131285Y-97200618D01*
X220131232Y-97164115D01*
X220130959Y-97127614D01*
X220130975Y-97058003D01*
X220132666Y-96989194D01*
X220136310Y-96921012D01*
X220142181Y-96853282D01*
X220150554Y-96785830D01*
X220161705Y-96718479D01*
X220168408Y-96684787D01*
X220175910Y-96651055D01*
X220184243Y-96617261D01*
X220193443Y-96583383D01*
X220197040Y-96570130D01*
X220200467Y-96556837D01*
X220206919Y-96530152D01*
X220218993Y-96476577D01*
X220221640Y-96465340D01*
X220224428Y-96454255D01*
X220227398Y-96443299D01*
X220230589Y-96432451D01*
X220234043Y-96421689D01*
X220237800Y-96410991D01*
X220241901Y-96400334D01*
X220246386Y-96389698D01*
X220226522Y-96405652D01*
X220206954Y-96421762D01*
X220187679Y-96438080D01*
X220168694Y-96454659D01*
X220149995Y-96471552D01*
X220131577Y-96488810D01*
X220113438Y-96506487D01*
X220095574Y-96524636D01*
X220066499Y-96553698D01*
X220051870Y-96568134D01*
X220037159Y-96582493D01*
X220022920Y-96596655D01*
X220008990Y-96610999D01*
X219981969Y-96640202D01*
X219955923Y-96670045D01*
X219930682Y-96700473D01*
X219906075Y-96731431D01*
X219881931Y-96762863D01*
X219834348Y-96826927D01*
X219793094Y-96882705D01*
X219748817Y-96940264D01*
X219725508Y-96969110D01*
X219701398Y-96997679D01*
X219676472Y-97025731D01*
X219650715Y-97053024D01*
X219624113Y-97079319D01*
X219596650Y-97104374D01*
X219568310Y-97127950D01*
X219539080Y-97149804D01*
X219508944Y-97169697D01*
X219477887Y-97187387D01*
X219462008Y-97195331D01*
X219445893Y-97202634D01*
X219429541Y-97209267D01*
X219412949Y-97215198D01*
X219399570Y-97216534D01*
X219393145Y-97216982D01*
X219386866Y-97217266D01*
X219380710Y-97217371D01*
X219374656Y-97217284D01*
X219368680Y-97216991D01*
X219362760Y-97216478D01*
X219356874Y-97215731D01*
X219350999Y-97214736D01*
X219345113Y-97213480D01*
X219339193Y-97211949D01*
X219333216Y-97210129D01*
X219327160Y-97208006D01*
X219321003Y-97205566D01*
X219314722Y-97202796D01*
X219308780Y-97197047D01*
X219303354Y-97191316D01*
X219298418Y-97185577D01*
X219293947Y-97179805D01*
X219289915Y-97173973D01*
X219286295Y-97168057D01*
X219283061Y-97162030D01*
X219280189Y-97155867D01*
X219277652Y-97149544D01*
X219275424Y-97143033D01*
X219273479Y-97136310D01*
X219271792Y-97129349D01*
X219270336Y-97122125D01*
X219269085Y-97114612D01*
X219268014Y-97106784D01*
X219267097Y-97098616D01*
X219267451Y-97091999D01*
X219267993Y-97085440D01*
X219268712Y-97078931D01*
X219269593Y-97072468D01*
X219270622Y-97066045D01*
X219271786Y-97059655D01*
X219274461Y-97046953D01*
X219277508Y-97034317D01*
X219280817Y-97021698D01*
X219287778Y-96996328D01*
X219289703Y-96987267D01*
X219291403Y-96978268D01*
X219292897Y-96969303D01*
X219294207Y-96960344D01*
X219295352Y-96951362D01*
X219296353Y-96942328D01*
X219297230Y-96933215D01*
X219298004Y-96923993D01*
X219300530Y-96899361D01*
X219304010Y-96874916D01*
X219308366Y-96850647D01*
X219313522Y-96826541D01*
X219319398Y-96802587D01*
X219325919Y-96778772D01*
X219340582Y-96731516D01*
X219356888Y-96684679D01*
X219374218Y-96638166D01*
X219409463Y-96545737D01*
X219421220Y-96513281D01*
X219432446Y-96480718D01*
X219443170Y-96448039D01*
X219453423Y-96415233D01*
X219463237Y-96382290D01*
X219472640Y-96349201D01*
X219481664Y-96315955D01*
X219490340Y-96282542D01*
X219495413Y-96262700D01*
X219500137Y-96243599D01*
X219504284Y-96226902D01*
X219507631Y-96208593D01*
X219510430Y-96190321D01*
X219512719Y-96172060D01*
X219514532Y-96153783D01*
X219515906Y-96135466D01*
X219516877Y-96117082D01*
X219517479Y-96098606D01*
X219517749Y-96080012D01*
X219517886Y-96062283D01*
X219518043Y-96025383D01*
X219518265Y-95997615D01*
X219518617Y-95969848D01*
X219518529Y-95943980D01*
X219517802Y-95918672D01*
X219516297Y-95893779D01*
X219513878Y-95869160D01*
X219512283Y-95856909D01*
X219510409Y-95844672D01*
X219508237Y-95832433D01*
X219505751Y-95820174D01*
X219502934Y-95807876D01*
X219499769Y-95795521D01*
X219496238Y-95783093D01*
X219492324Y-95770573D01*
X219487158Y-95754357D01*
X219480895Y-95736328D01*
X219474302Y-95718596D01*
X219467255Y-95701185D01*
X219459631Y-95684118D01*
X219455564Y-95675721D01*
X219451306Y-95667418D01*
X219446842Y-95659214D01*
X219442156Y-95651110D01*
X219437233Y-95643110D01*
X219432057Y-95635217D01*
X219426614Y-95627432D01*
X219420886Y-95619761D01*
X219411903Y-95620358D01*
X219403273Y-95621326D01*
X219394957Y-95622651D01*
X219386917Y-95624318D01*
X219379117Y-95626314D01*
X219371518Y-95628625D01*
X219364082Y-95631236D01*
X219356772Y-95634134D01*
X219349549Y-95637305D01*
X219342375Y-95640734D01*
X219335214Y-95644408D01*
X219328026Y-95648313D01*
X219313422Y-95656758D01*
X219298258Y-95665959D01*
X219291542Y-95669047D01*
X219288760Y-95670289D01*
X219286289Y-95671345D01*
X219284075Y-95672226D01*
X219282063Y-95672944D01*
X219280200Y-95673509D01*
X219278430Y-95673932D01*
X219276699Y-95674224D01*
X219274954Y-95674398D01*
X219273138Y-95674463D01*
X219271199Y-95674431D01*
X219269081Y-95674314D01*
X219266731Y-95674121D01*
X219261113Y-95673556D01*
X219253122Y-95670154D01*
X219245205Y-95666628D01*
X219237351Y-95662991D01*
X219229548Y-95659255D01*
X219214054Y-95651537D01*
X219198636Y-95643573D01*
X219198127Y-95638845D01*
X219197820Y-95634156D01*
X219197781Y-95624888D01*
X219198458Y-95615761D01*
X219199790Y-95606767D01*
X219201717Y-95597897D01*
X219204178Y-95589143D01*
X219207112Y-95580497D01*
X219210458Y-95571950D01*
X219214156Y-95563495D01*
X219218144Y-95555122D01*
X219226750Y-95538591D01*
X219244773Y-95506155D01*
X219250000Y-95500000D01*
X219255387Y-95494181D01*
X219260938Y-95488692D01*
X219266656Y-95483529D01*
X219272544Y-95478686D01*
X219278604Y-95474159D01*
X219284842Y-95469943D01*
X219291259Y-95466031D01*
X219297859Y-95462421D01*
X219304645Y-95459105D01*
X219311620Y-95456081D01*
X219318788Y-95453341D01*
X219326151Y-95450882D01*
X219333714Y-95448698D01*
X219341479Y-95446784D01*
X219349449Y-95445136D01*
X219373109Y-95443500D01*
X219396214Y-95442508D01*
X219407563Y-95442403D01*
X219418779Y-95442639D01*
G37*
D11*
X216500000Y-89000000D02*
X212500000Y-89000000D01*
X212500000Y-86500000D01*
X213500000Y-87500000D01*
X214500000Y-86500000D01*
X215500000Y-87500000D01*
X216500000Y-86500000D01*
X216500000Y-89000000D01*
G36*
X216500000Y-89000000D02*
G01*
X212500000Y-89000000D01*
X212500000Y-86500000D01*
X213500000Y-87500000D01*
X214500000Y-86500000D01*
X215500000Y-87500000D01*
X216500000Y-86500000D01*
X216500000Y-89000000D01*
G37*
D10*
G36*
X223610069Y-93292078D02*
G01*
X223634191Y-93292295D01*
X223652732Y-93292574D01*
X223652732Y-93308449D01*
X223667615Y-93314402D01*
X223671245Y-93316606D01*
X223674519Y-93318741D01*
X223677466Y-93320834D01*
X223680119Y-93322912D01*
X223682509Y-93324999D01*
X223684667Y-93327122D01*
X223686624Y-93329307D01*
X223688411Y-93331580D01*
X223690060Y-93333968D01*
X223691602Y-93336496D01*
X223693069Y-93339190D01*
X223694490Y-93342078D01*
X223695899Y-93345183D01*
X223697326Y-93348534D01*
X223700358Y-93356074D01*
X223700878Y-93363295D01*
X223701161Y-93370224D01*
X223701195Y-93376888D01*
X223700964Y-93383315D01*
X223700456Y-93389532D01*
X223699657Y-93395565D01*
X223698552Y-93401443D01*
X223697127Y-93407192D01*
X223695370Y-93412839D01*
X223693265Y-93418413D01*
X223690800Y-93423939D01*
X223687960Y-93429446D01*
X223684731Y-93434960D01*
X223681100Y-93440509D01*
X223677053Y-93446120D01*
X223672576Y-93451820D01*
X223667679Y-93455043D01*
X223662816Y-93457914D01*
X223657972Y-93460450D01*
X223653135Y-93462667D01*
X223648291Y-93464584D01*
X223643426Y-93466216D01*
X223638528Y-93467581D01*
X223633583Y-93468696D01*
X223628577Y-93469577D01*
X223623498Y-93470242D01*
X223618331Y-93470708D01*
X223613064Y-93470991D01*
X223607682Y-93471109D01*
X223602174Y-93471079D01*
X223596524Y-93470917D01*
X223590721Y-93470640D01*
X223585803Y-93469562D01*
X223581081Y-93468320D01*
X223576538Y-93466918D01*
X223572155Y-93465358D01*
X223567917Y-93463643D01*
X223563804Y-93461777D01*
X223559800Y-93459762D01*
X223555886Y-93457602D01*
X223552046Y-93455300D01*
X223548261Y-93452858D01*
X223544514Y-93450280D01*
X223540787Y-93447568D01*
X223537064Y-93444726D01*
X223533325Y-93441757D01*
X223525733Y-93435449D01*
X223523334Y-93430264D01*
X223521286Y-93425030D01*
X223519566Y-93419751D01*
X223518155Y-93414428D01*
X223517032Y-93409064D01*
X223516176Y-93403662D01*
X223515567Y-93398225D01*
X223515184Y-93392756D01*
X223515007Y-93387256D01*
X223515015Y-93381728D01*
X223515187Y-93376176D01*
X223515503Y-93370602D01*
X223516485Y-93359398D01*
X223517795Y-93348136D01*
X223525511Y-93333798D01*
X223531607Y-93322875D01*
X223534222Y-93318490D01*
X223536641Y-93314715D01*
X223538935Y-93311467D01*
X223541172Y-93308667D01*
X223543423Y-93306231D01*
X223545757Y-93304080D01*
X223548244Y-93302131D01*
X223550955Y-93300303D01*
X223553958Y-93298514D01*
X223557323Y-93296684D01*
X223565420Y-93292574D01*
X223576578Y-93292237D01*
X223587741Y-93292052D01*
X223598905Y-93292004D01*
X223610069Y-93292078D01*
G37*
G36*
X219996812Y-93838860D02*
G01*
X220001815Y-93839711D01*
X220006563Y-93840716D01*
X220011076Y-93841887D01*
X220015377Y-93843234D01*
X220019489Y-93844771D01*
X220023433Y-93846507D01*
X220027232Y-93848454D01*
X220030908Y-93850625D01*
X220034483Y-93853029D01*
X220037980Y-93855678D01*
X220041420Y-93858584D01*
X220044826Y-93861758D01*
X220048220Y-93865212D01*
X220051624Y-93868957D01*
X220055061Y-93873003D01*
X220057750Y-93879552D01*
X220060101Y-93886053D01*
X220062117Y-93892517D01*
X220063800Y-93898953D01*
X220065153Y-93905372D01*
X220066179Y-93911784D01*
X220066880Y-93918199D01*
X220067260Y-93924625D01*
X220067320Y-93931074D01*
X220067064Y-93937556D01*
X220066494Y-93944079D01*
X220065613Y-93950655D01*
X220064423Y-93957293D01*
X220062928Y-93964003D01*
X220061129Y-93970795D01*
X220059030Y-93977679D01*
X220055794Y-93981931D01*
X220052563Y-93985931D01*
X220049315Y-93989686D01*
X220046032Y-93993200D01*
X220042692Y-93996480D01*
X220039276Y-93999530D01*
X220035764Y-94002356D01*
X220032136Y-94004963D01*
X220028373Y-94007358D01*
X220024454Y-94009545D01*
X220020359Y-94011529D01*
X220016068Y-94013317D01*
X220011562Y-94014913D01*
X220006821Y-94016323D01*
X220001824Y-94017553D01*
X219996553Y-94018607D01*
X219976499Y-94018784D01*
X219968268Y-94018769D01*
X219961054Y-94018640D01*
X219954726Y-94018366D01*
X219949148Y-94017915D01*
X219944187Y-94017254D01*
X219939710Y-94016351D01*
X219935582Y-94015174D01*
X219931670Y-94013690D01*
X219927841Y-94011866D01*
X219923959Y-94009672D01*
X219919892Y-94007073D01*
X219915506Y-94004038D01*
X219905241Y-93996531D01*
X219901340Y-93990738D01*
X219897830Y-93985092D01*
X219894697Y-93979562D01*
X219891929Y-93974115D01*
X219889513Y-93968721D01*
X219887435Y-93963347D01*
X219885683Y-93957962D01*
X219884243Y-93952534D01*
X219883103Y-93947031D01*
X219882250Y-93941422D01*
X219881670Y-93935675D01*
X219881351Y-93929758D01*
X219881279Y-93923640D01*
X219881442Y-93917289D01*
X219881827Y-93910674D01*
X219882420Y-93903761D01*
X219888318Y-93893456D01*
X219891183Y-93888705D01*
X219894031Y-93884192D01*
X219896893Y-93879894D01*
X219899800Y-93875788D01*
X219902781Y-93871851D01*
X219905868Y-93868061D01*
X219909090Y-93864393D01*
X219912478Y-93860827D01*
X219916062Y-93857338D01*
X219919872Y-93853904D01*
X219923939Y-93850503D01*
X219928293Y-93847110D01*
X219932964Y-93843704D01*
X219937983Y-93840261D01*
X219948003Y-93839044D01*
X219951678Y-93838674D01*
X219955013Y-93838432D01*
X219958420Y-93838294D01*
X219962312Y-93838238D01*
X219973205Y-93838277D01*
X219991530Y-93838153D01*
X219996812Y-93838860D01*
G37*
G36*
X222970350Y-92497409D02*
G01*
X222974849Y-92497586D01*
X222984138Y-92498143D01*
X222993920Y-92498824D01*
X222999415Y-92501336D01*
X223004528Y-92503833D01*
X223009281Y-92506344D01*
X223013701Y-92508901D01*
X223017811Y-92511535D01*
X223021634Y-92514276D01*
X223025197Y-92517155D01*
X223028521Y-92520203D01*
X223031633Y-92523452D01*
X223034556Y-92526931D01*
X223037314Y-92530672D01*
X223039932Y-92534706D01*
X223042433Y-92539064D01*
X223044843Y-92543776D01*
X223047185Y-92548873D01*
X223049483Y-92554386D01*
X223050591Y-92565885D01*
X223051354Y-92577398D01*
X223051831Y-92588923D01*
X223052079Y-92600457D01*
X223052127Y-92623549D01*
X223051963Y-92646660D01*
X223051880Y-92674267D01*
X223050765Y-92729059D01*
X223048538Y-92785008D01*
X223044881Y-92841631D01*
X223039472Y-92898445D01*
X223031992Y-92954967D01*
X223027375Y-92982967D01*
X223022120Y-93010713D01*
X223016187Y-93038145D01*
X223009536Y-93065202D01*
X223002127Y-93091823D01*
X222993920Y-93117949D01*
X222993175Y-93130841D01*
X222992523Y-93143738D01*
X222991439Y-93169543D01*
X222990065Y-93192438D01*
X222988197Y-93215229D01*
X222985899Y-93237940D01*
X222983231Y-93260595D01*
X222980256Y-93283216D01*
X222977036Y-93305827D01*
X222970108Y-93351113D01*
X222963159Y-93397290D01*
X222960007Y-93420321D01*
X222957145Y-93443356D01*
X222954633Y-93466426D01*
X222952527Y-93489562D01*
X222950886Y-93512795D01*
X222949767Y-93536156D01*
X222948292Y-93563811D01*
X222945937Y-93591221D01*
X222942758Y-93618434D01*
X222938813Y-93645498D01*
X222934159Y-93672463D01*
X222928851Y-93699376D01*
X222922948Y-93726287D01*
X222916506Y-93753243D01*
X222910706Y-93780012D01*
X222905986Y-93806615D01*
X222902245Y-93833134D01*
X222899382Y-93859649D01*
X222897297Y-93886238D01*
X222895889Y-93912984D01*
X222895057Y-93939965D01*
X222894701Y-93967261D01*
X222894340Y-93994365D01*
X222893493Y-94021131D01*
X222892065Y-94047645D01*
X222889958Y-94073996D01*
X222887076Y-94100271D01*
X222883325Y-94126556D01*
X222878607Y-94152941D01*
X222872826Y-94179512D01*
X222869213Y-94196466D01*
X222866052Y-94213478D01*
X222863270Y-94230541D01*
X222860794Y-94247648D01*
X222856472Y-94281969D01*
X222852503Y-94316387D01*
X222850291Y-94332574D01*
X222847733Y-94348500D01*
X222844824Y-94364227D01*
X222841553Y-94379813D01*
X222837914Y-94395318D01*
X222833899Y-94410801D01*
X222829500Y-94426323D01*
X222824710Y-94441942D01*
X222816181Y-94471888D01*
X222808901Y-94502462D01*
X222802766Y-94533585D01*
X222797671Y-94565175D01*
X222793512Y-94597152D01*
X222790184Y-94629437D01*
X222785603Y-94694606D01*
X222783091Y-94760041D01*
X222781813Y-94825098D01*
X222779607Y-94951511D01*
X222786559Y-94945881D01*
X222793202Y-94940048D01*
X222799548Y-94934018D01*
X222805610Y-94927801D01*
X222811398Y-94921404D01*
X222816924Y-94914835D01*
X222827239Y-94901213D01*
X222836648Y-94886996D01*
X222845244Y-94872249D01*
X222853121Y-94857033D01*
X222860373Y-94841413D01*
X222867093Y-94825451D01*
X222873375Y-94809209D01*
X222884999Y-94776139D01*
X222907104Y-94709418D01*
X222915243Y-94686132D01*
X222924486Y-94659159D01*
X222933446Y-94632134D01*
X222942045Y-94604993D01*
X222950202Y-94577674D01*
X222954852Y-94562565D01*
X222959803Y-94547619D01*
X222965029Y-94532811D01*
X222970507Y-94518113D01*
X222976209Y-94503498D01*
X222982112Y-94488939D01*
X222994416Y-94459882D01*
X223003795Y-94438124D01*
X223015183Y-94412710D01*
X223026935Y-94387515D01*
X223039017Y-94362509D01*
X223051396Y-94337664D01*
X223076919Y-94288341D01*
X223103239Y-94239314D01*
X223110430Y-94225901D01*
X223117553Y-94212455D01*
X223131648Y-94185481D01*
X223151910Y-94146930D01*
X223172639Y-94108760D01*
X223183269Y-94089831D01*
X223194126Y-94071015D01*
X223205246Y-94052315D01*
X223216666Y-94033738D01*
X223243244Y-93989704D01*
X223268216Y-93945224D01*
X223291581Y-93900202D01*
X223313342Y-93854545D01*
X223333498Y-93808156D01*
X223352050Y-93760941D01*
X223368999Y-93712805D01*
X223384346Y-93663652D01*
X223387401Y-93653685D01*
X223390581Y-93644023D01*
X223393927Y-93634663D01*
X223397477Y-93625601D01*
X223401270Y-93616833D01*
X223405345Y-93608354D01*
X223409740Y-93600162D01*
X223414496Y-93592251D01*
X223419650Y-93584618D01*
X223425243Y-93577259D01*
X223431312Y-93570171D01*
X223437896Y-93563348D01*
X223445035Y-93556787D01*
X223452768Y-93550484D01*
X223461134Y-93544435D01*
X223470170Y-93538636D01*
X223479933Y-93537130D01*
X223484563Y-93536522D01*
X223489052Y-93536037D01*
X223493421Y-93535694D01*
X223497693Y-93535515D01*
X223501887Y-93535517D01*
X223506024Y-93535723D01*
X223510125Y-93536151D01*
X223514212Y-93536821D01*
X223518305Y-93537753D01*
X223522425Y-93538967D01*
X223526593Y-93540482D01*
X223530829Y-93542320D01*
X223535155Y-93544499D01*
X223539592Y-93547039D01*
X223548010Y-93553930D01*
X223551965Y-93557293D01*
X223555738Y-93560642D01*
X223559320Y-93564006D01*
X223562699Y-93567416D01*
X223565866Y-93570901D01*
X223568811Y-93574491D01*
X223571525Y-93578217D01*
X223573996Y-93582108D01*
X223575138Y-93584125D01*
X223576216Y-93586194D01*
X223577228Y-93588319D01*
X223578173Y-93590505D01*
X223579051Y-93592754D01*
X223579859Y-93595071D01*
X223580597Y-93597460D01*
X223581264Y-93599923D01*
X223581857Y-93602465D01*
X223582376Y-93605089D01*
X223582820Y-93607800D01*
X223583187Y-93610601D01*
X223583353Y-93618846D01*
X223583343Y-93626814D01*
X223583146Y-93634537D01*
X223582750Y-93642045D01*
X223582142Y-93649370D01*
X223581310Y-93656543D01*
X223580243Y-93663595D01*
X223578928Y-93670556D01*
X223577353Y-93677459D01*
X223575506Y-93684334D01*
X223573375Y-93691213D01*
X223570949Y-93698126D01*
X223568214Y-93705105D01*
X223565159Y-93712181D01*
X223561772Y-93719385D01*
X223558041Y-93726749D01*
X223553107Y-93738010D01*
X223548713Y-93749358D01*
X223544817Y-93760789D01*
X223541380Y-93772299D01*
X223538359Y-93783885D01*
X223535712Y-93795541D01*
X223533399Y-93807265D01*
X223531378Y-93819052D01*
X223528048Y-93842802D01*
X223525391Y-93866759D01*
X223520772Y-93915172D01*
X223517547Y-93946534D01*
X223509858Y-94022824D01*
X223528555Y-94029955D01*
X223533099Y-94031885D01*
X223537361Y-94033779D01*
X223541366Y-94035662D01*
X223545138Y-94037560D01*
X223548702Y-94039496D01*
X223552084Y-94041497D01*
X223555307Y-94043586D01*
X223558397Y-94045788D01*
X223561379Y-94048128D01*
X223564277Y-94050630D01*
X223567116Y-94053320D01*
X223569920Y-94056223D01*
X223572716Y-94059362D01*
X223575527Y-94062763D01*
X223578379Y-94066450D01*
X223581295Y-94070449D01*
X223582539Y-94080149D01*
X223583007Y-94084988D01*
X223583365Y-94089818D01*
X223583608Y-94094639D01*
X223583732Y-94099452D01*
X223583732Y-94104257D01*
X223583602Y-94109053D01*
X223583338Y-94113841D01*
X223582934Y-94118620D01*
X223582387Y-94123390D01*
X223581690Y-94128151D01*
X223580838Y-94132904D01*
X223579828Y-94137647D01*
X223578653Y-94142382D01*
X223577309Y-94147107D01*
X223576341Y-94151962D01*
X223575496Y-94156813D01*
X223574765Y-94161660D01*
X223574139Y-94166506D01*
X223573171Y-94176199D01*
X223572523Y-94185903D01*
X223572125Y-94195628D01*
X223571909Y-94205386D01*
X223571745Y-94225044D01*
X223571607Y-94242490D01*
X223571451Y-94279037D01*
X223571229Y-94306627D01*
X223570877Y-94334216D01*
X223570512Y-94365062D01*
X223570574Y-94389314D01*
X223570861Y-94399629D01*
X223571371Y-94409089D01*
X223572142Y-94417960D01*
X223573212Y-94426506D01*
X223574619Y-94434992D01*
X223576404Y-94443683D01*
X223578603Y-94452843D01*
X223581255Y-94462737D01*
X223588075Y-94485786D01*
X223597170Y-94514949D01*
X223600498Y-94516550D01*
X223603665Y-94517946D01*
X223606697Y-94519149D01*
X223609620Y-94520175D01*
X223612461Y-94521037D01*
X223615247Y-94521748D01*
X223618003Y-94522324D01*
X223620756Y-94522776D01*
X223623533Y-94523121D01*
X223626360Y-94523371D01*
X223629263Y-94523540D01*
X223632269Y-94523642D01*
X223638695Y-94523702D01*
X223645849Y-94523661D01*
X223665228Y-94523584D01*
X223685475Y-94523382D01*
X223705908Y-94523274D01*
X223755920Y-94522886D01*
X223756540Y-94496097D01*
X223758224Y-94453663D01*
X223761090Y-94409808D01*
X223763225Y-94387628D01*
X223765967Y-94365428D01*
X223769420Y-94343321D01*
X223773688Y-94321419D01*
X223778874Y-94299834D01*
X223785082Y-94278676D01*
X223792417Y-94258060D01*
X223800982Y-94238095D01*
X223810881Y-94218895D01*
X223822217Y-94200572D01*
X223835096Y-94183236D01*
X223842146Y-94174974D01*
X223849620Y-94167001D01*
X223856811Y-94160796D01*
X223863721Y-94155165D01*
X223870410Y-94150085D01*
X223876943Y-94145533D01*
X223883381Y-94141486D01*
X223889788Y-94137922D01*
X223896226Y-94134818D01*
X223902758Y-94132151D01*
X223909447Y-94129898D01*
X223916355Y-94128036D01*
X223923545Y-94126543D01*
X223931080Y-94125396D01*
X223939023Y-94124572D01*
X223947436Y-94124048D01*
X223956382Y-94123801D01*
X223965923Y-94123810D01*
X223971380Y-94124506D01*
X223976539Y-94125374D01*
X223981427Y-94126416D01*
X223986075Y-94127638D01*
X223990512Y-94129043D01*
X223994766Y-94130635D01*
X223998868Y-94132418D01*
X224002846Y-94134397D01*
X224006730Y-94136575D01*
X224010548Y-94138958D01*
X224014331Y-94141548D01*
X224018108Y-94144350D01*
X224021907Y-94147368D01*
X224025758Y-94150607D01*
X224029690Y-94154070D01*
X224033732Y-94157761D01*
X224039089Y-94165605D01*
X224043743Y-94173500D01*
X224047735Y-94181454D01*
X224051104Y-94189471D01*
X224053890Y-94197558D01*
X224056134Y-94205719D01*
X224057875Y-94213961D01*
X224059154Y-94222289D01*
X224060010Y-94230709D01*
X224060485Y-94239227D01*
X224060617Y-94247847D01*
X224060447Y-94256577D01*
X224060014Y-94265421D01*
X224059360Y-94274386D01*
X224057545Y-94292699D01*
X224054237Y-94307802D01*
X224050698Y-94322806D01*
X224046949Y-94337731D01*
X224043011Y-94352592D01*
X224034653Y-94382197D01*
X224025795Y-94411761D01*
X224018291Y-94437186D01*
X224012087Y-94456081D01*
X224005403Y-94474523D01*
X223998233Y-94492591D01*
X223990574Y-94510366D01*
X223982420Y-94527926D01*
X223973767Y-94545352D01*
X223964611Y-94562725D01*
X223954947Y-94580123D01*
X223953134Y-94585077D01*
X223951612Y-94589777D01*
X223950370Y-94594262D01*
X223949395Y-94598567D01*
X223948676Y-94602731D01*
X223948202Y-94606791D01*
X223947960Y-94610784D01*
X223947940Y-94614748D01*
X223948130Y-94618720D01*
X223948517Y-94622737D01*
X223949092Y-94626837D01*
X223949841Y-94631057D01*
X223950754Y-94635435D01*
X223951818Y-94640007D01*
X223954357Y-94649886D01*
X223958921Y-94659552D01*
X223963777Y-94668761D01*
X223968930Y-94677533D01*
X223974386Y-94685888D01*
X223980149Y-94693846D01*
X223986227Y-94701428D01*
X223992623Y-94708654D01*
X223999345Y-94715544D01*
X224006397Y-94722119D01*
X224013785Y-94728399D01*
X224021515Y-94734403D01*
X224029592Y-94740153D01*
X224038022Y-94745669D01*
X224046810Y-94750970D01*
X224055962Y-94756077D01*
X224065483Y-94761011D01*
X224081628Y-94761363D01*
X224097732Y-94761564D01*
X224113835Y-94761612D01*
X224129975Y-94761507D01*
X224148113Y-94761399D01*
X224192482Y-94761011D01*
X224181072Y-94726285D01*
X224174654Y-94706751D01*
X224172789Y-94701023D01*
X224171286Y-94696526D01*
X224169982Y-94692873D01*
X224169353Y-94691241D01*
X224168713Y-94689675D01*
X224168041Y-94688126D01*
X224167317Y-94686546D01*
X224165630Y-94683099D01*
X224163490Y-94678946D01*
X224160733Y-94673699D01*
X224158626Y-94636773D01*
X224158031Y-94618134D01*
X224157855Y-94599447D01*
X224158182Y-94580764D01*
X224159098Y-94562137D01*
X224160686Y-94543618D01*
X224163033Y-94525260D01*
X224166222Y-94507115D01*
X224170339Y-94489234D01*
X224175468Y-94471670D01*
X224181695Y-94454475D01*
X224189104Y-94437702D01*
X224197780Y-94421401D01*
X224207807Y-94405626D01*
X224219271Y-94390429D01*
X224225619Y-94384303D01*
X224231909Y-94378560D01*
X224238174Y-94373197D01*
X224244447Y-94368211D01*
X224250758Y-94363601D01*
X224257141Y-94359362D01*
X224263626Y-94355493D01*
X224270246Y-94351991D01*
X224277032Y-94348853D01*
X224284017Y-94346076D01*
X224291233Y-94343657D01*
X224298711Y-94341595D01*
X224306483Y-94339886D01*
X224314582Y-94338527D01*
X224323038Y-94337517D01*
X224331885Y-94336851D01*
X224340635Y-94337318D01*
X224344593Y-94337637D01*
X224348327Y-94338027D01*
X224351876Y-94338502D01*
X224355278Y-94339074D01*
X224358573Y-94339754D01*
X224361801Y-94340554D01*
X224365001Y-94341486D01*
X224368213Y-94342563D01*
X224371475Y-94343796D01*
X224374828Y-94345198D01*
X224378310Y-94346779D01*
X224381961Y-94348553D01*
X224385820Y-94350532D01*
X224389928Y-94352726D01*
X224398130Y-94362830D01*
X224405385Y-94373181D01*
X224411756Y-94383767D01*
X224417307Y-94394576D01*
X224422101Y-94405596D01*
X224426202Y-94416816D01*
X224429673Y-94428222D01*
X224432576Y-94439802D01*
X224434977Y-94451545D01*
X224436937Y-94463438D01*
X224438521Y-94475469D01*
X224439792Y-94487627D01*
X224441647Y-94512271D01*
X224443010Y-94537273D01*
X224444049Y-94556233D01*
X224446482Y-94602261D01*
X224456152Y-94593194D01*
X224503256Y-94549157D01*
X224550449Y-94505217D01*
X224569428Y-94487410D01*
X224588334Y-94469525D01*
X224606480Y-94452710D01*
X224625872Y-94435375D01*
X224635999Y-94426742D01*
X224646395Y-94418256D01*
X224657045Y-94410007D01*
X224667936Y-94402089D01*
X224679052Y-94394592D01*
X224690380Y-94387610D01*
X224701906Y-94381233D01*
X224713615Y-94375554D01*
X224725493Y-94370665D01*
X224731490Y-94368545D01*
X224737525Y-94366657D01*
X224743595Y-94365013D01*
X224749698Y-94363624D01*
X224755833Y-94362501D01*
X224761998Y-94361656D01*
X224767995Y-94362330D01*
X224773611Y-94363164D01*
X224778888Y-94364167D01*
X224783867Y-94365344D01*
X224788590Y-94366705D01*
X224793097Y-94368256D01*
X224797430Y-94370005D01*
X224801631Y-94371959D01*
X224805741Y-94374126D01*
X224809800Y-94376513D01*
X224813851Y-94379129D01*
X224817934Y-94381980D01*
X224822092Y-94385073D01*
X224826364Y-94388417D01*
X224835420Y-94395886D01*
X224840109Y-94403813D01*
X224844227Y-94411680D01*
X224847811Y-94419504D01*
X224850899Y-94427304D01*
X224853527Y-94435099D01*
X224855733Y-94442907D01*
X224857554Y-94450748D01*
X224859026Y-94458640D01*
X224860187Y-94466600D01*
X224861075Y-94474649D01*
X224861725Y-94482805D01*
X224862176Y-94491085D01*
X224862625Y-94508096D01*
X224862720Y-94525832D01*
X224863119Y-94534867D01*
X224863822Y-94543695D01*
X224864817Y-94552339D01*
X224866094Y-94560820D01*
X224867639Y-94569159D01*
X224869440Y-94577380D01*
X224871487Y-94585502D01*
X224873765Y-94593550D01*
X224876265Y-94601543D01*
X224878972Y-94609505D01*
X224884964Y-94625419D01*
X224891646Y-94641467D01*
X224898920Y-94657824D01*
X224912530Y-94659002D01*
X224942553Y-94662176D01*
X224972238Y-94666065D01*
X225001613Y-94670637D01*
X225030710Y-94675865D01*
X225059558Y-94681717D01*
X225088187Y-94688163D01*
X225144914Y-94702720D01*
X225201131Y-94719296D01*
X225257082Y-94737652D01*
X225313009Y-94757549D01*
X225369155Y-94778747D01*
X225418565Y-94796870D01*
X225468268Y-94814220D01*
X225567997Y-94847961D01*
X225622974Y-94867398D01*
X225676870Y-94887974D01*
X225729844Y-94909752D01*
X225782051Y-94932793D01*
X225833648Y-94957159D01*
X225884794Y-94982912D01*
X225935645Y-95010113D01*
X225986357Y-95038824D01*
X225986357Y-95205511D01*
X225962719Y-95205470D01*
X225944512Y-95205185D01*
X225937051Y-95204873D01*
X225930473Y-95204409D01*
X225924623Y-95203761D01*
X225919340Y-95202899D01*
X225914469Y-95201792D01*
X225909850Y-95200409D01*
X225905327Y-95198720D01*
X225900741Y-95196695D01*
X225895934Y-95194302D01*
X225890749Y-95191511D01*
X225878612Y-95184613D01*
X225854598Y-95171157D01*
X225830088Y-95156894D01*
X225789953Y-95134647D01*
X225749756Y-95113640D01*
X225709361Y-95093828D01*
X225668633Y-95075163D01*
X225627437Y-95057599D01*
X225585638Y-95041088D01*
X225543100Y-95025585D01*
X225499689Y-95011043D01*
X225449219Y-94994614D01*
X225398896Y-94977838D01*
X225348771Y-94960486D01*
X225298895Y-94942334D01*
X225283490Y-94936567D01*
X225258688Y-94926897D01*
X225234081Y-94916849D01*
X225209599Y-94906506D01*
X225185166Y-94895949D01*
X225170679Y-94890333D01*
X225156037Y-94885173D01*
X225141255Y-94880431D01*
X225126347Y-94876075D01*
X225111328Y-94872068D01*
X225096211Y-94868376D01*
X225065745Y-94861799D01*
X225035064Y-94856062D01*
X225004281Y-94850889D01*
X224942873Y-94841115D01*
X224925901Y-94838287D01*
X224902773Y-94834520D01*
X224879632Y-94830831D01*
X224867938Y-94828014D01*
X224856821Y-94824899D01*
X224846244Y-94821463D01*
X224836166Y-94817683D01*
X224826551Y-94813537D01*
X224817359Y-94809001D01*
X224808550Y-94804053D01*
X224800087Y-94798670D01*
X224791931Y-94792828D01*
X224784043Y-94786506D01*
X224776384Y-94779680D01*
X224768915Y-94772328D01*
X224761598Y-94764427D01*
X224754394Y-94755953D01*
X224747264Y-94746885D01*
X224740170Y-94737199D01*
X224731473Y-94722622D01*
X224723473Y-94708491D01*
X224719792Y-94701510D01*
X224716355Y-94694540D01*
X224713184Y-94687548D01*
X224710304Y-94680501D01*
X224707737Y-94673366D01*
X224705506Y-94666108D01*
X224703635Y-94658696D01*
X224702146Y-94651095D01*
X224701064Y-94643271D01*
X224700410Y-94635193D01*
X224700209Y-94626826D01*
X224700483Y-94618136D01*
X224693204Y-94622562D01*
X224686140Y-94627120D01*
X224679272Y-94631805D01*
X224672583Y-94636616D01*
X224666055Y-94641550D01*
X224659668Y-94646603D01*
X224653406Y-94651772D01*
X224647250Y-94657054D01*
X224635184Y-94667946D01*
X224623325Y-94679256D01*
X224611529Y-94690959D01*
X224599651Y-94703030D01*
X224589817Y-94712719D01*
X224579841Y-94722220D01*
X224569740Y-94731563D01*
X224559530Y-94740775D01*
X224538846Y-94758922D01*
X224517920Y-94776886D01*
X224503285Y-94790064D01*
X224494203Y-94797988D01*
X224485355Y-94805308D01*
X224476679Y-94812032D01*
X224468112Y-94818165D01*
X224459593Y-94823715D01*
X224451059Y-94828689D01*
X224442448Y-94833095D01*
X224433698Y-94836939D01*
X224424747Y-94840228D01*
X224415532Y-94842970D01*
X224405992Y-94845172D01*
X224396064Y-94846840D01*
X224385687Y-94847982D01*
X224374797Y-94848606D01*
X224363333Y-94848717D01*
X224351233Y-94848324D01*
X224346768Y-94862215D01*
X224343940Y-94866390D01*
X224340905Y-94870404D01*
X224337672Y-94874261D01*
X224334251Y-94877966D01*
X224330652Y-94881525D01*
X224326884Y-94884942D01*
X224322958Y-94888221D01*
X224318883Y-94891369D01*
X224310327Y-94897288D01*
X224301295Y-94902737D01*
X224291866Y-94907757D01*
X224282119Y-94912385D01*
X224272133Y-94916661D01*
X224261986Y-94920625D01*
X224251758Y-94924315D01*
X224241527Y-94927771D01*
X224202157Y-94940039D01*
X224184830Y-94943141D01*
X224167559Y-94945479D01*
X224150355Y-94947050D01*
X224133231Y-94947849D01*
X224116200Y-94947874D01*
X224099273Y-94947121D01*
X224082463Y-94945585D01*
X224065783Y-94943264D01*
X224049244Y-94940153D01*
X224032860Y-94936248D01*
X224016642Y-94931546D01*
X224000603Y-94926043D01*
X223984755Y-94919736D01*
X223969111Y-94912620D01*
X223953683Y-94904692D01*
X223938483Y-94895949D01*
X223925590Y-94886666D01*
X223912923Y-94876968D01*
X223900533Y-94866856D01*
X223888470Y-94856329D01*
X223876785Y-94845386D01*
X223865529Y-94834028D01*
X223854751Y-94822253D01*
X223844504Y-94810062D01*
X223834837Y-94797455D01*
X223825801Y-94784430D01*
X223817446Y-94770988D01*
X223809824Y-94757129D01*
X223802985Y-94742852D01*
X223796979Y-94728157D01*
X223791857Y-94713043D01*
X223787670Y-94697511D01*
X223772549Y-94698015D01*
X223696488Y-94700087D01*
X223638447Y-94700878D01*
X223615076Y-94700589D01*
X223594881Y-94699733D01*
X223577420Y-94698228D01*
X223562248Y-94695993D01*
X223548924Y-94692944D01*
X223537004Y-94689001D01*
X223526046Y-94684081D01*
X223515606Y-94678101D01*
X223505241Y-94670981D01*
X223494509Y-94662636D01*
X223470170Y-94641949D01*
X223458215Y-94627067D01*
X223447637Y-94611758D01*
X223438355Y-94596050D01*
X223430288Y-94579969D01*
X223423352Y-94563544D01*
X223417465Y-94546802D01*
X223412546Y-94529772D01*
X223408511Y-94512482D01*
X223405280Y-94494958D01*
X223402769Y-94477229D01*
X223400897Y-94459323D01*
X223399581Y-94441267D01*
X223398739Y-94423090D01*
X223398289Y-94404818D01*
X223398237Y-94368105D01*
X223398345Y-94346029D01*
X223398733Y-94292699D01*
X223380005Y-94289846D01*
X223374799Y-94288455D01*
X223370047Y-94286917D01*
X223365706Y-94285224D01*
X223363676Y-94284317D01*
X223361734Y-94283368D01*
X223359873Y-94282376D01*
X223358088Y-94281339D01*
X223356374Y-94280257D01*
X223354725Y-94279128D01*
X223351603Y-94276727D01*
X223348679Y-94274126D01*
X223345911Y-94271317D01*
X223343255Y-94268291D01*
X223340669Y-94265038D01*
X223338110Y-94261551D01*
X223335536Y-94257820D01*
X223332904Y-94253836D01*
X223327295Y-94245074D01*
X223325103Y-94235195D01*
X223323039Y-94225287D01*
X223321118Y-94215351D01*
X223319357Y-94205386D01*
X223307699Y-94228703D01*
X223300008Y-94244083D01*
X223282912Y-94278294D01*
X223239456Y-94364912D01*
X223215805Y-94412098D01*
X223192357Y-94459386D01*
X223184815Y-94474610D01*
X223170308Y-94505042D01*
X223156680Y-94535557D01*
X223143858Y-94566215D01*
X223131769Y-94597075D01*
X223120341Y-94628198D01*
X223109500Y-94659643D01*
X223099176Y-94691471D01*
X223089294Y-94723742D01*
X223072113Y-94780015D01*
X223053582Y-94835467D01*
X223043500Y-94862662D01*
X223032708Y-94889383D01*
X223021083Y-94915541D01*
X223008500Y-94941045D01*
X222994835Y-94965807D01*
X222979965Y-94989737D01*
X222963766Y-95012745D01*
X222946113Y-95034741D01*
X222926882Y-95055636D01*
X222905951Y-95075341D01*
X222883193Y-95093765D01*
X222858486Y-95110819D01*
X222850261Y-95116338D01*
X222842188Y-95121972D01*
X222834243Y-95127716D01*
X222826397Y-95133564D01*
X222818625Y-95139510D01*
X222810899Y-95145550D01*
X222795483Y-95157886D01*
X222790283Y-95160290D01*
X222785041Y-95162338D01*
X222779758Y-95164051D01*
X222774436Y-95165453D01*
X222769077Y-95166563D01*
X222763682Y-95167405D01*
X222758253Y-95168000D01*
X222752793Y-95168369D01*
X222747302Y-95168535D01*
X222741783Y-95168519D01*
X222736237Y-95168343D01*
X222730667Y-95168029D01*
X222719458Y-95167072D01*
X222708170Y-95165824D01*
X222700784Y-95162160D01*
X222693778Y-95158310D01*
X222687139Y-95154263D01*
X222680856Y-95150008D01*
X222674915Y-95145533D01*
X222669306Y-95140827D01*
X222664017Y-95135877D01*
X222659034Y-95130674D01*
X222654347Y-95125204D01*
X222649943Y-95119457D01*
X222645811Y-95113422D01*
X222641937Y-95107086D01*
X222638311Y-95100438D01*
X222634920Y-95093468D01*
X222631752Y-95086162D01*
X222628795Y-95078511D01*
X222625795Y-95064619D01*
X222623145Y-95050727D01*
X222620824Y-95036831D01*
X222618811Y-95022929D01*
X222615631Y-94995100D01*
X222613440Y-94967222D01*
X222612074Y-94939277D01*
X222611369Y-94911245D01*
X222611161Y-94883110D01*
X222611287Y-94854852D01*
X222611423Y-94827691D01*
X222611447Y-94800528D01*
X222611800Y-94764519D01*
X222612273Y-94746697D01*
X222613052Y-94728943D01*
X222614219Y-94711219D01*
X222615854Y-94693484D01*
X222618040Y-94675699D01*
X222620858Y-94657824D01*
X222621298Y-94648303D01*
X222621633Y-94638777D01*
X222621859Y-94629248D01*
X222621974Y-94619717D01*
X222622698Y-94590872D01*
X222623947Y-94562645D01*
X222625909Y-94534890D01*
X222628773Y-94507461D01*
X222630603Y-94493822D01*
X222632729Y-94480209D01*
X222635176Y-94466604D01*
X222637967Y-94452989D01*
X222641125Y-94439345D01*
X222644675Y-94425653D01*
X222648640Y-94411896D01*
X222653044Y-94398055D01*
X222656620Y-94386793D01*
X222659948Y-94375506D01*
X222665926Y-94352858D01*
X222671113Y-94330105D01*
X222675642Y-94307243D01*
X222679648Y-94284267D01*
X222683267Y-94261174D01*
X222689880Y-94214614D01*
X222692553Y-94196283D01*
X222695371Y-94177975D01*
X222701225Y-94141390D01*
X222705269Y-94114031D01*
X222708651Y-94086765D01*
X222711398Y-94059547D01*
X222713540Y-94032333D01*
X222715103Y-94005078D01*
X222716116Y-93977736D01*
X222716607Y-93950263D01*
X222716604Y-93922613D01*
X222716496Y-93898460D01*
X222716107Y-93840261D01*
X222711763Y-93853422D01*
X222662479Y-94002170D01*
X222633998Y-94085987D01*
X222624168Y-94113175D01*
X222615472Y-94135684D01*
X222596053Y-94182070D01*
X222590273Y-94196830D01*
X222585028Y-94211706D01*
X222580240Y-94226688D01*
X222575833Y-94241771D01*
X222571730Y-94256947D01*
X222567856Y-94272209D01*
X222560485Y-94302964D01*
X222556137Y-94320876D01*
X222551500Y-94338612D01*
X222549037Y-94347435D01*
X222546458Y-94356237D01*
X222543748Y-94365026D01*
X222540894Y-94373810D01*
X222538636Y-94380875D01*
X222536610Y-94387797D01*
X222534795Y-94394635D01*
X222533167Y-94401448D01*
X222531706Y-94408294D01*
X222530387Y-94415232D01*
X222529188Y-94422321D01*
X222528088Y-94429621D01*
X222517313Y-94476097D01*
X222503205Y-94522124D01*
X222486017Y-94567628D01*
X222466000Y-94612538D01*
X222443408Y-94656780D01*
X222418491Y-94700282D01*
X222391503Y-94742969D01*
X222362695Y-94784770D01*
X222332320Y-94825612D01*
X222300629Y-94865421D01*
X222267875Y-94904124D01*
X222234310Y-94941650D01*
X222200186Y-94977924D01*
X222165756Y-95012874D01*
X222096982Y-95078511D01*
X222090531Y-95081463D01*
X222083946Y-95083957D01*
X222077243Y-95086021D01*
X222070435Y-95087682D01*
X222063538Y-95088970D01*
X222056565Y-95089912D01*
X222049532Y-95090535D01*
X222042452Y-95090868D01*
X222035339Y-95090939D01*
X222028209Y-95090776D01*
X222021075Y-95090407D01*
X222013952Y-95089860D01*
X221999797Y-95088343D01*
X221985858Y-95086449D01*
X221980782Y-95083916D01*
X221975904Y-95081253D01*
X221971217Y-95078462D01*
X221966715Y-95075546D01*
X221962391Y-95072508D01*
X221958239Y-95069352D01*
X221954253Y-95066080D01*
X221950426Y-95062697D01*
X221946752Y-95059204D01*
X221943225Y-95055606D01*
X221939838Y-95051905D01*
X221936585Y-95048104D01*
X221933460Y-95044207D01*
X221930456Y-95040217D01*
X221924786Y-95031970D01*
X221919526Y-95023389D01*
X221914624Y-95014498D01*
X221910029Y-95005323D01*
X221905692Y-94995888D01*
X221901560Y-94986221D01*
X221897584Y-94976345D01*
X221889895Y-94956069D01*
X221882670Y-94935636D01*
X221874733Y-94919761D01*
X221873951Y-94905283D01*
X221873325Y-94890840D01*
X221872844Y-94876393D01*
X221872500Y-94861904D01*
X221872057Y-94844199D01*
X221870764Y-94787800D01*
X221873184Y-94738441D01*
X221874669Y-94699640D01*
X221874989Y-94683142D01*
X221874987Y-94668014D01*
X221874635Y-94653833D01*
X221873904Y-94640178D01*
X221872765Y-94626624D01*
X221871189Y-94612749D01*
X221869146Y-94598131D01*
X221866608Y-94582345D01*
X221859929Y-94545581D01*
X221850920Y-94499074D01*
X221847655Y-94512135D01*
X221838020Y-94550672D01*
X221827032Y-94594661D01*
X221815780Y-94639621D01*
X221804411Y-94684551D01*
X221797887Y-94710496D01*
X221791572Y-94736473D01*
X221785515Y-94762511D01*
X221779762Y-94788637D01*
X221775640Y-94807811D01*
X221771699Y-94826456D01*
X221767838Y-94845118D01*
X221763181Y-94866049D01*
X221760702Y-94876150D01*
X221758048Y-94886003D01*
X221755163Y-94895604D01*
X221751991Y-94904947D01*
X221748476Y-94914029D01*
X221744562Y-94922845D01*
X221740193Y-94931390D01*
X221735314Y-94939661D01*
X221729867Y-94947652D01*
X221723797Y-94955359D01*
X221717049Y-94962778D01*
X221709565Y-94969904D01*
X221701291Y-94976734D01*
X221692170Y-94983261D01*
X221687527Y-94985454D01*
X221683020Y-94987327D01*
X221678626Y-94988899D01*
X221674319Y-94990191D01*
X221670076Y-94991223D01*
X221665874Y-94992016D01*
X221661686Y-94992589D01*
X221657491Y-94992963D01*
X221653263Y-94993158D01*
X221648978Y-94993194D01*
X221644613Y-94993091D01*
X221640143Y-94992869D01*
X221630792Y-94992150D01*
X221620732Y-94991199D01*
X221610864Y-94986988D01*
X221601510Y-94982367D01*
X221592642Y-94977347D01*
X221584235Y-94971936D01*
X221576262Y-94966144D01*
X221568697Y-94959981D01*
X221561512Y-94953457D01*
X221554681Y-94946581D01*
X221548179Y-94939363D01*
X221541977Y-94931813D01*
X221536051Y-94923940D01*
X221530372Y-94915754D01*
X221524915Y-94907265D01*
X221519653Y-94898482D01*
X221514559Y-94889415D01*
X221509608Y-94880074D01*
X221505204Y-94869292D01*
X221500937Y-94858483D01*
X221496801Y-94847641D01*
X221492789Y-94836760D01*
X221488895Y-94825837D01*
X221485113Y-94814866D01*
X221477858Y-94792761D01*
X221473072Y-94798422D01*
X221468465Y-94804119D01*
X221464026Y-94809856D01*
X221459745Y-94815638D01*
X221455612Y-94821468D01*
X221451615Y-94827352D01*
X221447745Y-94833292D01*
X221443990Y-94839293D01*
X221436784Y-94851495D01*
X221429913Y-94863991D01*
X221423293Y-94876814D01*
X221416838Y-94889996D01*
X221400095Y-94923792D01*
X221386898Y-94950736D01*
X221373880Y-94977766D01*
X221353275Y-95020726D01*
X221337136Y-95053355D01*
X221330319Y-95066374D01*
X221324109Y-95077506D01*
X221318338Y-95086981D01*
X221312837Y-95095033D01*
X221307435Y-95101893D01*
X221301964Y-95107792D01*
X221296253Y-95112962D01*
X221290134Y-95117636D01*
X221283437Y-95122044D01*
X221275992Y-95126419D01*
X221258181Y-95135996D01*
X221250880Y-95138263D01*
X221243665Y-95140268D01*
X221236522Y-95142003D01*
X221229442Y-95143460D01*
X221222411Y-95144630D01*
X221215418Y-95145506D01*
X221208450Y-95146080D01*
X221201497Y-95146344D01*
X221194546Y-95146290D01*
X221187585Y-95145910D01*
X221180603Y-95145196D01*
X221173586Y-95144140D01*
X221166525Y-95142734D01*
X221159406Y-95140970D01*
X221152217Y-95138841D01*
X221144948Y-95136337D01*
X221139993Y-95133266D01*
X221135167Y-95130010D01*
X221130466Y-95126576D01*
X221125889Y-95122971D01*
X221121435Y-95119203D01*
X221117102Y-95115279D01*
X221108792Y-95106993D01*
X221100945Y-95098172D01*
X221093548Y-95088876D01*
X221086587Y-95079163D01*
X221080047Y-95069092D01*
X221073917Y-95058724D01*
X221068181Y-95048116D01*
X221062826Y-95037329D01*
X221057839Y-95026421D01*
X221053207Y-95015452D01*
X221048914Y-95004480D01*
X221044948Y-94993564D01*
X221041295Y-94982765D01*
X221037031Y-94965086D01*
X221033017Y-94947372D01*
X221029173Y-94929619D01*
X221025420Y-94911824D01*
X221019040Y-94889232D01*
X221012522Y-94866679D01*
X221008834Y-94852511D01*
X221005647Y-94838429D01*
X221002901Y-94824385D01*
X221000536Y-94810331D01*
X220998490Y-94796220D01*
X220996704Y-94782005D01*
X220995118Y-94767639D01*
X220993670Y-94753074D01*
X220985733Y-94737199D01*
X220972059Y-94756981D01*
X220922238Y-94828891D01*
X220872127Y-94900599D01*
X220858173Y-94920709D01*
X220844346Y-94940907D01*
X220821970Y-94973474D01*
X220812682Y-94986739D01*
X220804410Y-94998230D01*
X220796965Y-95008125D01*
X220790160Y-95016603D01*
X220783805Y-95023841D01*
X220777714Y-95030018D01*
X220771697Y-95035312D01*
X220765566Y-95039902D01*
X220759134Y-95043966D01*
X220752212Y-95047683D01*
X220744611Y-95051229D01*
X220736144Y-95054785D01*
X220715858Y-95062636D01*
X220708230Y-95063367D01*
X220700905Y-95063881D01*
X220693852Y-95064159D01*
X220687039Y-95064186D01*
X220680436Y-95063945D01*
X220674010Y-95063419D01*
X220667732Y-95062591D01*
X220661568Y-95061445D01*
X220655489Y-95059965D01*
X220649463Y-95058133D01*
X220643459Y-95055933D01*
X220637445Y-95053347D01*
X220631391Y-95050361D01*
X220625264Y-95046956D01*
X220619034Y-95043116D01*
X220612670Y-95038824D01*
X220601499Y-95024647D01*
X220591352Y-95010215D01*
X220582159Y-94995536D01*
X220573850Y-94980614D01*
X220566353Y-94965455D01*
X220559600Y-94950067D01*
X220553518Y-94934454D01*
X220548038Y-94918622D01*
X220543090Y-94902578D01*
X220538603Y-94886328D01*
X220534507Y-94869877D01*
X220530730Y-94853231D01*
X220523857Y-94819381D01*
X220517420Y-94784824D01*
X220508353Y-94799342D01*
X220444994Y-94900310D01*
X220396147Y-94976735D01*
X220376093Y-95007027D01*
X220358381Y-95032724D01*
X220342583Y-95054340D01*
X220328270Y-95072387D01*
X220315013Y-95087380D01*
X220302384Y-95099833D01*
X220289954Y-95110258D01*
X220277295Y-95119169D01*
X220263978Y-95127080D01*
X220249575Y-95134505D01*
X220215795Y-95149949D01*
X220191487Y-95170289D01*
X220184092Y-95176180D01*
X220176837Y-95181463D01*
X220169683Y-95186168D01*
X220162592Y-95190323D01*
X220155526Y-95193957D01*
X220148445Y-95197100D01*
X220141311Y-95199781D01*
X220134086Y-95202029D01*
X220126731Y-95203873D01*
X220119207Y-95205343D01*
X220111476Y-95206467D01*
X220103499Y-95207276D01*
X220095238Y-95207797D01*
X220086654Y-95208060D01*
X220077708Y-95208094D01*
X220068362Y-95207930D01*
X220060877Y-95206738D01*
X220053762Y-95205107D01*
X220046990Y-95203057D01*
X220040534Y-95200609D01*
X220034366Y-95197786D01*
X220028458Y-95194608D01*
X220022784Y-95191095D01*
X220017316Y-95187271D01*
X220012025Y-95183155D01*
X220006886Y-95178768D01*
X220001869Y-95174133D01*
X219996948Y-95169270D01*
X219992095Y-95164201D01*
X219987283Y-95158946D01*
X219977670Y-95147964D01*
X219965130Y-95129265D01*
X219953718Y-95109997D01*
X219943392Y-95090210D01*
X219934111Y-95069952D01*
X219925835Y-95049274D01*
X219918522Y-95028225D01*
X219912132Y-95006854D01*
X219906623Y-94985209D01*
X219901955Y-94963341D01*
X219898086Y-94941299D01*
X219894976Y-94919131D01*
X219892583Y-94896888D01*
X219890867Y-94874618D01*
X219889785Y-94852370D01*
X219889299Y-94830195D01*
X219889365Y-94808140D01*
X219889582Y-94780436D01*
X219889916Y-94746911D01*
X219890358Y-94713386D01*
X219870576Y-94722688D01*
X219839950Y-94736918D01*
X219809242Y-94750858D01*
X219793812Y-94757643D01*
X219778305Y-94764263D01*
X219762703Y-94770688D01*
X219746987Y-94776886D01*
X219715171Y-94790138D01*
X219683894Y-94804402D01*
X219653065Y-94819522D01*
X219622596Y-94835341D01*
X219592398Y-94851703D01*
X219562382Y-94868450D01*
X219502536Y-94902475D01*
X219423054Y-94947487D01*
X219343173Y-94991866D01*
X219302995Y-95013620D01*
X219262614Y-95034978D01*
X219221993Y-95055859D01*
X219181099Y-95076186D01*
X219169998Y-95081657D01*
X219158930Y-95087194D01*
X219147893Y-95092793D01*
X219136884Y-95098448D01*
X219118715Y-95107625D01*
X219100500Y-95116471D01*
X219082213Y-95125004D01*
X219063827Y-95133240D01*
X219045319Y-95141197D01*
X219026662Y-95148891D01*
X219007831Y-95156340D01*
X218988801Y-95163560D01*
X218970829Y-95170423D01*
X218952933Y-95177447D01*
X218935091Y-95184605D01*
X218917280Y-95191873D01*
X218864372Y-95212762D01*
X218810875Y-95232114D01*
X218756800Y-95249559D01*
X218729550Y-95257451D01*
X218702160Y-95264725D01*
X218674633Y-95271338D01*
X218646969Y-95277241D01*
X218619171Y-95282388D01*
X218591239Y-95286734D01*
X218563176Y-95290231D01*
X218534984Y-95292833D01*
X218506663Y-95294493D01*
X218478215Y-95295167D01*
X218461777Y-95295356D01*
X218445341Y-95295655D01*
X218417364Y-95295639D01*
X218390350Y-95294372D01*
X218364226Y-95291863D01*
X218338921Y-95288120D01*
X218314362Y-95283150D01*
X218290476Y-95276963D01*
X218267190Y-95269567D01*
X218244433Y-95260970D01*
X218222131Y-95251180D01*
X218200211Y-95240205D01*
X218178602Y-95228054D01*
X218157231Y-95214736D01*
X218136024Y-95200258D01*
X218114911Y-95184628D01*
X218093817Y-95167856D01*
X218072670Y-95149949D01*
X218067025Y-95143931D01*
X218061418Y-95137877D01*
X218055856Y-95131782D01*
X218050346Y-95125640D01*
X218045032Y-95119844D01*
X218042801Y-95117508D01*
X218040780Y-95115516D01*
X218039831Y-95114642D01*
X218038915Y-95113845D01*
X218038025Y-95113124D01*
X218037153Y-95112474D01*
X218036293Y-95111894D01*
X218035438Y-95111379D01*
X218034581Y-95110929D01*
X218033715Y-95110539D01*
X218032834Y-95110207D01*
X218031931Y-95109930D01*
X218030999Y-95109706D01*
X218030031Y-95109530D01*
X218029020Y-95109402D01*
X218027960Y-95109317D01*
X218026844Y-95109274D01*
X218025664Y-95109268D01*
X218023089Y-95109360D01*
X218020179Y-95109572D01*
X218013139Y-95110261D01*
X218006529Y-95112711D01*
X218001351Y-95114687D01*
X217997169Y-95116403D01*
X217995315Y-95117231D01*
X217993546Y-95118074D01*
X217991809Y-95118960D01*
X217990047Y-95119916D01*
X217986236Y-95122144D01*
X217981676Y-95124972D01*
X217975932Y-95128617D01*
X217956698Y-95139699D01*
X217936651Y-95150352D01*
X217915879Y-95160516D01*
X217894471Y-95170131D01*
X217872515Y-95179140D01*
X217850100Y-95187484D01*
X217827315Y-95195104D01*
X217804248Y-95201940D01*
X217780989Y-95207935D01*
X217757626Y-95213029D01*
X217734248Y-95217163D01*
X217710943Y-95220280D01*
X217687801Y-95222319D01*
X217664909Y-95223222D01*
X217642357Y-95222931D01*
X217620233Y-95221386D01*
X217604984Y-95216821D01*
X217590092Y-95211771D01*
X217582785Y-95209035D01*
X217575572Y-95206140D01*
X217568457Y-95203076D01*
X217561441Y-95199829D01*
X217554525Y-95196388D01*
X217547713Y-95192741D01*
X217541005Y-95188874D01*
X217534404Y-95184775D01*
X217527912Y-95180434D01*
X217521531Y-95175836D01*
X217515262Y-95170970D01*
X217509108Y-95165824D01*
X217509108Y-95149949D01*
X217500127Y-95153517D01*
X217491303Y-95157247D01*
X217482622Y-95161132D01*
X217474071Y-95165165D01*
X217457305Y-95173652D01*
X217440894Y-95182659D01*
X217424732Y-95192134D01*
X217408709Y-95202029D01*
X217392718Y-95212292D01*
X217376651Y-95222875D01*
X217355297Y-95236914D01*
X217294795Y-95276949D01*
X217280091Y-95286685D01*
X217239778Y-95313507D01*
X217199545Y-95340449D01*
X217155457Y-95369846D01*
X217109380Y-95400569D01*
X217057042Y-95435358D01*
X217005839Y-95469584D01*
X216954838Y-95504104D01*
X216853179Y-95573655D01*
X216800686Y-95609487D01*
X216732577Y-95656507D01*
X216665151Y-95704457D01*
X216631743Y-95728851D01*
X216598566Y-95753562D01*
X216565639Y-95778618D01*
X216532981Y-95804048D01*
X216516719Y-95816759D01*
X216500363Y-95829349D01*
X216421571Y-95889622D01*
X216360062Y-95937701D01*
X216334230Y-95958667D01*
X216310847Y-95978384D01*
X216289290Y-95997452D01*
X216268934Y-96016470D01*
X216249157Y-96036039D01*
X216229334Y-96056758D01*
X216208841Y-96079227D01*
X216187055Y-96104045D01*
X216137106Y-96163131D01*
X216074498Y-96238812D01*
X216071146Y-96243613D01*
X216069698Y-96245616D01*
X216068336Y-96247414D01*
X216067011Y-96249050D01*
X216065672Y-96250571D01*
X216064271Y-96252019D01*
X216062758Y-96253439D01*
X216061083Y-96254877D01*
X216059197Y-96256375D01*
X216057051Y-96257979D01*
X216054593Y-96259733D01*
X216051776Y-96261681D01*
X216048550Y-96263868D01*
X216040670Y-96269136D01*
X216033940Y-96270153D01*
X216027405Y-96270991D01*
X216021047Y-96271633D01*
X216014846Y-96272061D01*
X216008781Y-96272258D01*
X216002833Y-96272207D01*
X215996982Y-96271891D01*
X215991208Y-96271292D01*
X215985492Y-96270393D01*
X215979813Y-96269177D01*
X215974152Y-96267627D01*
X215968489Y-96265724D01*
X215962804Y-96263453D01*
X215957078Y-96260796D01*
X215951290Y-96257735D01*
X215945420Y-96254253D01*
X215941287Y-96249703D01*
X215937560Y-96245259D01*
X215934221Y-96240890D01*
X215931253Y-96236566D01*
X215928638Y-96232254D01*
X215926359Y-96227924D01*
X215924397Y-96223545D01*
X215922735Y-96219085D01*
X215921355Y-96214514D01*
X215920240Y-96209801D01*
X215919371Y-96204914D01*
X215918732Y-96199822D01*
X215918304Y-96194494D01*
X215918070Y-96188899D01*
X215918012Y-96183006D01*
X215918112Y-96176783D01*
X215919844Y-96168686D01*
X215921996Y-96160677D01*
X215924547Y-96152756D01*
X215927478Y-96144923D01*
X215930770Y-96137177D01*
X215934404Y-96129517D01*
X215942618Y-96114457D01*
X215951964Y-96099740D01*
X215962288Y-96085361D01*
X215973433Y-96071318D01*
X215985245Y-96057608D01*
X215997568Y-96044227D01*
X216010247Y-96031173D01*
X216036050Y-96006030D01*
X216085086Y-95959516D01*
X216110558Y-95934315D01*
X216135920Y-95909003D01*
X216157868Y-95887359D01*
X216179939Y-95866022D01*
X216202195Y-95845007D01*
X216224700Y-95824329D01*
X216247518Y-95804001D01*
X216270712Y-95784037D01*
X216294346Y-95764453D01*
X216318483Y-95745261D01*
X216353706Y-95716488D01*
X216394866Y-95684126D01*
X216436365Y-95652263D01*
X216478191Y-95620874D01*
X216520333Y-95589930D01*
X216562780Y-95559405D01*
X216605520Y-95529272D01*
X216691836Y-95470073D01*
X216706605Y-95459984D01*
X216721308Y-95449804D01*
X216750581Y-95429250D01*
X216769925Y-95415750D01*
X216789362Y-95402402D01*
X216808888Y-95389185D01*
X216828498Y-95376074D01*
X216853925Y-95359155D01*
X216867653Y-95350025D01*
X216945297Y-95298281D01*
X216978877Y-95275895D01*
X216995911Y-95264538D01*
X217047151Y-95230378D01*
X217064029Y-95219126D01*
X217097293Y-95196953D01*
X217170045Y-95148408D01*
X217251864Y-95094130D01*
X217333987Y-95040312D01*
X217358063Y-95024576D01*
X217381333Y-95009399D01*
X217402043Y-94995887D01*
X217413803Y-94988410D01*
X217418125Y-94985743D01*
X217422056Y-94983415D01*
X217426086Y-94981145D01*
X217430700Y-94978652D01*
X217443635Y-94971867D01*
X217449868Y-94968301D01*
X217452411Y-94966791D01*
X217454619Y-94965406D01*
X217456527Y-94964105D01*
X217458171Y-94962847D01*
X217458906Y-94962221D01*
X217459587Y-94961591D01*
X217460221Y-94960950D01*
X217460810Y-94960293D01*
X217461360Y-94959616D01*
X217461876Y-94958913D01*
X217462361Y-94958180D01*
X217462820Y-94957410D01*
X217463678Y-94955741D01*
X217464486Y-94953865D01*
X217465278Y-94951741D01*
X217466092Y-94949326D01*
X217467922Y-94943459D01*
X217470010Y-94925125D01*
X217472633Y-94904522D01*
X217474877Y-94882554D01*
X217477618Y-94860059D01*
X217480306Y-94837325D01*
X217482881Y-94814578D01*
X217485074Y-94795319D01*
X217487372Y-94776074D01*
X217492173Y-94737608D01*
X217495008Y-94714588D01*
X217497760Y-94691558D01*
X217500105Y-94675061D01*
X217502766Y-94658696D01*
X217505761Y-94642391D01*
X217509108Y-94626074D01*
X217478084Y-94638431D01*
X217447096Y-94650878D01*
X217429810Y-94657700D01*
X217414256Y-94664189D01*
X217398867Y-94670968D01*
X217368542Y-94685321D01*
X217338745Y-94700619D01*
X217309388Y-94716719D01*
X217280383Y-94733480D01*
X217251640Y-94750760D01*
X217194584Y-94786312D01*
X217169491Y-94802065D01*
X217088068Y-94853776D01*
X217007049Y-94906119D01*
X216970125Y-94929830D01*
X216932985Y-94953173D01*
X216895673Y-94976243D01*
X216858233Y-94999136D01*
X216810608Y-95028406D01*
X216784997Y-95044157D01*
X216715668Y-95087069D01*
X216585996Y-95167305D01*
X216550177Y-95188964D01*
X216507710Y-95214210D01*
X216489296Y-95225315D01*
X216471070Y-95236648D01*
X216453003Y-95248230D01*
X216435065Y-95260082D01*
X216425900Y-95265614D01*
X216416498Y-95270839D01*
X216406878Y-95275738D01*
X216397059Y-95280291D01*
X216387061Y-95284478D01*
X216376903Y-95288279D01*
X216366605Y-95291676D01*
X216356187Y-95294647D01*
X216345668Y-95297174D01*
X216335068Y-95299237D01*
X216324407Y-95300816D01*
X216313703Y-95301891D01*
X216302977Y-95302443D01*
X216292247Y-95302451D01*
X216281534Y-95301898D01*
X216270858Y-95300761D01*
X216260452Y-95294901D01*
X216255677Y-95292054D01*
X216251152Y-95289222D01*
X216246854Y-95286373D01*
X216242757Y-95283478D01*
X216238836Y-95280505D01*
X216235067Y-95277424D01*
X216231424Y-95274204D01*
X216227882Y-95270814D01*
X216224417Y-95267224D01*
X216221003Y-95263404D01*
X216217615Y-95259322D01*
X216214228Y-95254947D01*
X216210817Y-95250250D01*
X216207358Y-95245199D01*
X216206352Y-95238333D01*
X216205665Y-95231513D01*
X216205288Y-95224740D01*
X216205208Y-95218014D01*
X216205897Y-95204698D01*
X216207642Y-95191565D01*
X216210356Y-95178610D01*
X216213948Y-95165832D01*
X216218331Y-95153229D01*
X216223414Y-95140798D01*
X216229108Y-95128536D01*
X216235325Y-95116442D01*
X216241975Y-95104513D01*
X216248970Y-95092746D01*
X216263636Y-95069691D01*
X216278609Y-95047257D01*
X216289597Y-95032586D01*
X216300710Y-95018027D01*
X216311952Y-95003568D01*
X216323328Y-94989195D01*
X216332769Y-94977258D01*
X216342157Y-94965280D01*
X216360837Y-94941248D01*
X216418291Y-94867361D01*
X216452801Y-94822929D01*
X216487155Y-94778375D01*
X216506192Y-94753632D01*
X216525150Y-94728798D01*
X216544020Y-94703898D01*
X216558950Y-94684372D01*
X216574031Y-94665013D01*
X216589273Y-94645814D01*
X216604685Y-94626770D01*
X216620279Y-94607873D01*
X216636065Y-94589117D01*
X216652054Y-94570495D01*
X216668256Y-94552003D01*
X216675307Y-94543897D01*
X216682113Y-94535853D01*
X216688629Y-94527768D01*
X216691765Y-94523679D01*
X216694813Y-94519543D01*
X216697767Y-94515345D01*
X216700621Y-94511074D01*
X216703371Y-94506717D01*
X216706010Y-94502261D01*
X216708534Y-94497694D01*
X216710937Y-94493003D01*
X216713213Y-94488176D01*
X216715358Y-94483199D01*
X216705436Y-94493400D01*
X216691545Y-94507507D01*
X216678151Y-94521181D01*
X216672250Y-94526786D01*
X216666321Y-94532331D01*
X216654370Y-94543272D01*
X216642287Y-94554066D01*
X216630061Y-94564775D01*
X216605256Y-94586658D01*
X216580744Y-94608835D01*
X216556450Y-94631252D01*
X216532299Y-94653855D01*
X216516223Y-94668893D01*
X216493290Y-94690633D01*
X216470578Y-94712572D01*
X216448057Y-94734708D01*
X216425699Y-94757039D01*
X216416629Y-94765891D01*
X216407415Y-94774569D01*
X216398076Y-94783100D01*
X216388634Y-94791511D01*
X216369519Y-94808085D01*
X216350233Y-94824511D01*
X216329490Y-94842309D01*
X216288322Y-94876473D01*
X216246573Y-94909761D01*
X216204267Y-94942232D01*
X216161423Y-94973945D01*
X216118063Y-95004958D01*
X216074210Y-95035331D01*
X216029884Y-95065120D01*
X215985108Y-95094386D01*
X215962908Y-95108711D01*
X215917760Y-95135937D01*
X215895211Y-95148770D01*
X215872613Y-95160975D01*
X215849920Y-95172472D01*
X215827084Y-95183182D01*
X215804056Y-95193023D01*
X215780789Y-95201917D01*
X215757234Y-95209783D01*
X215733345Y-95216540D01*
X215709073Y-95222109D01*
X215684371Y-95226410D01*
X215659189Y-95229362D01*
X215633482Y-95230885D01*
X215607200Y-95230899D01*
X215580295Y-95229324D01*
X215574455Y-95227569D01*
X215568958Y-95225709D01*
X215563774Y-95223733D01*
X215558872Y-95221628D01*
X215554222Y-95219381D01*
X215549792Y-95216980D01*
X215545552Y-95214411D01*
X215541471Y-95211663D01*
X215537518Y-95208722D01*
X215533662Y-95205577D01*
X215529873Y-95202214D01*
X215526119Y-95198621D01*
X215522370Y-95194786D01*
X215518594Y-95190696D01*
X215514762Y-95186337D01*
X215510842Y-95181699D01*
X215496580Y-95164832D01*
X215492450Y-95159134D01*
X215488901Y-95153478D01*
X215485891Y-95147845D01*
X215483376Y-95142218D01*
X215481313Y-95136582D01*
X215479660Y-95130918D01*
X215478372Y-95125210D01*
X215477406Y-95119442D01*
X215476720Y-95113596D01*
X215476271Y-95107656D01*
X215476014Y-95101604D01*
X215475907Y-95095424D01*
X215476116Y-95069085D01*
X215476023Y-95051211D01*
X215476181Y-95037537D01*
X215476610Y-95024005D01*
X215477314Y-95010574D01*
X215478294Y-94997205D01*
X215479554Y-94983860D01*
X215481097Y-94970499D01*
X215482927Y-94957084D01*
X215485045Y-94943574D01*
X215478767Y-94955304D01*
X215451483Y-95005590D01*
X215437576Y-95030463D01*
X215423318Y-95055088D01*
X215408581Y-95079412D01*
X215393233Y-95103386D01*
X215377144Y-95126956D01*
X215360185Y-95150073D01*
X215349200Y-95164653D01*
X215338353Y-95179306D01*
X215327616Y-95194038D01*
X215316963Y-95208860D01*
X215303299Y-95227975D01*
X215276630Y-95265399D01*
X215252198Y-95299364D01*
X215233468Y-95325017D01*
X215219219Y-95343685D01*
X215213394Y-95350814D01*
X215208231Y-95356696D01*
X215203579Y-95361496D01*
X215199284Y-95365379D01*
X215195193Y-95368513D01*
X215191155Y-95371062D01*
X215187017Y-95373194D01*
X215182626Y-95375073D01*
X215172475Y-95378741D01*
X215158171Y-95377632D01*
X215151531Y-95376902D01*
X215145188Y-95376011D01*
X215139110Y-95374924D01*
X215133262Y-95373609D01*
X215127613Y-95372030D01*
X215122128Y-95370155D01*
X215116776Y-95367951D01*
X215111522Y-95365382D01*
X215106335Y-95362416D01*
X215101181Y-95359019D01*
X215096027Y-95355158D01*
X215090839Y-95350798D01*
X215085586Y-95345906D01*
X215080233Y-95340449D01*
X215077731Y-95335100D01*
X215075569Y-95329756D01*
X215073730Y-95324414D01*
X215072200Y-95319068D01*
X215070964Y-95313716D01*
X215070004Y-95308351D01*
X215069307Y-95302971D01*
X215068857Y-95297571D01*
X215068639Y-95292146D01*
X215068636Y-95286693D01*
X215068834Y-95281207D01*
X215069218Y-95275684D01*
X215069771Y-95270119D01*
X215070479Y-95264509D01*
X215071325Y-95258850D01*
X215072295Y-95253136D01*
X215075202Y-95247271D01*
X215078209Y-95241492D01*
X215084503Y-95230164D01*
X215091133Y-95219099D01*
X215098059Y-95208242D01*
X215105236Y-95197540D01*
X215112623Y-95186939D01*
X215127858Y-95165824D01*
X215143733Y-95143655D01*
X215159666Y-95121697D01*
X215175700Y-95099812D01*
X215211058Y-95050413D01*
X215245204Y-95000268D01*
X215278293Y-94949469D01*
X215310480Y-94898107D01*
X215341922Y-94846272D01*
X215372774Y-94794056D01*
X215433332Y-94688839D01*
X215461768Y-94639196D01*
X215490439Y-94589696D01*
X215519359Y-94540342D01*
X215548545Y-94491136D01*
X215559049Y-94473502D01*
X215592284Y-94418792D01*
X215626294Y-94364901D01*
X215661285Y-94311896D01*
X215697460Y-94259844D01*
X215735025Y-94208812D01*
X215774185Y-94158868D01*
X215815144Y-94110079D01*
X215836363Y-94086138D01*
X215858108Y-94062511D01*
X215870189Y-94049613D01*
X215908626Y-94009032D01*
X215924468Y-93992568D01*
X215938435Y-93978394D01*
X215950808Y-93966312D01*
X215961866Y-93956126D01*
X215971892Y-93947637D01*
X215981165Y-93940650D01*
X215989968Y-93934968D01*
X215998580Y-93930393D01*
X216007284Y-93926728D01*
X216016360Y-93923777D01*
X216026089Y-93921343D01*
X216036751Y-93919229D01*
X216062003Y-93915172D01*
X216067857Y-93916248D01*
X216073387Y-93917436D01*
X216078628Y-93918747D01*
X216083613Y-93920189D01*
X216088377Y-93921773D01*
X216092954Y-93923509D01*
X216097377Y-93925406D01*
X216101681Y-93927475D01*
X216105900Y-93929725D01*
X216110068Y-93932167D01*
X216114220Y-93934809D01*
X216118388Y-93937663D01*
X216122609Y-93940738D01*
X216126915Y-93944043D01*
X216135920Y-93951386D01*
X216141422Y-93959625D01*
X216146237Y-93967745D01*
X216150397Y-93975779D01*
X216153935Y-93983757D01*
X216156884Y-93991710D01*
X216159276Y-93999668D01*
X216161144Y-94007662D01*
X216162520Y-94015724D01*
X216163437Y-94023883D01*
X216163927Y-94032171D01*
X216164023Y-94040618D01*
X216163758Y-94049256D01*
X216163164Y-94058114D01*
X216162273Y-94067225D01*
X216161119Y-94076618D01*
X216159733Y-94086324D01*
X216149445Y-94119135D01*
X216137615Y-94151583D01*
X216124370Y-94183670D01*
X216109834Y-94215394D01*
X216094135Y-94246758D01*
X216077398Y-94277761D01*
X216059748Y-94308405D01*
X216041313Y-94338690D01*
X216002588Y-94398185D01*
X215962231Y-94456252D01*
X215880649Y-94568124D01*
X215870876Y-94581618D01*
X215861278Y-94595183D01*
X215851849Y-94608828D01*
X215842582Y-94622566D01*
X215833471Y-94636407D01*
X215824510Y-94650362D01*
X215815692Y-94664442D01*
X215807010Y-94678660D01*
X215795922Y-94697027D01*
X215770738Y-94739807D01*
X215746703Y-94782542D01*
X215724124Y-94825530D01*
X215713476Y-94847212D01*
X215703307Y-94869069D01*
X215693655Y-94891138D01*
X215684559Y-94913457D01*
X215676057Y-94936063D01*
X215668187Y-94958993D01*
X215660987Y-94982284D01*
X215654497Y-95005974D01*
X215648753Y-95030100D01*
X215643795Y-95054699D01*
X215675973Y-95045497D01*
X215707114Y-95035502D01*
X215737391Y-95024582D01*
X215766979Y-95012606D01*
X215781569Y-95006180D01*
X215796052Y-94999442D01*
X215810449Y-94992373D01*
X215824784Y-94984959D01*
X215839076Y-94977182D01*
X215853348Y-94969026D01*
X215867623Y-94960474D01*
X215881920Y-94951511D01*
X215896264Y-94942423D01*
X215950151Y-94906978D01*
X216002877Y-94870192D01*
X216054550Y-94832151D01*
X216105274Y-94792941D01*
X216155157Y-94752649D01*
X216204303Y-94711360D01*
X216252818Y-94669160D01*
X216300810Y-94626136D01*
X216313056Y-94615197D01*
X216325383Y-94604367D01*
X216337780Y-94593616D01*
X216350233Y-94582914D01*
X216359503Y-94574740D01*
X216368641Y-94566460D01*
X216377664Y-94558082D01*
X216386589Y-94549611D01*
X216395435Y-94541055D01*
X216404219Y-94532421D01*
X216421670Y-94514949D01*
X216432019Y-94504584D01*
X216442429Y-94494350D01*
X216452914Y-94484241D01*
X216463490Y-94474250D01*
X216474169Y-94464372D01*
X216484965Y-94454602D01*
X216495894Y-94444932D01*
X216506968Y-94435357D01*
X216520911Y-94422985D01*
X216534701Y-94410466D01*
X216548387Y-94397833D01*
X216562022Y-94385123D01*
X216577154Y-94371089D01*
X216592354Y-94357217D01*
X216607651Y-94343510D01*
X216623074Y-94329976D01*
X216638651Y-94316618D01*
X216654409Y-94303443D01*
X216670378Y-94290456D01*
X216686584Y-94277661D01*
X216698085Y-94268319D01*
X216709410Y-94258878D01*
X216720609Y-94249294D01*
X216731729Y-94239524D01*
X216757999Y-94216766D01*
X216784649Y-94194756D01*
X216811679Y-94173411D01*
X216839089Y-94152648D01*
X216866879Y-94132382D01*
X216895048Y-94112531D01*
X216923597Y-94093010D01*
X216952526Y-94073735D01*
X216963468Y-94066358D01*
X216974328Y-94058885D01*
X216985121Y-94051318D01*
X216995868Y-94043660D01*
X217009876Y-94034095D01*
X217016698Y-94029644D01*
X217023447Y-94025445D01*
X217030160Y-94021517D01*
X217036874Y-94017883D01*
X217043626Y-94014564D01*
X217050451Y-94011583D01*
X217057388Y-94008959D01*
X217064473Y-94006716D01*
X217071742Y-94004875D01*
X217079232Y-94003457D01*
X217086980Y-94002485D01*
X217095023Y-94001979D01*
X217103398Y-94001961D01*
X217112140Y-94002453D01*
X217117366Y-94004043D01*
X217122289Y-94005780D01*
X217126939Y-94007667D01*
X217131346Y-94009705D01*
X217135537Y-94011897D01*
X217139542Y-94014243D01*
X217143390Y-94016747D01*
X217147110Y-94019409D01*
X217150731Y-94022231D01*
X217154281Y-94025216D01*
X217157790Y-94028365D01*
X217161287Y-94031680D01*
X217164801Y-94035163D01*
X217168361Y-94038815D01*
X217175733Y-94046636D01*
X217178513Y-94055684D01*
X217180741Y-94064482D01*
X217182432Y-94073058D01*
X217183600Y-94081441D01*
X217184261Y-94089661D01*
X217184430Y-94097746D01*
X217184122Y-94105727D01*
X217183351Y-94113632D01*
X217182133Y-94121490D01*
X217180483Y-94129330D01*
X217178415Y-94137182D01*
X217175945Y-94145075D01*
X217173087Y-94153037D01*
X217169857Y-94161099D01*
X217166269Y-94169289D01*
X217162338Y-94177636D01*
X217145454Y-94208665D01*
X217127856Y-94238999D01*
X217109574Y-94268732D01*
X217090642Y-94297961D01*
X217071091Y-94326782D01*
X217050953Y-94355292D01*
X217030261Y-94383586D01*
X217009045Y-94411761D01*
X216998248Y-94425970D01*
X216981251Y-94447994D01*
X216964050Y-94469812D01*
X216946654Y-94491442D01*
X216929069Y-94512904D01*
X216893357Y-94555396D01*
X216856969Y-94597438D01*
X216842034Y-94614751D01*
X216827305Y-94632208D01*
X216812757Y-94649797D01*
X216798366Y-94667507D01*
X216769960Y-94703241D01*
X216741891Y-94739311D01*
X216714803Y-94774028D01*
X216687577Y-94808636D01*
X216666090Y-94835983D01*
X216556608Y-94975324D01*
X216603784Y-94947837D01*
X216650665Y-94919918D01*
X216697275Y-94891549D01*
X216743635Y-94862710D01*
X216768566Y-94847076D01*
X216842358Y-94800699D01*
X216863589Y-94787362D01*
X216954444Y-94729989D01*
X216999698Y-94701036D01*
X217044780Y-94671804D01*
X217168372Y-94591358D01*
X217263229Y-94531191D01*
X217301844Y-94507906D01*
X217335631Y-94488722D01*
X217365372Y-94473317D01*
X217391854Y-94461367D01*
X217415862Y-94452551D01*
X217438179Y-94446545D01*
X217459592Y-94443026D01*
X217480884Y-94441672D01*
X217502840Y-94442160D01*
X217526246Y-94444168D01*
X217580545Y-94451449D01*
X217588667Y-94455210D01*
X217596437Y-94459100D01*
X217603869Y-94463140D01*
X217610977Y-94467351D01*
X217617773Y-94471754D01*
X217624271Y-94476369D01*
X217630485Y-94481217D01*
X217636427Y-94486318D01*
X217642111Y-94491694D01*
X217647551Y-94497366D01*
X217652759Y-94503354D01*
X217657749Y-94509678D01*
X217662534Y-94516361D01*
X217667128Y-94523421D01*
X217671544Y-94530881D01*
X217675795Y-94538761D01*
X217676813Y-94545765D01*
X217677578Y-94551303D01*
X217678129Y-94555888D01*
X217678502Y-94560031D01*
X217678734Y-94564244D01*
X217678863Y-94569038D01*
X217678958Y-94582417D01*
X217679097Y-94607596D01*
X217678772Y-94634011D01*
X217678632Y-94660907D01*
X217678023Y-94684156D01*
X217676860Y-94706978D01*
X217675030Y-94729471D01*
X217672423Y-94751732D01*
X217668926Y-94773857D01*
X217666810Y-94784899D01*
X217664429Y-94795943D01*
X217661769Y-94807002D01*
X217658818Y-94818087D01*
X217655560Y-94829211D01*
X217651983Y-94840386D01*
X217674183Y-94826372D01*
X217739673Y-94785556D01*
X217805460Y-94745251D01*
X217871496Y-94705354D01*
X217937733Y-94665761D01*
X217954740Y-94655599D01*
X218014515Y-94620348D01*
X218074608Y-94585681D01*
X218134957Y-94551458D01*
X218195500Y-94517538D01*
X218308044Y-94454148D01*
X218420207Y-94390088D01*
X218466135Y-94363888D01*
X218583688Y-94296567D01*
X218700848Y-94228523D01*
X218817590Y-94159762D01*
X218933889Y-94090293D01*
X219018874Y-94039586D01*
X219104191Y-93989459D01*
X219189834Y-93939890D01*
X219275796Y-93890857D01*
X219295413Y-93879695D01*
X219314992Y-93868467D01*
X219334144Y-93857562D01*
X219351175Y-93847792D01*
X219355366Y-93845805D01*
X219359406Y-93844045D01*
X219363320Y-93842507D01*
X219367134Y-93841186D01*
X219370872Y-93840076D01*
X219374559Y-93839172D01*
X219378219Y-93838468D01*
X219381879Y-93837959D01*
X219385563Y-93837640D01*
X219389295Y-93837505D01*
X219393101Y-93837549D01*
X219397006Y-93837766D01*
X219401034Y-93838151D01*
X219405210Y-93838699D01*
X219409560Y-93839404D01*
X219414108Y-93840261D01*
X219422859Y-93845071D01*
X219431084Y-93849866D01*
X219435017Y-93852303D01*
X219438840Y-93854790D01*
X219442561Y-93857346D01*
X219446186Y-93859988D01*
X219449724Y-93862735D01*
X219453182Y-93865604D01*
X219456566Y-93868613D01*
X219459884Y-93871781D01*
X219463144Y-93875126D01*
X219466353Y-93878665D01*
X219469518Y-93882416D01*
X219472647Y-93886398D01*
X219473971Y-93891232D01*
X219475141Y-93895933D01*
X219476162Y-93900521D01*
X219477037Y-93905018D01*
X219477771Y-93909443D01*
X219478366Y-93913818D01*
X219478828Y-93918164D01*
X219479160Y-93922499D01*
X219479365Y-93926846D01*
X219479449Y-93931225D01*
X219479415Y-93935657D01*
X219479266Y-93940161D01*
X219479007Y-93944760D01*
X219478642Y-93949473D01*
X219477608Y-93959324D01*
X219472760Y-93966912D01*
X219467701Y-93974006D01*
X219462436Y-93980649D01*
X219456968Y-93986883D01*
X219451300Y-93992751D01*
X219445435Y-93998294D01*
X219439378Y-94003557D01*
X219433132Y-94008580D01*
X219426701Y-94013406D01*
X219420087Y-94018078D01*
X219413294Y-94022637D01*
X219406327Y-94027128D01*
X219391881Y-94036069D01*
X219376777Y-94045241D01*
X219362481Y-94054866D01*
X219348342Y-94064753D01*
X219320509Y-94085241D01*
X219293220Y-94106556D01*
X219266415Y-94128552D01*
X219240039Y-94151084D01*
X219214032Y-94174004D01*
X219162898Y-94220424D01*
X219155331Y-94227129D01*
X219147709Y-94233750D01*
X219132321Y-94246787D01*
X219116765Y-94259626D01*
X219101073Y-94272359D01*
X219089804Y-94281552D01*
X219078634Y-94290821D01*
X219056561Y-94309606D01*
X219034791Y-94328742D01*
X219013264Y-94348261D01*
X218998907Y-94361298D01*
X218984437Y-94374158D01*
X218969857Y-94386862D01*
X218955173Y-94399429D01*
X218925504Y-94424227D01*
X218895465Y-94448705D01*
X218855077Y-94481743D01*
X218814827Y-94514949D01*
X218688403Y-94618500D01*
X218624901Y-94669912D01*
X218561137Y-94721014D01*
X218535864Y-94741262D01*
X218510683Y-94761610D01*
X218485598Y-94782078D01*
X218460616Y-94802683D01*
X218439367Y-94819904D01*
X218417948Y-94836894D01*
X218374678Y-94870300D01*
X218330968Y-94903137D01*
X218286983Y-94935636D01*
X218262333Y-94953775D01*
X218244171Y-94966807D01*
X218230136Y-94976673D01*
X218224350Y-94980584D01*
X218219215Y-94983903D01*
X218214606Y-94986696D01*
X218210396Y-94989030D01*
X218206457Y-94990971D01*
X218202664Y-94992586D01*
X218198889Y-94993940D01*
X218195005Y-94995101D01*
X218190887Y-94996134D01*
X218186408Y-94997107D01*
X218175858Y-94999136D01*
X218187350Y-95011407D01*
X218199179Y-95023274D01*
X218211349Y-95034693D01*
X218223863Y-95045620D01*
X218236724Y-95056011D01*
X218249937Y-95065820D01*
X218263504Y-95075004D01*
X218277430Y-95083519D01*
X218291717Y-95091319D01*
X218306371Y-95098360D01*
X218321393Y-95104599D01*
X218336789Y-95109991D01*
X218352560Y-95114491D01*
X218368712Y-95118055D01*
X218385247Y-95120639D01*
X218402169Y-95122199D01*
X218444660Y-95122322D01*
X218465393Y-95121743D01*
X218485837Y-95120725D01*
X218506035Y-95119256D01*
X218526026Y-95117328D01*
X218545852Y-95114929D01*
X218565553Y-95112051D01*
X218585169Y-95108684D01*
X218604742Y-95104817D01*
X218624312Y-95100441D01*
X218643920Y-95095546D01*
X218663607Y-95090121D01*
X218683413Y-95084158D01*
X218703379Y-95077645D01*
X218723545Y-95070574D01*
X218747986Y-95061818D01*
X218789671Y-95046588D01*
X218831232Y-95031051D01*
X218872685Y-95015227D01*
X218914045Y-94999136D01*
X218935160Y-94990951D01*
X218950348Y-94984899D01*
X218965415Y-94978696D01*
X218980373Y-94972330D01*
X218995235Y-94965789D01*
X219010011Y-94959059D01*
X219024713Y-94952130D01*
X219039354Y-94944988D01*
X219053944Y-94937621D01*
X219086965Y-94920877D01*
X219103743Y-94912336D01*
X219128161Y-94900055D01*
X219152635Y-94887887D01*
X219228133Y-94849798D01*
X219302945Y-94810614D01*
X219377148Y-94770287D01*
X219450819Y-94728765D01*
X219552130Y-94670860D01*
X219585511Y-94652210D01*
X219611164Y-94638465D01*
X219631932Y-94628151D01*
X219650657Y-94619795D01*
X219670181Y-94611925D01*
X219693346Y-94603067D01*
X219715847Y-94594059D01*
X219738206Y-94584742D01*
X219760475Y-94575208D01*
X219782706Y-94565550D01*
X219799520Y-94558295D01*
X219808360Y-94554375D01*
X219817004Y-94550401D01*
X219825484Y-94546329D01*
X219833833Y-94542113D01*
X219842082Y-94537706D01*
X219850262Y-94533063D01*
X219858406Y-94528139D01*
X219866545Y-94522886D01*
X219867462Y-94516191D01*
X219868132Y-94510874D01*
X219868379Y-94508572D01*
X219868569Y-94506424D01*
X219868704Y-94504365D01*
X219868787Y-94502332D01*
X219868818Y-94500260D01*
X219868800Y-94498086D01*
X219868623Y-94493176D01*
X219868270Y-94487092D01*
X219867754Y-94479323D01*
X219867088Y-94452891D01*
X219864918Y-94397700D01*
X219864418Y-94375331D01*
X219864257Y-94358145D01*
X219864363Y-94351135D01*
X219864625Y-94344989D01*
X219865066Y-94339562D01*
X219865709Y-94334710D01*
X219866578Y-94330289D01*
X219867696Y-94326155D01*
X219869088Y-94322164D01*
X219870776Y-94318171D01*
X219872784Y-94314033D01*
X219875135Y-94309605D01*
X219880963Y-94299303D01*
X219886118Y-94295033D01*
X219891130Y-94291017D01*
X219896035Y-94287260D01*
X219900870Y-94283764D01*
X219905671Y-94280534D01*
X219910473Y-94277574D01*
X219915314Y-94274888D01*
X219920230Y-94272481D01*
X219925256Y-94270355D01*
X219930430Y-94268515D01*
X219935788Y-94266965D01*
X219941366Y-94265710D01*
X219947199Y-94264752D01*
X219953326Y-94264097D01*
X219959781Y-94263747D01*
X219966601Y-94263708D01*
X219976290Y-94266767D01*
X219985892Y-94270605D01*
X219995382Y-94275161D01*
X220004734Y-94280375D01*
X220013922Y-94286185D01*
X220022919Y-94292532D01*
X220031701Y-94299353D01*
X220040241Y-94306588D01*
X220048512Y-94314176D01*
X220056490Y-94322057D01*
X220064148Y-94330169D01*
X220071460Y-94338452D01*
X220078401Y-94346845D01*
X220084944Y-94355287D01*
X220091063Y-94363717D01*
X220096733Y-94372074D01*
X220098254Y-94376818D01*
X220099620Y-94381457D01*
X220100841Y-94386007D01*
X220101925Y-94390485D01*
X220102883Y-94394910D01*
X220103722Y-94399298D01*
X220104453Y-94403667D01*
X220105084Y-94408034D01*
X220106084Y-94416833D01*
X220106796Y-94425834D01*
X220107292Y-94435177D01*
X220107647Y-94445000D01*
X220108825Y-94471137D01*
X220108041Y-94476201D01*
X220107260Y-94480780D01*
X220106459Y-94484931D01*
X220105620Y-94488711D01*
X220104720Y-94492179D01*
X220103738Y-94495391D01*
X220102654Y-94498405D01*
X220101446Y-94501279D01*
X220100094Y-94504069D01*
X220098577Y-94506835D01*
X220096873Y-94509632D01*
X220094963Y-94512519D01*
X220092823Y-94515553D01*
X220090435Y-94518791D01*
X220084826Y-94526111D01*
X220081856Y-94530722D01*
X220079121Y-94535400D01*
X220076612Y-94540141D01*
X220074320Y-94544943D01*
X220070352Y-94554716D01*
X220067146Y-94564697D01*
X220064630Y-94574861D01*
X220062733Y-94585184D01*
X220061382Y-94595645D01*
X220060506Y-94606218D01*
X220060034Y-94616881D01*
X220059893Y-94627610D01*
X220060321Y-94649172D01*
X220062006Y-94692054D01*
X220062347Y-94726827D01*
X220062416Y-94767013D01*
X220062795Y-94798639D01*
X220063802Y-94824497D01*
X220064639Y-94836135D01*
X220065751Y-94847376D01*
X220067178Y-94858571D01*
X220068959Y-94870067D01*
X220073741Y-94895359D01*
X220080413Y-94926041D01*
X220089291Y-94964906D01*
X220098004Y-94989308D01*
X220104670Y-95007074D01*
X220112897Y-95003063D01*
X220121092Y-94998990D01*
X220137412Y-94990703D01*
X220155830Y-94981494D01*
X220164745Y-94974949D01*
X220173270Y-94968021D01*
X220181431Y-94960739D01*
X220189254Y-94953131D01*
X220196767Y-94945226D01*
X220203994Y-94937053D01*
X220210963Y-94928640D01*
X220217700Y-94920015D01*
X220224231Y-94911207D01*
X220230583Y-94902246D01*
X220242853Y-94883973D01*
X220254721Y-94865427D01*
X220266397Y-94846836D01*
X220289465Y-94810745D01*
X220300689Y-94793118D01*
X220318801Y-94765007D01*
X220337150Y-94737067D01*
X220355732Y-94709282D01*
X220374545Y-94681636D01*
X220386657Y-94663951D01*
X220407070Y-94634544D01*
X220427627Y-94605238D01*
X220440785Y-94586109D01*
X220453894Y-94567774D01*
X220459341Y-94560326D01*
X220464199Y-94553901D01*
X220468580Y-94548407D01*
X220472596Y-94543750D01*
X220476361Y-94539838D01*
X220479986Y-94536579D01*
X220483583Y-94533880D01*
X220487265Y-94531649D01*
X220491144Y-94529792D01*
X220495332Y-94528217D01*
X220499941Y-94526831D01*
X220505084Y-94525543D01*
X220517420Y-94522886D01*
X220523471Y-94522150D01*
X220529462Y-94521549D01*
X220535400Y-94521088D01*
X220541290Y-94520771D01*
X220547141Y-94520602D01*
X220552958Y-94520586D01*
X220558747Y-94520728D01*
X220564515Y-94521031D01*
X220570269Y-94521501D01*
X220576015Y-94522142D01*
X220581759Y-94522959D01*
X220587509Y-94523956D01*
X220593270Y-94525137D01*
X220599049Y-94526507D01*
X220604852Y-94528070D01*
X220610686Y-94529831D01*
X220615787Y-94534835D01*
X220620624Y-94539954D01*
X220625207Y-94545185D01*
X220629543Y-94550523D01*
X220637512Y-94561506D01*
X220644603Y-94572874D01*
X220650884Y-94584596D01*
X220656427Y-94596640D01*
X220661301Y-94608977D01*
X220665578Y-94621575D01*
X220669326Y-94634403D01*
X220672617Y-94647432D01*
X220675520Y-94660630D01*
X220678106Y-94673966D01*
X220682607Y-94700932D01*
X220686681Y-94728083D01*
X220688667Y-94740327D01*
X220690896Y-94752477D01*
X220693343Y-94764553D01*
X220695981Y-94776573D01*
X220698784Y-94788560D01*
X220701726Y-94800532D01*
X220707920Y-94824511D01*
X220749325Y-94767714D01*
X220790241Y-94710565D01*
X220841244Y-94638348D01*
X220880368Y-94583681D01*
X220910182Y-94543620D01*
X220922400Y-94528147D01*
X220933255Y-94515222D01*
X220943067Y-94504477D01*
X220952158Y-94495543D01*
X220960849Y-94488054D01*
X220969461Y-94481640D01*
X220978315Y-94475934D01*
X220987733Y-94470569D01*
X221009545Y-94459386D01*
X221022521Y-94457984D01*
X221028765Y-94457465D01*
X221034872Y-94457097D01*
X221040857Y-94456903D01*
X221046740Y-94456906D01*
X221052537Y-94457128D01*
X221058267Y-94457593D01*
X221063947Y-94458324D01*
X221069595Y-94459342D01*
X221075229Y-94460672D01*
X221080866Y-94462335D01*
X221086524Y-94464355D01*
X221092221Y-94466754D01*
X221097975Y-94469555D01*
X221103803Y-94472781D01*
X221110057Y-94479860D01*
X221115771Y-94486894D01*
X221120974Y-94493909D01*
X221125697Y-94500932D01*
X221129970Y-94507991D01*
X221133822Y-94515114D01*
X221137285Y-94522326D01*
X221140388Y-94529657D01*
X221143162Y-94537132D01*
X221145637Y-94544780D01*
X221147843Y-94552628D01*
X221149809Y-94560702D01*
X221151568Y-94569030D01*
X221153147Y-94577640D01*
X221154579Y-94586558D01*
X221155893Y-94595812D01*
X221161722Y-94635841D01*
X221164838Y-94657804D01*
X221170730Y-94697225D01*
X221176853Y-94736610D01*
X221181273Y-94764804D01*
X221189966Y-94820176D01*
X221193937Y-94845843D01*
X221197508Y-94868756D01*
X221198346Y-94875159D01*
X221198975Y-94880260D01*
X221199426Y-94884566D01*
X221199728Y-94888581D01*
X221199912Y-94892810D01*
X221200006Y-94897756D01*
X221200045Y-94911824D01*
X221215920Y-94911824D01*
X221223362Y-94884043D01*
X221231430Y-94861361D01*
X221240707Y-94837872D01*
X221251142Y-94813795D01*
X221262687Y-94789349D01*
X221275292Y-94764752D01*
X221288909Y-94740222D01*
X221303488Y-94715978D01*
X221318981Y-94692238D01*
X221335338Y-94669221D01*
X221352510Y-94647146D01*
X221370449Y-94626230D01*
X221389105Y-94606693D01*
X221408429Y-94588753D01*
X221428372Y-94572628D01*
X221448886Y-94558537D01*
X221459341Y-94552323D01*
X221469920Y-94546699D01*
X221484774Y-94544763D01*
X221492018Y-94544030D01*
X221499157Y-94543481D01*
X221506204Y-94543138D01*
X221513169Y-94543023D01*
X221520065Y-94543157D01*
X221526905Y-94543561D01*
X221533701Y-94544257D01*
X221540464Y-94545266D01*
X221547207Y-94546610D01*
X221553942Y-94548310D01*
X221560681Y-94550388D01*
X221567437Y-94552865D01*
X221574221Y-94555762D01*
X221581045Y-94559101D01*
X221585546Y-94564722D01*
X221589815Y-94570347D01*
X221593844Y-94575993D01*
X221597626Y-94581673D01*
X221601153Y-94587402D01*
X221604415Y-94593195D01*
X221607405Y-94599066D01*
X221610116Y-94605029D01*
X221612537Y-94611100D01*
X221614663Y-94617293D01*
X221616483Y-94623622D01*
X221617991Y-94630102D01*
X221619178Y-94636748D01*
X221620036Y-94643574D01*
X221620557Y-94650594D01*
X221620732Y-94657824D01*
X221636608Y-94657824D01*
X221638685Y-94638259D01*
X221642018Y-94613806D01*
X221645947Y-94589776D01*
X221650452Y-94566068D01*
X221655513Y-94542585D01*
X221661110Y-94519226D01*
X221667223Y-94495893D01*
X221673831Y-94472486D01*
X221680915Y-94448906D01*
X221690077Y-94418181D01*
X221698786Y-94387340D01*
X221715487Y-94325441D01*
X221731038Y-94269483D01*
X221747400Y-94213819D01*
X221764453Y-94158362D01*
X221782079Y-94103024D01*
X221789838Y-94078398D01*
X221797428Y-94053719D01*
X221812349Y-94004282D01*
X221816428Y-93991746D01*
X221817961Y-93987249D01*
X221819399Y-93983291D01*
X221820922Y-93979391D01*
X221822713Y-93975069D01*
X221827821Y-93963230D01*
X221829256Y-93959127D01*
X221830534Y-93955111D01*
X221831667Y-93951168D01*
X221832662Y-93947282D01*
X221833531Y-93943440D01*
X221834283Y-93939626D01*
X221834928Y-93935825D01*
X221835476Y-93932023D01*
X221835936Y-93928205D01*
X221836318Y-93924357D01*
X221836888Y-93916508D01*
X221837264Y-93908360D01*
X221837526Y-93899793D01*
X221838842Y-93885159D01*
X221840784Y-93870545D01*
X221843327Y-93855971D01*
X221846443Y-93841454D01*
X221850106Y-93827013D01*
X221854290Y-93812667D01*
X221858967Y-93798434D01*
X221864110Y-93784334D01*
X221869695Y-93770385D01*
X221875693Y-93756605D01*
X221882079Y-93743014D01*
X221888825Y-93729629D01*
X221895905Y-93716470D01*
X221903293Y-93703556D01*
X221910962Y-93690905D01*
X221918885Y-93678535D01*
X221924721Y-93674910D01*
X221930572Y-93671790D01*
X221936444Y-93669149D01*
X221942343Y-93666958D01*
X221948276Y-93665189D01*
X221954249Y-93663814D01*
X221960269Y-93662807D01*
X221966342Y-93662137D01*
X221972474Y-93661779D01*
X221978673Y-93661704D01*
X221984943Y-93661884D01*
X221991293Y-93662291D01*
X221997728Y-93662898D01*
X222004254Y-93663676D01*
X222017608Y-93665636D01*
X222022260Y-93668232D01*
X222026580Y-93670725D01*
X222030589Y-93673153D01*
X222034306Y-93675554D01*
X222037753Y-93677964D01*
X222040950Y-93680420D01*
X222043918Y-93682961D01*
X222046679Y-93685622D01*
X222049251Y-93688442D01*
X222051657Y-93691458D01*
X222053916Y-93694706D01*
X222056050Y-93698224D01*
X222058079Y-93702050D01*
X222060024Y-93706219D01*
X222061905Y-93710771D01*
X222063744Y-93715742D01*
X222065233Y-93737074D01*
X222067713Y-93763863D01*
X222066864Y-93773410D01*
X222066459Y-93777371D01*
X222066032Y-93780896D01*
X222065557Y-93784065D01*
X222065005Y-93786958D01*
X222064351Y-93789653D01*
X222063568Y-93792231D01*
X222062629Y-93794770D01*
X222061507Y-93797351D01*
X222060175Y-93800054D01*
X222058607Y-93802956D01*
X222056776Y-93806139D01*
X222054655Y-93809682D01*
X222049435Y-93818164D01*
X222046176Y-93823944D01*
X222043282Y-93829678D01*
X222040734Y-93835380D01*
X222038511Y-93841065D01*
X222036592Y-93846746D01*
X222034958Y-93852438D01*
X222033588Y-93858155D01*
X222032460Y-93863910D01*
X222031556Y-93869717D01*
X222030854Y-93875591D01*
X222030335Y-93881546D01*
X222029977Y-93887596D01*
X222029760Y-93893754D01*
X222029664Y-93900036D01*
X222029752Y-93913022D01*
X222029699Y-93931895D01*
X222029814Y-93962524D01*
X222030103Y-93993151D01*
X222030182Y-94035929D01*
X222030347Y-94080635D01*
X222030652Y-94125339D01*
X222031008Y-94182630D01*
X222031186Y-94239921D01*
X222031591Y-94349347D01*
X222031673Y-94370408D01*
X222032077Y-94429394D01*
X222032142Y-94447001D01*
X222032306Y-94456832D01*
X222032629Y-94466470D01*
X222033173Y-94475961D01*
X222034002Y-94485353D01*
X222035179Y-94494695D01*
X222035917Y-94499361D01*
X222036765Y-94504032D01*
X222037732Y-94508714D01*
X222038825Y-94513414D01*
X222040052Y-94518136D01*
X222041420Y-94522886D01*
X222045611Y-94565326D01*
X222048379Y-94607908D01*
X222049979Y-94650593D01*
X222050665Y-94693341D01*
X222050313Y-94778876D01*
X222049358Y-94864199D01*
X222064408Y-94851435D01*
X222079058Y-94838542D01*
X222093315Y-94825443D01*
X222107187Y-94812057D01*
X222120683Y-94798306D01*
X222133810Y-94784109D01*
X222140239Y-94776820D01*
X222146578Y-94769389D01*
X222152830Y-94761808D01*
X222158994Y-94754066D01*
X222171088Y-94738706D01*
X222196549Y-94705194D01*
X222221009Y-94671413D01*
X222244260Y-94637154D01*
X222255367Y-94619781D01*
X222266094Y-94602211D01*
X222276415Y-94584418D01*
X222286304Y-94566377D01*
X222295735Y-94548060D01*
X222304682Y-94529443D01*
X222313118Y-94510499D01*
X222321019Y-94491202D01*
X222328357Y-94471528D01*
X222335107Y-94451449D01*
X222347448Y-94414614D01*
X222361825Y-94369868D01*
X222368550Y-94347542D01*
X222374864Y-94325159D01*
X222380690Y-94302653D01*
X222385953Y-94279958D01*
X222390577Y-94257008D01*
X222394484Y-94233737D01*
X222396092Y-94226371D01*
X222397880Y-94219267D01*
X222399850Y-94212357D01*
X222402006Y-94205574D01*
X222404349Y-94198852D01*
X222406882Y-94192124D01*
X222409608Y-94185322D01*
X222412529Y-94178380D01*
X222419649Y-94160622D01*
X222426467Y-94142776D01*
X222433026Y-94124853D01*
X222439372Y-94106860D01*
X222451598Y-94070697D01*
X222463500Y-94034357D01*
X222482892Y-93975608D01*
X222502901Y-93917129D01*
X222523881Y-93858996D01*
X222534846Y-93830084D01*
X222546185Y-93801287D01*
X222557802Y-93771558D01*
X222568919Y-93741686D01*
X222579647Y-93711671D01*
X222590100Y-93681511D01*
X222595739Y-93665494D01*
X222601571Y-93649686D01*
X222607637Y-93634060D01*
X222613977Y-93618592D01*
X222620633Y-93603257D01*
X222627646Y-93588028D01*
X222635056Y-93572881D01*
X222642905Y-93557790D01*
X222646313Y-93550917D01*
X222649584Y-93544038D01*
X222652733Y-93537142D01*
X222655777Y-93530219D01*
X222658730Y-93523257D01*
X222661610Y-93516243D01*
X222667212Y-93502018D01*
X222673747Y-93485765D01*
X222680475Y-93469615D01*
X222694416Y-93437556D01*
X222708839Y-93405707D01*
X222723549Y-93373933D01*
X222734766Y-93349248D01*
X222745665Y-93324543D01*
X222756229Y-93299776D01*
X222766440Y-93274903D01*
X222776282Y-93249883D01*
X222785738Y-93224672D01*
X222794790Y-93199229D01*
X222803420Y-93173512D01*
X222811358Y-93149699D01*
X222811968Y-93139655D01*
X222812439Y-93129602D01*
X222812789Y-93119544D01*
X222813031Y-93109484D01*
X222813668Y-93084701D01*
X222814334Y-93057922D01*
X222815662Y-93023571D01*
X222817502Y-92989344D01*
X222819821Y-92955211D01*
X222822583Y-92921142D01*
X222825757Y-92887109D01*
X222829307Y-92853079D01*
X222837403Y-92784915D01*
X222839326Y-92768973D01*
X222841053Y-92753031D01*
X222843998Y-92721131D01*
X222846387Y-92689181D01*
X222848371Y-92657148D01*
X222849873Y-92646083D01*
X222851815Y-92635282D01*
X222854192Y-92624736D01*
X222856999Y-92614437D01*
X222860231Y-92604374D01*
X222863884Y-92594540D01*
X222867952Y-92584925D01*
X222872431Y-92575520D01*
X222877317Y-92566317D01*
X222882604Y-92557305D01*
X222888287Y-92548476D01*
X222894362Y-92539821D01*
X222900824Y-92531331D01*
X222907668Y-92522997D01*
X222914889Y-92514810D01*
X222922483Y-92506761D01*
X222926998Y-92504648D01*
X222931434Y-92502854D01*
X222935806Y-92501357D01*
X222940129Y-92500135D01*
X222944420Y-92499165D01*
X222948694Y-92498426D01*
X222952966Y-92497895D01*
X222957252Y-92497549D01*
X222961567Y-92497368D01*
X222965928Y-92497329D01*
X222970350Y-92497409D01*
G37*
D12*
%TO.C,U1*%
X167500000Y-52220000D03*
X167500000Y-54760000D03*
X167500000Y-57300000D03*
X167500000Y-59840000D03*
X167500000Y-62380000D03*
X167500000Y-64920000D03*
X167500000Y-67460000D03*
X167500000Y-70000000D03*
X180200000Y-52220000D03*
X180200000Y-54760000D03*
X180200000Y-57300000D03*
X180200000Y-59840000D03*
X180200000Y-62380000D03*
X180200000Y-64920000D03*
X180200000Y-67460000D03*
X180200000Y-70000000D03*
%TD*%
D13*
%TO.C,S2*%
X213500000Y-104000000D03*
X211500000Y-104000000D03*
X209500000Y-104000000D03*
X207500000Y-104000000D03*
%TD*%
%TO.C,M1*%
X163500000Y-58500000D03*
X163500000Y-56500000D03*
X163500000Y-54500000D03*
X163500000Y-52500000D03*
%TD*%
%TO.C,DS1*%
X182000000Y-47000000D03*
X180000000Y-47000000D03*
X178000000Y-47000000D03*
X176000000Y-47000000D03*
%TD*%
D12*
%TO.C,U2*%
X208150000Y-52610000D03*
X208150000Y-55150000D03*
X208150000Y-57690000D03*
X208150000Y-60230000D03*
X208150000Y-62770000D03*
X208150000Y-65310000D03*
X208150000Y-67850000D03*
X208150000Y-70390000D03*
X220850000Y-52610000D03*
X220850000Y-55150000D03*
X220850000Y-57690000D03*
X220850000Y-60230000D03*
X220850000Y-62770000D03*
X220850000Y-65310000D03*
X220850000Y-67850000D03*
X220850000Y-70390000D03*
%TD*%
D13*
%TO.C,M2*%
X225000000Y-59000000D03*
X225000000Y-57000000D03*
X225000000Y-55000000D03*
X225000000Y-53000000D03*
%TD*%
%TO.C,Power 12V*%
X215000000Y-47000000D03*
X213000000Y-47000000D03*
X211000000Y-47000000D03*
X209000000Y-47000000D03*
%TD*%
%TO.C,S1*%
X180500000Y-103500000D03*
X178500000Y-103500000D03*
X176500000Y-103500000D03*
X174500000Y-103500000D03*
%TD*%
D14*
%TO.C,A1*%
X191665000Y-51350000D03*
D15*
X191965000Y-54380000D03*
X196815000Y-54380000D03*
D14*
X197115000Y-51350000D03*
D16*
X184700000Y-51220000D03*
D17*
X185500000Y-51220000D03*
D18*
X184700000Y-53760000D03*
D19*
X185500000Y-53760000D03*
D20*
X184700000Y-56300000D03*
D21*
X185500000Y-56300000D03*
D18*
X184700000Y-58840000D03*
D19*
X185500000Y-58840000D03*
D18*
X184700000Y-61380000D03*
D19*
X185500000Y-61380000D03*
D18*
X184700000Y-63920000D03*
D19*
X185500000Y-63920000D03*
D18*
X184700000Y-66460000D03*
D19*
X185500000Y-66460000D03*
D20*
X184700000Y-69000000D03*
D21*
X185500000Y-69000000D03*
D18*
X184700000Y-71540000D03*
D19*
X185500000Y-71540000D03*
D18*
X184700000Y-74080000D03*
D19*
X185500000Y-74080000D03*
D18*
X184700000Y-76620000D03*
D19*
X185500000Y-76620000D03*
D18*
X184700000Y-79160000D03*
D19*
X185500000Y-79160000D03*
D20*
X184700000Y-81700000D03*
D21*
X185500000Y-81700000D03*
D18*
X184700000Y-84240000D03*
D19*
X185500000Y-84240000D03*
D18*
X184700000Y-86780000D03*
D19*
X185500000Y-86780000D03*
D18*
X184700000Y-89320000D03*
D19*
X185500000Y-89320000D03*
D18*
X184700000Y-91860000D03*
D19*
X185500000Y-91860000D03*
D20*
X184700000Y-94400000D03*
D21*
X185500000Y-94400000D03*
D18*
X184700000Y-96940000D03*
D19*
X185500000Y-96940000D03*
D18*
X184700000Y-99480000D03*
D19*
X185500000Y-99480000D03*
X203280000Y-99480000D03*
D18*
X204080000Y-99480000D03*
D19*
X203280000Y-96940000D03*
D18*
X204080000Y-96940000D03*
D22*
X203280000Y-94400000D03*
D16*
X204080000Y-94400000D03*
D19*
X203280000Y-91860000D03*
D18*
X204080000Y-91860000D03*
D19*
X203280000Y-89320000D03*
D18*
X204080000Y-89320000D03*
D19*
X203280000Y-86780000D03*
D18*
X204080000Y-86780000D03*
D19*
X203280000Y-84240000D03*
D18*
X204080000Y-84240000D03*
D22*
X203280000Y-81700000D03*
D16*
X204080000Y-81700000D03*
D19*
X203280000Y-79160000D03*
D18*
X204080000Y-79160000D03*
D19*
X203280000Y-76620000D03*
D18*
X204080000Y-76620000D03*
D19*
X203280000Y-74080000D03*
D18*
X204080000Y-74080000D03*
D19*
X203280000Y-71540000D03*
D18*
X204080000Y-71540000D03*
D22*
X203280000Y-69000000D03*
D16*
X204080000Y-69000000D03*
D19*
X203280000Y-66460000D03*
D18*
X204080000Y-66460000D03*
D19*
X203280000Y-63920000D03*
D18*
X204080000Y-63920000D03*
D19*
X203280000Y-61380000D03*
D18*
X204080000Y-61380000D03*
D19*
X203280000Y-58840000D03*
D18*
X204080000Y-58840000D03*
D22*
X203280000Y-56300000D03*
D16*
X204080000Y-56300000D03*
D19*
X203280000Y-53760000D03*
D18*
X204080000Y-53760000D03*
D19*
X203280000Y-51220000D03*
D18*
X204080000Y-51220000D03*
%TD*%
M02*
