%TF.GenerationSoftware,KiCad,Pcbnew,9.0.7-1.fc42*%
%TF.CreationDate,2026-03-28T14:12:51-05:00*%
%TF.ProjectId,Dip_PCB,4469705f-5043-4422-9e6b-696361645f70,v1*%
%TF.SameCoordinates,Original*%
%TF.FileFunction,Soldermask,Bot*%
%TF.FilePolarity,Negative*%
%FSLAX46Y46*%
G04 Gerber Fmt 4.6, Leading zero omitted, Abs format (unit mm)*
G04 Created by KiCad (PCBNEW 9.0.7-1.fc42) date 2026-03-28 14:12:51*
%MOMM*%
%LPD*%
G01*
G04 APERTURE LIST*
G04 Aperture macros list*
%AMRoundRect*
0 Rectangle with rounded corners*
0 $1 Rounding radius*
0 $2 $3 $4 $5 $6 $7 $8 $9 X,Y pos of 4 corners*
0 Add a 4 corners polygon primitive as box body*
4,1,4,$2,$3,$4,$5,$6,$7,$8,$9,$2,$3,0*
0 Add four circle primitives for the rounded corners*
1,1,$1+$1,$2,$3*
1,1,$1+$1,$4,$5*
1,1,$1+$1,$6,$7*
1,1,$1+$1,$8,$9*
0 Add four rect primitives between the rounded corners*
20,1,$1+$1,$2,$3,$4,$5,0*
20,1,$1+$1,$4,$5,$6,$7,0*
20,1,$1+$1,$6,$7,$8,$9,0*
20,1,$1+$1,$8,$9,$2,$3,0*%
%AMFreePoly0*
4,1,61,0.609278,0.846957,0.639018,0.846957,0.658458,0.843090,0.730554,0.813227,0.747035,0.802215,0.802215,0.747035,0.813227,0.730554,0.843090,0.658458,0.846957,0.639018,0.846957,0.609277,0.850800,0.600000,0.850800,-0.600000,0.846957,-0.609277,0.846957,-0.639018,0.843090,-0.658458,0.813227,-0.730554,0.802215,-0.747035,0.747035,-0.802215,0.730554,-0.813227,0.658458,-0.843090,
0.639018,-0.846957,0.609278,-0.846957,0.600000,-0.850800,0.000000,-0.850800,-0.009300,-0.846948,-0.078414,-0.846948,-0.088325,-0.845972,-0.242139,-0.815376,-0.251668,-0.812485,-0.396557,-0.752470,-0.405340,-0.747776,-0.535738,-0.660647,-0.543436,-0.654329,-0.654329,-0.543436,-0.660647,-0.535738,-0.747776,-0.405340,-0.752470,-0.396557,-0.812485,-0.251668,-0.815376,-0.242139,-0.845972,-0.088325,
-0.846948,-0.078414,-0.846948,0.078414,-0.845972,0.088325,-0.815376,0.242139,-0.812485,0.251668,-0.752470,0.396557,-0.747776,0.405340,-0.660647,0.535738,-0.654329,0.543436,-0.543436,0.654329,-0.535738,0.660647,-0.405340,0.747776,-0.396557,0.752470,-0.251668,0.812485,-0.242139,0.815376,-0.088325,0.845972,-0.078414,0.846948,-0.009300,0.846948,0.000000,0.850800,0.600000,0.850800,
0.609278,0.846957,0.609278,0.846957,$1*%
%AMFreePoly1*
4,1,61,0.009300,0.846948,0.078414,0.846948,0.088325,0.845972,0.242139,0.815376,0.251668,0.812485,0.396557,0.752470,0.405340,0.747776,0.535738,0.660647,0.543436,0.654329,0.654329,0.543436,0.660647,0.535738,0.747776,0.405340,0.752470,0.396557,0.812485,0.251668,0.815376,0.242139,0.845972,0.088325,0.846948,0.078414,0.846948,-0.078414,0.845972,-0.088325,0.815376,-0.242139,
0.812485,-0.251668,0.752470,-0.396557,0.747776,-0.405340,0.660647,-0.535738,0.654329,-0.543436,0.543436,-0.654329,0.535738,-0.660647,0.405340,-0.747776,0.396557,-0.752470,0.251668,-0.812485,0.242139,-0.815376,0.088325,-0.845972,0.078414,-0.846948,0.009300,-0.846948,0.000000,-0.850800,-0.600000,-0.850800,-0.609278,-0.846957,-0.639018,-0.846957,-0.658458,-0.843090,-0.730554,-0.813227,
-0.747035,-0.802215,-0.802215,-0.747035,-0.813227,-0.730554,-0.843090,-0.658458,-0.846957,-0.639018,-0.846957,-0.609277,-0.850800,-0.600000,-0.850800,0.600000,-0.846957,0.609277,-0.846957,0.639018,-0.843090,0.658458,-0.813227,0.730554,-0.802215,0.747035,-0.747035,0.802215,-0.730554,0.813227,-0.658458,0.843090,-0.639018,0.846957,-0.609278,0.846957,-0.600000,0.850800,0.000000,0.850800,
0.009300,0.846948,0.009300,0.846948,$1*%
G04 Aperture macros list end*
%ADD10C,1.712000*%
%ADD11C,1.904000*%
%ADD12C,2.200000*%
%ADD13C,1.850000*%
%ADD14RoundRect,0.212700X-0.638100X-0.638100X0.638100X-0.638100X0.638100X0.638100X-0.638100X0.638100X0*%
%ADD15C,1.701600*%
%ADD16FreePoly0,0.000000*%
%ADD17FreePoly1,0.000000*%
G04 APERTURE END LIST*
D10*
%TO.C,U1*%
X167500000Y-52220000D03*
X167500000Y-54760000D03*
X167500000Y-57300000D03*
X167500000Y-59840000D03*
X167500000Y-62380000D03*
X167500000Y-64920000D03*
X167500000Y-67460000D03*
X167500000Y-70000000D03*
X180200000Y-52220000D03*
X180200000Y-54760000D03*
X180200000Y-57300000D03*
X180200000Y-59840000D03*
X180200000Y-62380000D03*
X180200000Y-64920000D03*
X180200000Y-67460000D03*
X180200000Y-70000000D03*
%TD*%
D11*
%TO.C,S2*%
X213500000Y-104000000D03*
X211500000Y-104000000D03*
X209500000Y-104000000D03*
X207500000Y-104000000D03*
%TD*%
%TO.C,M1*%
X163500000Y-58500000D03*
X163500000Y-56500000D03*
X163500000Y-54500000D03*
X163500000Y-52500000D03*
%TD*%
%TO.C,DS1*%
X182000000Y-47000000D03*
X180000000Y-47000000D03*
X178000000Y-47000000D03*
X176000000Y-47000000D03*
%TD*%
D10*
%TO.C,U2*%
X208150000Y-52610000D03*
X208150000Y-55150000D03*
X208150000Y-57690000D03*
X208150000Y-60230000D03*
X208150000Y-62770000D03*
X208150000Y-65310000D03*
X208150000Y-67850000D03*
X208150000Y-70390000D03*
X220850000Y-52610000D03*
X220850000Y-55150000D03*
X220850000Y-57690000D03*
X220850000Y-60230000D03*
X220850000Y-62770000D03*
X220850000Y-65310000D03*
X220850000Y-67850000D03*
X220850000Y-70390000D03*
%TD*%
D11*
%TO.C,M2*%
X225000000Y-59000000D03*
X225000000Y-57000000D03*
X225000000Y-55000000D03*
X225000000Y-53000000D03*
%TD*%
%TO.C,Power 12V*%
X215000000Y-47000000D03*
X213000000Y-47000000D03*
X211000000Y-47000000D03*
X209000000Y-47000000D03*
%TD*%
%TO.C,S1*%
X180500000Y-103500000D03*
X178500000Y-103500000D03*
X176500000Y-103500000D03*
X174500000Y-103500000D03*
%TD*%
D12*
%TO.C,A1*%
X191665000Y-51350000D03*
D13*
X191965000Y-54380000D03*
X196815000Y-54380000D03*
D12*
X197115000Y-51350000D03*
D14*
X185500000Y-51220000D03*
D15*
X185500000Y-53760000D03*
D16*
X185500000Y-56300000D03*
D15*
X185500000Y-58840000D03*
X185500000Y-61380000D03*
X185500000Y-63920000D03*
X185500000Y-66460000D03*
D16*
X185500000Y-69000000D03*
D15*
X185500000Y-71540000D03*
X185500000Y-74080000D03*
X185500000Y-76620000D03*
X185500000Y-79160000D03*
D16*
X185500000Y-81700000D03*
D15*
X185500000Y-84240000D03*
X185500000Y-86780000D03*
X185500000Y-89320000D03*
X185500000Y-91860000D03*
D16*
X185500000Y-94400000D03*
D15*
X185500000Y-96940000D03*
X185500000Y-99480000D03*
X203280000Y-99480000D03*
X203280000Y-96940000D03*
D17*
X203280000Y-94400000D03*
D15*
X203280000Y-91860000D03*
X203280000Y-89320000D03*
X203280000Y-86780000D03*
X203280000Y-84240000D03*
D17*
X203280000Y-81700000D03*
D15*
X203280000Y-79160000D03*
X203280000Y-76620000D03*
X203280000Y-74080000D03*
X203280000Y-71540000D03*
D17*
X203280000Y-69000000D03*
D15*
X203280000Y-66460000D03*
X203280000Y-63920000D03*
X203280000Y-61380000D03*
X203280000Y-58840000D03*
D17*
X203280000Y-56300000D03*
D15*
X203280000Y-53760000D03*
X203280000Y-51220000D03*
%TD*%
M02*
