M48
; DRILL file {KiCad 9.0.7-1.fc42} date 2026-03-28T14:10:46-0500
; FORMAT={-:-/ absolute / metric / decimal}
; #@! TF.CreationDate,2026-03-28T14:10:46-05:00
; #@! TF.GenerationSoftware,Kicad,Pcbnew,9.0.7-1.fc42
; #@! TF.FileFunction,Plated,1,2,PTH
FMAT,2
METRIC
; #@! TA.AperFunction,Plated,PTH,ComponentDrill
T1C1.000
%
G90
G05
T1
X163.5Y-52.5
X163.5Y-54.5
X163.5Y-56.5
X163.5Y-58.5
X167.5Y-52.22
X167.5Y-54.76
X167.5Y-57.3
X167.5Y-59.84
X167.5Y-62.38
X167.5Y-64.92
X167.5Y-67.46
X167.5Y-70.0
X174.5Y-103.5
X176.0Y-47.0
X176.5Y-103.5
X178.0Y-47.0
X178.5Y-103.5
X180.0Y-47.0
X180.2Y-52.22
X180.2Y-54.76
X180.2Y-57.3
X180.2Y-59.84
X180.2Y-62.38
X180.2Y-64.92
X180.2Y-67.46
X180.2Y-70.0
X180.5Y-103.5
X182.0Y-47.0
X185.5Y-51.22
X185.5Y-53.76
X185.5Y-56.3
X185.5Y-58.84
X185.5Y-61.38
X185.5Y-63.92
X185.5Y-66.46
X185.5Y-69.0
X185.5Y-71.54
X185.5Y-74.08
X185.5Y-76.62
X185.5Y-79.16
X185.5Y-81.7
X185.5Y-84.24
X185.5Y-86.78
X185.5Y-89.32
X185.5Y-91.86
X185.5Y-94.4
X185.5Y-96.94
X185.5Y-99.48
X203.28Y-51.22
X203.28Y-53.76
X203.28Y-56.3
X203.28Y-58.84
X203.28Y-61.38
X203.28Y-63.92
X203.28Y-66.46
X203.28Y-69.0
X203.28Y-71.54
X203.28Y-74.08
X203.28Y-76.62
X203.28Y-79.16
X203.28Y-81.7
X203.28Y-84.24
X203.28Y-86.78
X203.28Y-89.32
X203.28Y-91.86
X203.28Y-94.4
X203.28Y-96.94
X203.28Y-99.48
X207.5Y-104.0
X208.15Y-52.61
X208.15Y-55.15
X208.15Y-57.69
X208.15Y-60.23
X208.15Y-62.77
X208.15Y-65.31
X208.15Y-67.85
X208.15Y-70.39
X209.0Y-47.0
X209.5Y-104.0
X211.0Y-47.0
X211.5Y-104.0
X213.0Y-47.0
X213.5Y-104.0
X215.0Y-47.0
X220.85Y-52.61
X220.85Y-55.15
X220.85Y-57.69
X220.85Y-60.23
X220.85Y-62.77
X220.85Y-65.31
X220.85Y-67.85
X220.85Y-70.39
X225.0Y-53.0
X225.0Y-55.0
X225.0Y-57.0
X225.0Y-59.0
M30
